<mxfile host="app.diagrams.net" modified="2024-02-18T23:10:20.950Z" agent="Mozilla/5.0 (Windows NT 10.0; Win64; x64) AppleWebKit/537.36 (KHTML, like Gecko) Chrome/121.0.0.0 Safari/537.36" etag="dbk399VrlBa-AEDrICYJ" version="23.1.5" type="github">
  <diagram name="第 1 页" id="SwjLc9jpIKyL_yJwRkCe">
    <mxGraphModel dx="989" dy="514" grid="1" gridSize="10" guides="1" tooltips="1" connect="1" arrows="1" fold="1" page="1" pageScale="1" pageWidth="827" pageHeight="1169" background="none" math="0" shadow="0">
      <root>
        <mxCell id="0" />
        <mxCell id="1" parent="0" />
        <mxCell id="yPAOAn4KySIuSZAZpGkR-1" value="String" style="text;html=1;align=center;verticalAlign=middle;resizable=0;points=[];autosize=1;strokeColor=none;fillColor=none;rounded=0;" parent="1" vertex="1">
          <mxGeometry x="55" y="28" width="50" height="30" as="geometry" />
        </mxCell>
        <mxCell id="yPAOAn4KySIuSZAZpGkR-8" style="edgeStyle=orthogonalEdgeStyle;rounded=0;orthogonalLoop=1;jettySize=auto;html=1;" parent="1" source="yPAOAn4KySIuSZAZpGkR-2" target="yPAOAn4KySIuSZAZpGkR-4" edge="1">
          <mxGeometry relative="1" as="geometry" />
        </mxCell>
        <mxCell id="yPAOAn4KySIuSZAZpGkR-2" value="p1" style="text;html=1;align=center;verticalAlign=middle;resizable=0;points=[];autosize=1;strokeColor=none;fillColor=none;rounded=0;" parent="1" vertex="1">
          <mxGeometry x="110" y="128" width="40" height="30" as="geometry" />
        </mxCell>
        <mxCell id="yPAOAn4KySIuSZAZpGkR-9" style="edgeStyle=orthogonalEdgeStyle;rounded=0;orthogonalLoop=1;jettySize=auto;html=1;" parent="1" source="yPAOAn4KySIuSZAZpGkR-3" target="yPAOAn4KySIuSZAZpGkR-6" edge="1">
          <mxGeometry relative="1" as="geometry" />
        </mxCell>
        <mxCell id="yPAOAn4KySIuSZAZpGkR-3" value="p2" style="text;html=1;align=center;verticalAlign=middle;resizable=0;points=[];autosize=1;strokeColor=none;fillColor=none;rounded=0;" parent="1" vertex="1">
          <mxGeometry x="110" y="208" width="40" height="30" as="geometry" />
        </mxCell>
        <mxCell id="yPAOAn4KySIuSZAZpGkR-4" value="person" style="whiteSpace=wrap;html=1;rounded=0;" parent="1" vertex="1">
          <mxGeometry x="360" y="113" width="120" height="60" as="geometry" />
        </mxCell>
        <mxCell id="yPAOAn4KySIuSZAZpGkR-12" style="edgeStyle=orthogonalEdgeStyle;rounded=0;orthogonalLoop=1;jettySize=auto;html=1;curved=1;" parent="1" source="yPAOAn4KySIuSZAZpGkR-6" target="yPAOAn4KySIuSZAZpGkR-11" edge="1">
          <mxGeometry relative="1" as="geometry" />
        </mxCell>
        <mxCell id="yPAOAn4KySIuSZAZpGkR-6" value="person" style="whiteSpace=wrap;html=1;rounded=0;" parent="1" vertex="1">
          <mxGeometry x="240" y="200" width="120" height="60" as="geometry" />
        </mxCell>
        <mxCell id="yPAOAn4KySIuSZAZpGkR-7" value="stack" style="text;html=1;align=center;verticalAlign=middle;resizable=0;points=[];autosize=1;strokeColor=none;fillColor=none;rounded=0;" parent="1" vertex="1">
          <mxGeometry x="345" y="68" width="50" height="30" as="geometry" />
        </mxCell>
        <mxCell id="yPAOAn4KySIuSZAZpGkR-10" value="constant pool" style="text;html=1;align=center;verticalAlign=middle;resizable=0;points=[];autosize=1;strokeColor=none;fillColor=none;rounded=0;" parent="1" vertex="1">
          <mxGeometry x="285" y="308" width="90" height="30" as="geometry" />
        </mxCell>
        <mxCell id="yPAOAn4KySIuSZAZpGkR-11" value="hspedu" style="text;html=1;align=center;verticalAlign=middle;resizable=0;points=[];autosize=1;strokeColor=none;fillColor=none;rounded=0;" parent="1" vertex="1">
          <mxGeometry x="225" y="348" width="60" height="30" as="geometry" />
        </mxCell>
        <mxCell id="yPAOAn4KySIuSZAZpGkR-13" style="rounded=0;orthogonalLoop=1;jettySize=auto;html=1;edgeStyle=orthogonalEdgeStyle;curved=1;exitX=0.5;exitY=1;exitDx=0;exitDy=0;entryX=0.648;entryY=-0.029;entryDx=0;entryDy=0;entryPerimeter=0;" parent="1" source="yPAOAn4KySIuSZAZpGkR-4" target="yPAOAn4KySIuSZAZpGkR-11" edge="1">
          <mxGeometry relative="1" as="geometry">
            <mxPoint x="352.5" y="157.99857142857135" as="sourcePoint" />
            <mxPoint x="247.5" y="362.97" as="targetPoint" />
            <Array as="points">
              <mxPoint x="420" y="300" />
              <mxPoint x="264" y="300" />
            </Array>
          </mxGeometry>
        </mxCell>
        <mxCell id="yPAOAn4KySIuSZAZpGkR-14" value="answer&lt;br&gt;T&lt;br&gt;T&lt;br&gt;T&lt;br&gt;F" style="rounded=0;whiteSpace=wrap;html=1;" parent="1" vertex="1">
          <mxGeometry x="590" y="113" width="130" height="87" as="geometry" />
        </mxCell>
        <mxCell id="yPAOAn4KySIuSZAZpGkR-19" style="edgeStyle=orthogonalEdgeStyle;rounded=0;orthogonalLoop=1;jettySize=auto;html=1;" parent="1" source="yPAOAn4KySIuSZAZpGkR-15" target="yPAOAn4KySIuSZAZpGkR-17" edge="1">
          <mxGeometry relative="1" as="geometry" />
        </mxCell>
        <mxCell id="yPAOAn4KySIuSZAZpGkR-15" value="s1" style="text;html=1;align=center;verticalAlign=middle;resizable=0;points=[];autosize=1;strokeColor=none;fillColor=none;rounded=0;" parent="1" vertex="1">
          <mxGeometry x="580" y="225" width="40" height="30" as="geometry" />
        </mxCell>
        <mxCell id="yPAOAn4KySIuSZAZpGkR-20" style="edgeStyle=orthogonalEdgeStyle;rounded=0;orthogonalLoop=1;jettySize=auto;html=1;" parent="1" source="yPAOAn4KySIuSZAZpGkR-16" target="yPAOAn4KySIuSZAZpGkR-18" edge="1">
          <mxGeometry relative="1" as="geometry" />
        </mxCell>
        <mxCell id="yPAOAn4KySIuSZAZpGkR-16" value="s2" style="text;html=1;align=center;verticalAlign=middle;resizable=0;points=[];autosize=1;strokeColor=none;fillColor=none;rounded=0;" parent="1" vertex="1">
          <mxGeometry x="570" y="273" width="40" height="30" as="geometry" />
        </mxCell>
        <mxCell id="yPAOAn4KySIuSZAZpGkR-23" style="edgeStyle=orthogonalEdgeStyle;rounded=0;orthogonalLoop=1;jettySize=auto;html=1;curved=1;" parent="1" source="yPAOAn4KySIuSZAZpGkR-17" target="yPAOAn4KySIuSZAZpGkR-21" edge="1">
          <mxGeometry relative="1" as="geometry" />
        </mxCell>
        <mxCell id="yPAOAn4KySIuSZAZpGkR-17" value="value" style="whiteSpace=wrap;html=1;rounded=0;" parent="1" vertex="1">
          <mxGeometry x="440" y="220" width="90" height="40" as="geometry" />
        </mxCell>
        <mxCell id="yPAOAn4KySIuSZAZpGkR-18" value="value" style="whiteSpace=wrap;html=1;rounded=0;" parent="1" vertex="1">
          <mxGeometry x="660" y="268" width="90" height="40" as="geometry" />
        </mxCell>
        <mxCell id="yPAOAn4KySIuSZAZpGkR-21" value="bcde" style="text;html=1;align=center;verticalAlign=middle;resizable=0;points=[];autosize=1;strokeColor=none;fillColor=none;rounded=0;" parent="1" vertex="1">
          <mxGeometry x="440" y="378" width="50" height="30" as="geometry" />
        </mxCell>
        <mxCell id="yPAOAn4KySIuSZAZpGkR-24" style="edgeStyle=orthogonalEdgeStyle;rounded=0;orthogonalLoop=1;jettySize=auto;html=1;entryX=1.049;entryY=0.705;entryDx=0;entryDy=0;entryPerimeter=0;curved=1;" parent="1" source="yPAOAn4KySIuSZAZpGkR-18" target="yPAOAn4KySIuSZAZpGkR-21" edge="1">
          <mxGeometry relative="1" as="geometry">
            <Array as="points">
              <mxPoint x="705" y="350" />
              <mxPoint x="492" y="350" />
            </Array>
          </mxGeometry>
        </mxCell>
        <mxCell id="n57GaInJiL16LFx53vFO-18" style="edgeStyle=entityRelationEdgeStyle;rounded=0;orthogonalLoop=1;jettySize=auto;html=1;" edge="1" parent="1" source="n57GaInJiL16LFx53vFO-1" target="n57GaInJiL16LFx53vFO-16">
          <mxGeometry relative="1" as="geometry" />
        </mxCell>
        <mxCell id="n57GaInJiL16LFx53vFO-1" value="s1" style="rounded=0;whiteSpace=wrap;html=1;" vertex="1" parent="1">
          <mxGeometry x="110" y="710" width="95" height="40" as="geometry" />
        </mxCell>
        <mxCell id="n57GaInJiL16LFx53vFO-2" value="stack" style="text;html=1;align=center;verticalAlign=middle;resizable=0;points=[];autosize=1;strokeColor=none;fillColor=none;rounded=0;" vertex="1" parent="1">
          <mxGeometry x="360" y="530" width="50" height="30" as="geometry" />
        </mxCell>
        <mxCell id="n57GaInJiL16LFx53vFO-3" value="constant pool" style="text;html=1;align=center;verticalAlign=middle;resizable=0;points=[];autosize=1;strokeColor=none;fillColor=none;rounded=0;" vertex="1" parent="1">
          <mxGeometry x="345" y="760" width="90" height="30" as="geometry" />
        </mxCell>
        <mxCell id="n57GaInJiL16LFx53vFO-16" value="hspedu" style="rounded=0;whiteSpace=wrap;html=1;" vertex="1" parent="1">
          <mxGeometry x="342.5" y="820" width="95" height="40" as="geometry" />
        </mxCell>
        <mxCell id="n57GaInJiL16LFx53vFO-24" style="edgeStyle=entityRelationEdgeStyle;rounded=0;orthogonalLoop=1;jettySize=auto;html=1;" edge="1" parent="1" source="n57GaInJiL16LFx53vFO-22">
          <mxGeometry relative="1" as="geometry">
            <mxPoint x="360" y="600" as="targetPoint" />
          </mxGeometry>
        </mxCell>
        <mxCell id="n57GaInJiL16LFx53vFO-22" value="a" style="rounded=0;whiteSpace=wrap;html=1;" vertex="1" parent="1">
          <mxGeometry x="105" y="550" width="95" height="40" as="geometry" />
        </mxCell>
        <mxCell id="n57GaInJiL16LFx53vFO-27" value="" style="edgeStyle=entityRelationEdgeStyle;rounded=0;orthogonalLoop=1;jettySize=auto;html=1;" edge="1" parent="1" source="n57GaInJiL16LFx53vFO-23" target="n57GaInJiL16LFx53vFO-26">
          <mxGeometry relative="1" as="geometry" />
        </mxCell>
        <mxCell id="n57GaInJiL16LFx53vFO-23" value="b" style="rounded=0;whiteSpace=wrap;html=1;" vertex="1" parent="1">
          <mxGeometry x="105" y="610" width="95" height="40" as="geometry" />
        </mxCell>
        <mxCell id="n57GaInJiL16LFx53vFO-30" style="edgeStyle=entityRelationEdgeStyle;rounded=0;orthogonalLoop=1;jettySize=auto;html=1;" edge="1" parent="1" source="n57GaInJiL16LFx53vFO-25" target="n57GaInJiL16LFx53vFO-16">
          <mxGeometry relative="1" as="geometry" />
        </mxCell>
        <mxCell id="n57GaInJiL16LFx53vFO-25" value="name" style="whiteSpace=wrap;html=1;" vertex="1" parent="1">
          <mxGeometry x="360" y="570" width="120" height="60" as="geometry" />
        </mxCell>
        <mxCell id="n57GaInJiL16LFx53vFO-26" value="name" style="rounded=0;whiteSpace=wrap;html=1;" vertex="1" parent="1">
          <mxGeometry x="360" y="660" width="95" height="40" as="geometry" />
        </mxCell>
        <mxCell id="n57GaInJiL16LFx53vFO-29" style="edgeStyle=entityRelationEdgeStyle;rounded=0;orthogonalLoop=1;jettySize=auto;html=1;entryX=0.997;entryY=0.633;entryDx=0;entryDy=0;entryPerimeter=0;" edge="1" parent="1" source="n57GaInJiL16LFx53vFO-26" target="n57GaInJiL16LFx53vFO-16">
          <mxGeometry relative="1" as="geometry" />
        </mxCell>
        <mxCell id="n57GaInJiL16LFx53vFO-31" value="FFTFFT&lt;span class=&quot;eusoft-eudic-chrome-extension-translate-content&quot;&gt;&lt;span class=&quot;eusoft-eudic-chrome-extension-translate-white-space ng-star-inserted&quot;&gt;&amp;nbsp;&lt;/span&gt;&lt;span data-eusoft-eudic-loading-template-original-text=&quot;FFTFFF&quot; class=&quot;eusoft-eudic-translate-loading-tag ng-star-inserted&quot;&gt;&lt;/span&gt;&lt;/span&gt;" style="whiteSpace=wrap;html=1;" vertex="1" parent="1">
          <mxGeometry x="470" y="1035" width="120" height="60" as="geometry" />
        </mxCell>
        <mxCell id="n57GaInJiL16LFx53vFO-36" value="" style="edgeStyle=entityRelationEdgeStyle;rounded=0;orthogonalLoop=1;jettySize=auto;html=1;" edge="1" parent="1" source="n57GaInJiL16LFx53vFO-32" target="n57GaInJiL16LFx53vFO-35">
          <mxGeometry relative="1" as="geometry" />
        </mxCell>
        <mxCell id="n57GaInJiL16LFx53vFO-32" value="s4" style="whiteSpace=wrap;html=1;" vertex="1" parent="1">
          <mxGeometry x="680" y="560" width="100" height="40" as="geometry" />
        </mxCell>
        <mxCell id="n57GaInJiL16LFx53vFO-39" style="edgeStyle=orthogonalEdgeStyle;rounded=0;orthogonalLoop=1;jettySize=auto;html=1;entryX=0.5;entryY=1;entryDx=0;entryDy=0;" edge="1" parent="1" source="n57GaInJiL16LFx53vFO-35" target="n57GaInJiL16LFx53vFO-16">
          <mxGeometry relative="1" as="geometry">
            <Array as="points">
              <mxPoint x="580" y="880" />
              <mxPoint x="390" y="880" />
            </Array>
          </mxGeometry>
        </mxCell>
        <mxCell id="n57GaInJiL16LFx53vFO-35" value="value" style="whiteSpace=wrap;html=1;" vertex="1" parent="1">
          <mxGeometry x="530" y="610" width="100" height="40" as="geometry" />
        </mxCell>
        <mxCell id="n57GaInJiL16LFx53vFO-59" style="edgeStyle=orthogonalEdgeStyle;rounded=0;orthogonalLoop=1;jettySize=auto;html=1;elbow=vertical;" edge="1" parent="1" source="n57GaInJiL16LFx53vFO-58" target="n57GaInJiL16LFx53vFO-16">
          <mxGeometry relative="1" as="geometry" />
        </mxCell>
        <mxCell id="n57GaInJiL16LFx53vFO-58" value="s5" style="whiteSpace=wrap;html=1;" vertex="1" parent="1">
          <mxGeometry x="110" y="815" width="95" height="50" as="geometry" />
        </mxCell>
        <mxCell id="n57GaInJiL16LFx53vFO-62" value="" style="edgeStyle=orthogonalEdgeStyle;rounded=0;orthogonalLoop=1;jettySize=auto;html=1;elbow=vertical;" edge="1" parent="1" source="n57GaInJiL16LFx53vFO-60" target="n57GaInJiL16LFx53vFO-61">
          <mxGeometry relative="1" as="geometry" />
        </mxCell>
        <mxCell id="n57GaInJiL16LFx53vFO-60" value="t2" style="whiteSpace=wrap;html=1;" vertex="1" parent="1">
          <mxGeometry x="690" y="780" width="120" height="60" as="geometry" />
        </mxCell>
        <mxCell id="n57GaInJiL16LFx53vFO-61" value="hellohspedu" style="whiteSpace=wrap;html=1;" vertex="1" parent="1">
          <mxGeometry x="480" y="920" width="120" height="60" as="geometry" />
        </mxCell>
        <mxCell id="n57GaInJiL16LFx53vFO-65" value="" style="edgeStyle=orthogonalEdgeStyle;rounded=0;orthogonalLoop=1;jettySize=auto;html=1;elbow=vertical;" edge="1" parent="1" source="n57GaInJiL16LFx53vFO-63" target="n57GaInJiL16LFx53vFO-64">
          <mxGeometry relative="1" as="geometry" />
        </mxCell>
        <mxCell id="n57GaInJiL16LFx53vFO-63" value="t1" style="whiteSpace=wrap;html=1;" vertex="1" parent="1">
          <mxGeometry x="690" y="690" width="120" height="60" as="geometry" />
        </mxCell>
        <mxCell id="n57GaInJiL16LFx53vFO-66" style="edgeStyle=orthogonalEdgeStyle;rounded=0;orthogonalLoop=1;jettySize=auto;html=1;entryX=1;entryY=0.5;entryDx=0;entryDy=0;elbow=vertical;" edge="1" parent="1" source="n57GaInJiL16LFx53vFO-64" target="n57GaInJiL16LFx53vFO-61">
          <mxGeometry relative="1" as="geometry" />
        </mxCell>
        <mxCell id="n57GaInJiL16LFx53vFO-64" value="value" style="whiteSpace=wrap;html=1;" vertex="1" parent="1">
          <mxGeometry x="530" y="690" width="120" height="60" as="geometry" />
        </mxCell>
        <mxCell id="n57GaInJiL16LFx53vFO-67" value="" style="shape=image;verticalLabelPosition=bottom;labelBackgroundColor=default;verticalAlign=top;aspect=fixed;imageAspect=0;image=data:image/png,iVBORw0KGgoAAAANSUhEUgAAAa4AAACvCAYAAACl3jqLAAAgAElEQVR4Aey9B3RVR5bv/db6XgcbkATCbhMUb85RASHp3ishkZPIKGeRTDA5YwwYm2CDbTDG5Awm54zJ2eRgkm1w6nanme7p+Wb1/L61z9URFwbRPeGt9958aK3/qrxrV51S/e+uqlPnf1DL31//+leC+NdqNzT8dJya9lf++q+CYPq/hsqQuOr4YJ7qMkr+kPJqGYlX/f+nuLXp+p/WT/pLxbParaY97T4r778jTm1PbX0dmv60/z/d5n+Hnk/XFarL02nPCqv5lbTQPvxP6PCsev6Pi5O2Pt1Gtf1Px/+NsPq/+4Q8VZbqhsqo/n9X/+9DXWWsh+b99/qr61Nl1vzvSPzfkqXqGurWViY0z7NkP50eGq6W+ax+e2ZcyNyptuuJcftYx4cPH3Lv3r3/Enz77bf8y7/8S/W8repQ7T6zLx+3Ueb3/1V4giMUPR7XK3Pl/6iFtwir8z+J+GUE4T9/hfBfhhNW9xe8HPYyvwx7hV+EvcpLEeH8sn44PwsP42cR9fh5gzr8IvIlXor8OS9Hvkp4RBiR9X5O3fB6/M8Gjfmfr0RRN7IB9ev/grqR/w8vNfwZP4t8iZ9FhvHzyHB+2aAudeq/zMvhdajbIIx6DcJ5Kbyu4tatH0adiHq8HFGXug3qPUb9urwcUacGdSLCqRNRvwYvhYXzUlhYDeqFvYSKsPCXiYioW4N69etRp0FYDV6uX49Q1I0MpwYNpJ56jyF6NPhlDV6q/wt+GYKw8DDCw8OfibDwCOpERNbg5YhIXo5oEILHaZIvmB50JRweUe8JhIXXpQZhdQgPr0tEfclTl7CwOtSt97KCemF1eDnypafwS16O/PtQp34YdSPCa/ByeBgq6kaEEVH/MWQshOpZr344detH1EAtF3TrUae+jIVqhDxfedZ1GrxM3ciXasHLBMdAOHXq11HGU50Gv6BO5M+p0/BnyrOtG/EadSNeoW5EQ+rWr0+9BvWo16AO9SJfpm59ea5BPKlTGHWlXyN+WSukf0Pb+G/90gcqnnxmdcLrKmNdxrtAxnmd+jLOw5XxL7LCwgXyDIPPV5VfT/5n6v+ClyN+qfwf1ImQ/5UG1AlvSJ3wVwgPiySigYztX/CL8HrUjYiiXngU4fUbECZjPLzBE1DKRkRSt76gQXUfRRIW2ZC6DRo8Rv1gHcF+bEi9Bg2pp5aJkH5tSL3IV2oQFvkqj/EK9RoEn3+d6j4PHQ+hz0Gex795FiK7Wn5Y5CuK3HoNXqFu/YZK218Or4+Kl8Lq81JYRA0UfWuef8PqssG2hs4d0g/SB/Xqv0K9iCDU/pBxE0QkdRsEUa9BJKKDijr1IxGENXxFceuEhxNWP4IImQMbRir+sPoSV41X6hDWMJywyF8RFtmEsMhGhEU2oF5kHepGyrwXXoOwyAjCGkZQLzJCmSvDIurzGA0Irx/5GA3qEx5ZrwYRDcNQIHEN6lIvst5zERFZj4jIoO71whtQL/wV6oW9Rr2wxtQPjyQyPCIE9WkYEURkRH0a1H+M+hERRIQ/RmRYfV6p10BBw7r1UaHG1WtYl/BXw6q5oAF1IhryUtgrvBz2Gi9HvFo7cYU3DaN+4yZENtYSGRVDg7hXaKD9FeGaWCI1Gl7VRBEZH80reg2RBj0NDDoaGrS8YtQSqbfRSKsjJj6KRloN9fU2IvQ2Xo2LJkb7Gk0NjWlkiuFXFh2RRj0ROg31dfE01MbQWG/kVxoDr2mNxFqdRJlsNDVaaWKw0FhvprHe9Bg6I41C0Fivp7FeVysaGY2E4jWDARWNDSalDqlHqUvqC0EjnQkVjXUmoozWGjQ1mmliMtSKxiYdtcKop4nR9AQaG02oUNJMJppUI8psJspsqYaZxmbtE2hk0qCisehkttLUYqOp2ar4G5vMNBJ9zVYaG3RPoKnZyN+LJkYdKpoadUSZDTVoatbTyKypwdM6RlkMRFuMNQgtG202EmO2PYFosw0VUSYTTU2GGkSbTURbHiPK6FDGTJTJiuSNMotuWqIs8YjsaJOLaLOdaLOVKLPxifQYqwkF1bqF6iX+JmZjrWhs1j3xHELb3MSio6lVXwMJh6bL8wzqJHrZFf2lvTEWB7EWO01tBqVsk2oZUXYjgmiBLdi2KLOGKLM+2GaThSijXUGsyUWszUCMPZ4oq4wzN1F6N1EGA1FGDdEmEzFmM7FmCzEqLBZiLDLGpH+MNFHGqL6mz4P9byTKZCZaYK52TUaijCJXT1ODgaYGYw2ijKZq3apdi54ogVlHU5OMJW0Nos16Yq2GGsRYDISiqTIG5NnK/4IZNdzEKOPXRIzN+hhWKzEhiLZYCcJCtNJGkWNU2hZlMhBrNlUj2CZFb9HdKPUE84WOvxq/jC1LUGaoG2UxB+PNBqKNOgVRBi0xJv0TaGKOpok5Pvh/bpB5TvpdR1NLbHCMKuNZxrSVJkaRaSPWKmPdSozJ+ASiDHpqYJR6Hqer7ZO4aKMh+PxMFqKfCROxFg2xFh3Rir4m4i124i1O4s1ufmUzEenQ1aCBXYuK+nYt9R26x3DqaeAy1OAVp5FfOUy86jDyqt3IK3aDAvFLXFN7PNEOHU0sWppa5f/OjMxdjaX9ZmvtxPWzmEh+Ga+hns5JhNlOA4eGV90afuWxEuV1E+Ww8CublQYWOxE2D/XtydS3N6OBPYUwezqv2hKJstpoZHfRwJHCr9yp2NJSsSY4aGpz0tjh5jVnIg2dSTRwJiqIdCbwqjWZ16zNaeJIp7E9rcZtZEulka05jWwpNXjNlsJr1maPYffQyOF8Aq85nKho6GzOY6TQ0PkYrzqa85ojtQaNHGk8AaVuqV+Qqugm+ilwNKeRo9mTcDajUTVecSfQ0O19Jl5xJfCa8zEaORNo5EysQWNXEk3cyTWQcChe9SSg4hXPU/W4knnVncqvPGk17iuu5ggkrrEz5T+MJq5EmrgSatDUnYiKxu5EXvUmPEaIjqJrE08SUSFQywXdZJo6fbWiiTOVJs6UGjR1NecJOP3Bsq50Jb6JM5kmzqRqPZvR1JlGU6eUSSHa04wYbzIx3iRivIlEe5MVvZq6k2raourW2C19mVI7PIk1z0F9Hk+4XukTFY+fmeRpLG0IaXO0O4AgxpNBjDeD1xKTeC0hiV9V47XEZFQ09kq/e6uRSFNXstI2tU9i3elEuZxEuYzEuBzEOZsRZ0sm1m4jxm4kxm4jzmkn3uUkzukg1mFX4iQ+2mlVIP/rTe3mmrDExzilnFMpJ2XjFdk2Yh1WYp2WoOuQcBAxditPwGkhWoGZKIfIfoxYl4V4t7UGcS4rcS5LDaIcops9CJeDGFfQH4y3Ke2UtgokrqndWoMYp5NYVxDBdNEj2E6pV6lLaZtd6RfpjyAcSpujnVK3imA5tXyUw8qTCOYTHWIcZmLtJmIdZuIUWIhzPka0S0+0yxSU7XAQpfS/mWiXgViXjViXtwYxTi+P4SFO0ddKnNNKnONp2IhzOELgJN7hJM7uINZmJ8bmIsZaC2wO4p1m4qVfHBZibVZi7XZi7U4FTZ1WGrtNNWjkMvH3orHLTGOnmUYOgYnXbEZeswch4Si3gRiviaZOA9EuC1EuG03lWUrfOO21E1ej5BSaJLcmqlkXYlM7kNStG2XjR1I1YQJ9J0ym58ChONt0I6Z5O5o070ST5l1p2rwHTVN68Ku0XGLTumBs3hZN83Y0Te1CSs/+zFi4nIGjJ2FI7YK2eQ6xKZ2ITulEVGrnoIy0TkQ370Js864KYpp1Ia55N2KbdyMmpQsxzbsQl9q1BrGpEpdTA9EzNq1tDWLS2hCTGoquxKRWI60rMaFQ40Pc2NRuqIhL7UYoFH1Ep2q9olM7oyImLYcn0ZnotGcjJq0zMWmdahCb1olQxKR1JDr1MST8RP70zsSGIDQtqE+X6nYG3ejULgiCbX9ST3lmj/Fk2pPtySE+vfMTiEvrhApFf18OsSpC9BNd457GE2U7K89bnvkzkSpjIKd2pHUlrgY5xKZ2qkYHYlNFtowtGWM5xKVJO9S2BPWPTe2IICa1Y017pF2x8pxSc2pF6DN4lj/0ucQ81R8yjtUxH+qq4y1UnowXNSwypa/j0kJ17UJ8WrcamJp3RJuYhsbjwOjxYPGkY3amYXS5MLgs6B12DE4HJrcLs8etwCRpTgc6px2t047e7cTkdWP0uDB63Rg8LkxeD1ZvAtaERGwJCVi93uryTswegQuz21Uj15rgDeZL8CJ+S5IHW3KC4pq8TowCRUcHRrfoUw2XXfEbXXZU6FwORSejx63oY0rwKPqIbqEQHc1SV2IC5gTxezB6vJgEXq/SHr3LgcEj7XMq9ap1mFxORXeT243J7cHsDqnD41L6QPrhCbidGNyuakib3FiSEoJ95pR+tiltsXpdNW2ROL3DitZpROuwoHHY0Dqk751onVY0ThMahxmN3VYDaXe8/PAwmxRXyodCZ7egtZkVaKxm4i1iKQVRE5ayFhNaq70aDnQ2Bzq7E63NgcZqR2OxEm81oLGYiDMbiTWZiDOZq2HBYDBh1hsfw6D6DZj0Bkw6/WPoDZiV9KBr0RtRoDNglnzaxzBrxRLXEG0RS7x6JcFsoKlRVhSMyspJrXtcGn8OukAJOn8/bC378PrUD7n0zfecvnqHA2dv8tGGg7QuHok+kIfWX4DOX4zeV4zBV0xMoBJToBB3oBeG1G5oA0W0KpvIZ/vPMv2DFVgyyjH7SzCmF2Dy52PKKETnz0eXUYg2o0jJL2WeCSWP5HsGAoVonwNjoJjaoAsUo8koqhXP1EXVUXTOrB16fykGX9kzIWnazP8gMkTuc+CX9hbViufp/DfTAiVoa4HOX/JcvSS9trISr8sorRXajOJnP/ua8VCANkPwrPFRjDZQVo1SdIEydBnlNXiuTsrYqb0vDcozfs6zeM5zkv+d2seX/E/VLlfnL0MbAl1A2lNR0yZHWm/MSS2wejw4XR48zlScthQcDjcOlx2nw6nA7fLg9XjxuL04nS4cdgd2h0uBlHN7E3G6vXi8iTgk7EnE60kiwZtEYkIyiQlJeDwevF4VQVlBuQl4vQkkJkr+RDweL26vl8TkZLyJIld0cWF3OnE4nThdLjweN16vV3HdbjculwunpDkc2EU/lxuXx4vL7cHpFv0SlLA3MQmBJyFRQUJSMknNUmrCbq+kN8ObmKyUcbrcii7exAScLieuarhdbqUv3C4vAo87EbcnWIe03+50K/VK3QqUuKBeopvIVfVS0qVtdulvB25pi8OBS22PzYbFZsWiuOK3Y7U7sNrtWOwSNmOxmzDbjJhtJpweO2arEaNFr7gWixmzyajAYjZjMZsUv8lowGjUYzRoamA26RS/yajFbNJiNOiUPCZTMK/FYkL8BoMOvV6HQW8IQmfEoMCAQReEUVdNUEJSQkwKWRkwanUYNDpMITBqdBjiNOhj49HHaTDEazBotBg0GnRxcejj46vjgmlarQaNRkO8ID7+CWji42u3uOL9PdH5q9D6BmNvNYhRs5dz4cuvmPHeAvoMmUKn8vEkta8ks9cQulRNol3BcApfn0zFkGk06zSITgUjGDxyOj3Lx2FtUUxSpwGMnjKfkv7j8LTrR8eyieSUjiW370Qqh71Dp6JRJGQXYQgUowvIpFIbJL0W+MvQ+ctrhclXRm0QAtEEakft+gT11GaWUBsMvgqM6ZXPhMFXiTaj4j8EmaCM6eW1w1+KyV9SK2rT9++JlwmzNuj9z9EpvRxJr62sPD99oKJWBJ9DLc9fGReF6AKCoupxUlI9lp7WV62nEn2gSkFw7DydLxjW+8tq7UfpY6Pv+W1+3nMS2bWOL39p7c9X+tJXic7XJwi/tEWF9GE5trRCzEnZ2DxuPC4nSc5meG1JuJQJ1IbH6VLgdblJcHsUeFwu3EJodhcedwJedwIuhxshIY86kbu8eF1eEtwJJHoSSfIkkODxkOgVuEn0eEjyeEkSwvJ4FSQnJCphqcfjFmJwK2QphKkQqD04mUv9ij7VOomOoo/AZXco5WTyD078TjySz+PFK3UmJikQv8ftITEhgWZJySSIHgkJCnEK2QaRoMjwuF0kJXpJ8EgfSH84cDsceJ1upY1ep5cEV4LSdiF2tQ9UUgu6HhSyEyJUSE/6241b+lfaKq7dSYLDRYK0x+bA4wiGJd5hd+GwObDbbAoc1a7dasdmtWK3mbBajFgtBpxOKxaLAbNZjxCRzWjAatArsBmNCKwGA1a9Hoteh0WvqYHVIGEtVqMOq0GLUafBZjZiF8LSazAbtJglj1GHxaDHrDVVw4i52joSC8ms06I16okzG2oQa9IjiDFoiTZoiTPonkCsXku0Np4YnYYYg4ZoQ7yCprpYmmhjEDdKH0eMUYMpXocxTosxVoMhNh5jXBzGuNggYmNrJ66YQDfiMiqIDQzE1m4QExes4drDhyxZsYpRb86iZe5gXC16M3bWInafvMzqLXs48PlxLl29ysI1e1izYTfnz1/i8MnL9Og7nraFw9h24CQzPlhE5/7jWXvwDNuPnGHbvs85ffE6G3cconthfyz+QoREakcxerHunomS55QrxRAoqxVSn+45qF2fal0DJeifA7EynoXnlfnbacXo/EW1Qh8oxhAoqRV/W/7z2lSA3l87nqvXc8oZ/IUY/BXPgfR3bc9f4kUnGUOCIvR+GRNlClkq5QJ56AP5Sj5DQH4oSf+UYvCXYXiOXvpAYa39KDL0QpTPeRbPSwvqWPuY/5tlfWXofVJe2iLPXCD6FmLyFaFv1hJzgguX206iKxGPIwGn24bLawtOqh4PYtUIxGoSiN/hFEvIg8stFlJC0EKRiTshUbFuFFITwhJCSBCrykNCQhBBv1hZiYrlJNaT+CWfIt8rMsVSEnkJiMXj8nhwedy43O6gdeV0KnqIpeVwCBwKlHS3WDdOBVLGkxC04hISxdLyBuVIO8QCVGSLZRW0zIJWklhsYjmJBWfHnSBhsbikDhsOh12xPMX6dDqEJD1Kf4ilpfaJ0j8SVuLEwnIp1qJYjwKxJKUOxaIUC8shJOvCLZZWNUlLnMNmx+URS9aN1WHBYjNhc1iw2m1YbQ4sNofimixWBDa7A5PZitFsQS/LdUaxeHSYDDrFbxHryyhLcnpMBkkzhkAIyoTVZMVkMGE0GjGLlWaxYDIFwyaTUfGbjGaMWjNGnQmxrox6fXU9WkwGDSYl/KTVJXkMWh16jRaxsp6Ettra0mLQatHrNAq08XHEx8UQHxeLJj4WrSYOU5weY2zQSjPExmGMF8QoMMRF105ccf7eypKKJlCFvV1/Bs1czPbzVzhw6Spnbt9j6epNdMkbxIzl23j0069Zv2Erb81Zy9e//onffPcTE2csYuGa/fz2d39m3tKNdOk7kWtffc+6DevIHzWJc/cfcuniGd758GPWHDzN/YffMHL0OByZMuHIZFMbnjdp/Y205xBL7fXVpsfjeINMGP7iWhH89S8WwLNh8BfxH0XQulCtjKfdIoS8asPzdP5bac8jLX2goNrqeVqfYFjSay8vxCVEUhuk35/3nIWsQiF5pYxM7BIvpKUSl0zuj/u+dp0KEOKqrR8l/vnP4dn9oJYJtufxeHp6LKr5nuUG2yRtDLZZJSxDoACB1l+IMTkbh8eJ12NTltYc7kRcbicejwO3EJWQiEzyYnEkJuAVcvEKYXmUCViIIiFJltgS8XiFZIJLcd6ERIQoEpMESUpZKZ+Q4MWb4CUpOYnkZs2UNCWPkJiQlJIerEfCiclJNGueohCMkI7oI3UG4VKWD23KJG7D4XQoS3qypCjEJaQQJCRPtewEpZwsR6rtkmVKaV9QnpCVUyEsCQdJRuRInL1muVCWDQVSj81mx+6QdKfi2mS50uFUCERIRIGyhPm4jF1IVqxCT3UdDodCxuqSp/ojwW63YxWLyhlcKhUd7E6bsowr7VOWDIW47E7MVjsmi03xC3GZzDYMRjMmoxFZFgxCrDKLslwYjDdhMpgxCvRB12y0YjHbMJusCmkZDGK9mRWy0uv11ECnR18Ng0EfXHZUlh51GAxaxZqz6Q1YdXosWp3i2g1G7LJ/pdFiiddiVqDBHKfBVA1zvAazRoMhLq4asYor5CRx+thYdPEadLKMGB+HJi4GrRBafAw6jbjPsbi06fLPEJw8TC3KSO81hPZ9R1E0fiobjhzm1o2rjBg7i7dX7ubBoy+ZOHYyqT0mcvbuI765eYPENqXkDpvD737/JzZs3UOHPhO49OAh69ctJW/UOM7e/YbdG1eS3a2QwfPWcuebB0x+awqubPkHfN7E9CLtRf+8GAN/7xiQPV9bckuS3C6aee24vF7s3mZ43V4SXUJeQQsruJ/kISkp6QkrSdIlTY1PTk6u8UucQOJUhMY1a9YMgRonrmp1qTLVNMknMtR0mdhVnWSylwneZrMpe12SJnFqHimjWomyPChLdImyNOiV5UtvjSvLdmK9SVmVQMSKEzmhMlV5yp6aQlw2pX7V4hM9ngVJV8uoeVVXjVddqU90FjnSNjWf6pd8apvVuNBwqJVkNorV9Rh2qw2r2YLFZMZkEGvLoLhqHovRrKRJHrPsbQkJmY3KfpfJqEeF7H8Z9FoFyl6Y7IdVQ8lj0Cl5JU6sJ8mrlhW/alHptPGKFSWuGifpYlmFQtIkj2p1qeXiYqMVi0ziBfHauNotrnifLEMFl9aMGcW425TiyO5OWtd8Pl6/lpu3rzN03GzeWbuLe9/eZsSIMaR0Hc7JO19z+8YVEtrmkdN/Er//859Zt30nHfuO4tLX37BmwwpyR47n9N1HbNmwjowuRbw+dyW3vnnExLfewZn9YlL6eyelF/lejJW/NQZ0GUXYmrUiyeMmxevAk5iEIyHlmcSlkom4KmRpTyZylVBSUlIUMpJ4lXRUVyUvcZs3b64glIzU9OCyoleRI3GqLJEtslTCUuXKBK+SjUpWKqGqstQysl8mhJWUkEiy7HeJVSj7X9WEJvtiatuEHIQwVBJRXZEdWqcQxtPkIVbS0+Sl5nuWqxKT6koeqV/kSJyqS2hZWb4TqOmSptYrxKVaSSohqa7NYlWIS8JGOVwhp/YMRoWsJE78al6VaIR8VH+oK8QmYUlXSUzCQcJ7TGQqcYUSk0peKgGFEpfIUIlKyEsISU1XyUwtJ8SlkpaS93nEFaucdCpX9oQSOgxg7HvrWHfgLFuPnuXi/fts3XOALqVjmbpqN3d++JqhIyaS2nUEx+894uqtL0nuWETn/hP44U//zKrte+nYdyRffPMdyzdtpPfISZz48lvWrN+Mr0sZg+au4dqj3zBu2lyc2X9rD+PFZPW3JqsX6S/GiDoGZKnQmtSSRLeTZgpxJSoWl1sOHjjsNZO2EIBAtTZkcheyEFclB5XAVFcto+aReJVsVBJSZUoe1QILzadaWmqaWpcQhypfCEWF6CR+mejFrxKYqpO4chhDSCsluZkClbwUt3qPTS0XKlclCJGtEonUIfGqZSSukIdKIE+Tl5omJPN0WigpiV/qEGJSZUuc1CWuyBFXre9pWbIfJcSl7FGFWFtCSEJcYm2pJKVYXUJWyn5Y0DKTdIFKWEIioYQVJKcgQankpaZLGZXIVL9KWGoeCavEpRKRGifxIjM0/e8hLlWORvecU4WxctQ7QyyuUpytqqgcPY9Vu8/y2f7TzFy4gh5lI3C1HEiPkR8xdf4SuucPJbHNcEbMWc2k2UtxZhXi6zmEWZ9uod/Y90jJ6cubH62javTb+AteZ8ycVQwY+Tbu1sW0HzCdaQs30bNqPNYWL4hLnXReuC8I6D87BjT+AmzJrZSlwmS3DafXi82bjMflqVkqFFIRqJO/+GVil0k9lECElNQ8qquSi+pKvORTLSlVrqSrcaocleTU/OJKPqlTILKkvMSpOql6qQQmYVWOopPUk5hUQ15CYgKxwhQLLKQNUk7kqrJVElNJUSUvlUCEVIRQVHJRXZVUVNJSw1IuFCJP6pByAsknxCV51DhVpsSr8sSVvKoe4kqc5FGWDIXA9IYaslJJS7WqakgqxPpSyUyIRiUfq0WO0QctLNWispgNT8SpxCRLiyr5qJaSEJPIElfihJhUq0nNI3Emo05ZmhRZal5JV/PWEFT1QQ01XshNSXseccXLBnuGnE4qw+gvxd6inGZtK0nvWEFymzzsGUUYMoZjajOYpPaFeNILMab0w9m+P86WFZjTizCl5ZPcth/eVpXYM0pwt6zC2aoMfYteuNuU4WkhBxoKMGSXYmtVgk1kvtjferHH92IM/JeNAYW4lKVCFwpxyb6K5zFxqRO36qoEpBKIxIcSi/hDSSs0TcqoaVJO/EJWkkcgVpgap7qqPDWPlHuauNQ4lUhVglHd0HQ5iq7ua8nyoPibN0tRyEssLrU+lQylrAqpVwhRCEaFSiQquQhhqCSjEptKVCrBqOFQV8qrZKvKDiUitR4po5KSEJNKYCpZiaWlxqlLhWJhCRGp+1oqYYW6ki5Lhnp5x0qOsxtNweVEOUFYvfQnZKT67bbg/pdKZMH4IMmJX82rWk3iqlBJSMIqCQlBCdSyUj40XS2j5hdXJSopJ3klrJw+1DzncIYu0BtDhpxMkgMaFZj8VRh8JWhT8zD6uisEE50+THnZWB/ohi0lH3NKObH+ArSBCiwZJbhalKNPK0afVqQQlxCgvCulz8zDnFmMOUPeNSlVXkbVyFH09FLlJeb/7K/MF+VfWCovxkBwDPxHiUuIRSZ0meBlsg8lIEkTqGnqcp8aL66QgLhqmpRXiUviRKaappKWuCoJqeXVsDrpS1glLNVV0xTCk0Md1YQlrkCIS5YNlb2vEKtOyos8Fc8iLpWcVLJSCUQlH4lXCUrSVKgEJCQkkHjRU6CWVf1qGXHVcippiaseUxeiUklN/CpU4grd23qatNS9LrG+lEMZ6l6XyaCQ0JMEZUCIS8hFDm6oFtfuCPUAACAASURBVJmQjhCIGlYJRcISr0IlIUkXApKwmiYyg3J1SlooOUm+UMIKTZPyKnHFPY+49IHuGDPyMArRyIuNvip08qJmRhWGjF5oAvk09b9BbGYpxqyuOPz52NNK0bQoIL5FFbbsIoxp3TG2kBc4izCl98aYUUp8ZgWajDzi0/KJSStH4y9H4ysm1l+B1l9VfWz5xcT7YuJ9MQb+K8bAv4e4VOIRQpJJXFzVL5O8SjBqPtWVPKF+CatEJ/FCUOJKnJCEKufvJS4pI/qoZVXCUl2JlzoVuYlJTywVqntdYm2JX/SQ/FJWCET8oVDJS5WtkotKYOIKmajkE0pcah6ViFSyE1fNL64qU60jNF2VF0pc4ldJSiVC1VWIzmxRrKinlwiFvNRlQrG4xK+SmxovhGWzym0bQQtIJTA1HEpOKkGJKySjkePr1ScJVWISVyUulYjEVfOJfJXQVOtKTVfzq4SlupJf0tSwVqep/VShKa07msxSYrL6YWvbh4IBYxky9k1enzCFyjHT6TtyHgMnzWDAhKnkFE/Dnj6ErB4LWLTvAkV938SW2YMmrfqQ0a6AjA7FuLoMxN+6N819PTDKtUzZVSR3rqJ9+xxsciAjUI7FV4opvT9xvteR98c0gQLiMgswZ/ekbX5/Ct6Yhi27DG1GLpq0fKIzizFkFKNpUYEcJonPLqdRZgWxvgpMaeWY/P3QZ1QqMhq1KsHYdhD93niTPlUD0WdX0aJwDFVjZ9Op8HVmfvoZ776/nJYdKugzbBLt8iuwBbpiy8rF0rIjWd3zOXbmKjNnLCQlozPOrC7YsrrjTO9Fsw4D6DV0MhMmzGTM5DmMmDKf0VPnMX3KLIZNm8XYie+Q3aacV9sPZseeo3wwayG6rL606TSY/IGTWbtlP32LR+NJ74kuuwhdan+syQOJbVFCTMt89OllxPorMab1w+rrQ9NALua0KqL95Vh9xRhTK9H6KojNKCA+s4xYXyWajFJMmT0xZeYSk11JVFYF+ox8LIFuSly0vKSaUVg7Ai9eS/ivII7/3TKs6RVYUnzYvXY8zhS8Tg92lx6Luxk2bwcczVpiT8nEmtISW3IO1uQemFM6YkptQXxqe4zJHXF6O2JN7IgutRMaX2csKZ1xJHfB3KwH5mbdMTfrhjklB3PzTphSO2BKbY+1eRsszdsofkNqRwQSL3G25q2wp7TCmtIWc/MOyH2KxpT2mFPaKicgTSltMTRvj7jmlDZYm7VWYEtpgz2lDUaRq8S3wZbcFnuzDlibdcKc0gVLSifszdrXCnOzdtQGe1JLPG4/poS2aJI7YkxuhSPRjy0xE31ye+KTOhKf2EGBNrEd2oTW6LwtMXizMCRkoU1qTXxiV+K9vYhP7IQ2sQX6hEyMnjYYEtpgSGpZA1Oz1op8idMnZhOf6EOb4MeYEMDibYHZm41JZCe0RpvQBo23NVpvNnpPC/TuTLSeTOI9LYnztEbvDqBzZxDvySJOiWuJxpOlxOlcLdA6W6N1ZaF1B9C6fUHX2RKtsw3xntZovNloPdkY3C3QuzLRuVsEZXlbEu9tp0DjaY3OnY3emYHR6cfo9BHtyaKxtwWNEwI0TUgjJtFPnDeTWHcrYqVOZ3oNdC4/Bk8GOpcPjSMNjS0VjbV5DXSOdPQhiLenUhtiHOnPI65uxGeUEN2iLyk9hrF213Ee/Phbvvz1H7j74+/57vvf8v1vvuEPf/6Wbbv20LFrFeOmzOf2jzfZuHkP7y9Zy6B5m7hy/T5ffv0bzn7/j5y9eIOysuHK3Ybdh8/hwBf3uHTlOsXDphOXVoghrQhLoAKDr5y4tHx0mbloMnpgadGND1Zt48T1r+hQMhadvwdWuSMxKx9jIFe5CUGWHmUijhNS9BdhyZTbEorQ+nIxZ+ejyeiFo9tILtx8wPYdezG1qaR4zGxOXv+KHYdOsuvYWTZs2cmilZu5eOsBY959n159JrJm/2X2Xf2Gc1/e5I//9BfuP3jEqUs3OHj5Gvsu32DD3tO8tWAjG0+f59Gj77ly+x5nbzzg/I2vuHX1OpcfPuQPf/4nCiqGYS0fr5y4PLh7D33fXszNO79h1qJVXLz2JZNGzMDfughDdh6GtBIcKWK95hKXLW0tIs5XjCm1HGNKHtqW+VjTioiTk5/Ne2P3l2NIK0SXmYc+Iw9LhtxRmIs5vQsWfy5RvlKi/RUYxSpO74bJn0uc3CLygrj+y/aS/ncTVG31q8TlSLDjdTXH6/Lg9BhxJqbjSOmBzdcDq787Fl9vLOlFmNNLMPvyMPm7oWuRi82fhyctD6cvD42/F3GZvTH5euNMzcWaFoQlPVdZUTH5emH098Tg74nZ1x2zrxsmZVshGGfy9VDirOndsKV1w5LeDXN6D0z+nlj8vbD6e2IXfXy9MfvysfjysPhysab3xpbeC3t6LxySFuiOxd8dm687tvSeWNN6YknviSm9FxZfL+zPgcipDc707njSumGWG1AySrAEeuHydcbu74petk38+Rj9eZh8eZh9uUpdUr/NJ+iOKdAZY7rMY+WYfIVYAt2x+bvjSCvAnp6HXdpXDZu/JwqUsj0xBHphDPTG6s/D5svDmpaPJa0As8BXgDWQiz3QG4e/Jw5/DxyBXtgkfyBPibMHZJ7ohSVD4npjC/QK5vPL/JCP3S/le2APdMMeED1ysfsLMPvlOXVFfSYOfy/sgV5BWYHeylwhc4jF31uBKlvymGvuQc3HJGF5jr5emNPyMKcXYM3Mq4ElIxezX8r0rtYxV2mTtEtgU5CHLRCE2d+b2tGrduIypgaJKyazL9aWFfQoH0rV4JF0L+9Pp6IR5BSMo7D/m+z4/JxCam26T2DtvgucfnCff/zDnzlz5QpTVu7gm4ePWL9xK3PW7+bmrTv07z8aU+tKRs3byN3vfuK7n37HB4tW4+08UNnvSu5Qia9rJUmdy0nLHUhSpyKsgRw6FA2m77DJpLbKpVnHErI6l5OSU0qga1/SO5aS2rGMzM59SW1Xij07H2OrQpK7VRDo3Z8W3fuQmt0dZ8+RnLt5j71795EzeDqLdxzl87MXuXbzBl8+esDtB7e4cvsupy5fZuP+Q5S98TbjZ61n4ebj/O6ff8eVm1dZt34TazZuZtFna/hk4wbenb+cwVM/ZNuZM/zw3bfcvHufa199y92Hv+G7e3e599OP/PC7H6gcNJLZp6/x9Xf3+PWjOxy9/wO/+en3fHHnFt//7g/cvnSXFRv20XXwRNI6V+BvU0hy91JSe5fRrGUuBl8eSS0rycjpS3KPKrI7lWHNysPZpoxAp36kdaoktWcVaTmlpLXuTSCnlBZdSknIysPUogJzyyrSO/clO6ec1HZlmDNLXxDX/w8OgQhxWZv7cCQ4SHClkuhJwJ1gxpXsw56ah0FODmdUYgz0qYb45Xq0YmJbBJdrbanFmNKLic0oJjoreA2YLb0Eq0zOvkLMviKMfnnvUy5ALkGTIT8aQ26SUa+hqokL5pcyAuVAllxN5SvEIIe8fHK/pvzQqsLo74PBV4XJ3weLrxKrxGUUKBdHm/zFCGTv3Cj3RVbfgqKTd1BrgUm5v1Pu8Py3sPiKlUNlcf4+RAf6Bn8AywqRP5fYjAqUfXhf8DJxveirjJ8iDEr7CzC36I4poxRjoB/GjAoMGfmYhBzSqzCll2GUfNWQdgbbWqS0QRsoR1u9JWPw9cEU6I8p0A+zPBe5v1Opt0gpo5ZVdJD49AL0aQXo0p9EMK4QXXoxunRxJT2/2i1S4o2+3hj98mNEzi4UoheDIT0frS8fnT8PQyAXQyBPIW258UYuVNf4C9GIUZDeB11aX3RpFejSgucTjOnBuzXF+Ij3lz4BOd+glUutW8jdrLJNVPIYylkH9QLssifKPS1H6y+pnbjMad3QBIoR4nK378fUucvYtOsgxQOH06lkBJ2KR9OzahLbjlxkza5jdC+dy9p955i5Yj0//foPjJoyhZb9RvHNt98ybvLb9Bw+hYvXb9Gn/yhS8oaxaNdJjpw8zqEzZzl68iTtK8Zjyi7j48372XPyNEt2HmHXtW9Yv/cogS6lvDV/A4ePXaCobAizl23l8OcXWLfvGMevfcOGnYdZtG4nR0/fZt+B03QuH0KXEVNZfugIe859wfEr95k0ZhKu3NFc+PIBe/ftImfgmyzZvp8T58/xww9f84d/+iP/+Oc/8u0PP3Hyi4t8tncPXUsH4+9UwdIdB/jjX37D7Tu3OXHyEsfOXODw2ZPsPXmCQWPfoXP5aNYfOc65k2fYe+BzTly4wa273/Pw1l0u3rnHuUsXya8YyJr7P/HtD19zeOd6lu4/xpmz51m8YRVffv2Az5Z/xsARb1M28V1W7N7Htv2HWXv0AvsuXWfarA9J7VjFu/M2sPf4JXZfvseWnXtpV9CfvNGzOXXpPut3H2P7xRvsPXOJVWs3s+3QKY59cYMxU98npXMFg9/5lF0nLnH0zCU27T1O68IhyEAUq0t1n7DAXiwV/rewxmy+IHE5E50kutNI8ibiSjDjSEjDktILrRyK8vVD7+uHLauSpA5VNO/Un8SWrxObVa5c+yYy5OsGMZllNMkqQxMowx6oIKXTAJLa98Pol687FBPvDy5pxwWqiPdXovFXKhdey+31coGxxleKxi8EUKVAJmqdv6L6HskKZQ9dG6jC0qISb9v+WLL7KlsG8f4+xKdXKRcKG5RLmosVvWVPPF6RVanIlivV5Ib/uEAlcRmVxMs2QaAiGK52db4KdOkVKK7qTy9Hl16OQSGXUuICfYjP6oe7bTm+TqWkdKxEly17/PJeazk65V5IuZW/nPj0UrT+Cuxt+pParRyzfNkgvQ9an/Sd9EsJ+rT+6H19qu/MDN6bqZP7JZULHsqxZvfD264f5swy3G0GYcvuj7PVABxZlaR1GURyx4EYAhVKXyl9FgieNzBmVGLwSz1VCulJH0s4mLc6XtICldWoUA7OyeE5Oa/g6jCUFr2HYs+Sa9YKkNuSdIFKNIFy5RCdObuE5LYleNsU4W5TjL1lCa52Vco8rZUVrkBfjP4BGP39lR8YylkIuRdU+imjgvhA5TOhkWcjz8P/GBqpN+Mxaisr8Rp/We3EZU3vHhwEmX1J6jyI+St38P3v/8Sl+w85d/crLt+/xeU7d7j76D7rtq6loGgk8xYuZ8fBffzxj39m98mTTN98kHvffs+It96hx9iZnLp6m6rBEykc+x7Hrt9lwbLFvL9kBddv32TI5Lm421ay+cQFHnz7gDfnLWbhgYv87p//Svmwt5i36Rj37n/DgAEjWL3nDA/ufs2C1Z+x9cgFvvvxN6zetJPVmw/x4MEjhk+dSe6Ed5k6/wPe/nAuV77+kdsXz5JSNpHzt++yZ+8O0nNfZ9qCZRw5eYzTZz7nwtUrnDlzicNHznH0zDkWrFpB58I+TF+wkjt/+D2/+/33bN22l41bj/LZ9kPs/fwoNx88ZPLMZXSqmMi6Q8c5uPsw6zfsYvves9y68xsuHb/Iys17WbxkJd3z+jH9wCXu3LvD9vVreHf1TjZ8tpOpH37ElTs3mDd7Lj2LBlM+cQZHb1zk+IUTTPt0I6dvPuD4yWN0yB/G1PeWMfW9+cz/bA9//OP3vPXeR1RMW8CPv/0Hdh44wqy1W7j9w2+5cO4Ccxav5fT122zZu5dh0+dw7PYDdhz5nI8//Zh7333LB6s3ofXJhbMFivsEackS4gvi+m9BXJa0cmypfpyJLhLcYnEl4k6wYE9Ixda8h3IRr+yderKHUDFiNu8vXcvCNTsYN2UN9k59ycgbSbvcMVh9cuiqgOgWecov8bROA5g0bxNDpi/GkinLaHICWS4aLkafIaeHhaBkIpWb8wsxya/01PzgYazMPmgy+iiTpEmWrMV6SZd7NeWXeB86V07mrXnr6FQ1CV2LEmXfVpbFRb5Rlv4zSoKXCmf2JT6jL3H+SuLSRIdcZUlP3j/VZgYRHxALUH75B11TplzgHLzKzih1i19OS6eJ5SPLpIUYW1Qon2F6c+4yFq/ezNwlm2lZPIbmXQbRvnQCVuVEdLFCNDEp+QrB5g3/kHnrduPLGYQpXYhe7gjthV50Siuv/qSRWJVBC00sILE0xULLG/YBw6fNJ6vXAMbP3UD+0FkMmfop3avGsGTzfqbOW48jW74CUKKQpHJITk5uZ5ZjTMsPkoN8+kb6yFeASZ5DupB4hfIjQ7ZO5AJxvXzGR8hSsQbL6Td1FYcvfUW7/CGYAwXEpxcq5BEXKCXeV0h20SjemrOU18fPov+42XQqGcnrb86nVcGw4NJgRiGmQCkWkSc/gJTPERVXf+Lp+XfOKve7Kpa9WPf/Fk/f1xkalnFQ6/e4bGmPiSs5ZzALVu3g6u2vmLN4NZM+Wsakj9cx+aMNTP5gBZPnLKV80PtMnLmO7Ucv86d/+As7Pz/CpNXbuPPwEcPffJee49/nxNU7DBk7k+mLN3Lv+x/ZdugI6w4eU/xL12ymVe/BbD1zmVOnD9GiRxFFby3hn/4K/Ua/zZyNx7l/9x4D+g5l1b7znD52kp5llUz/ZA3Xb15nyOjx9Bn7Ltdv32L8jNmUv/Uem7dvYOX6lVz89kce3b9MZtVkLty8zYH9u+gyeDIbjpxlx6FDzJk3hzWbt7F69VamTf+YVRu3c+D0GcbPWsDOk1e49O33/OGPP3DgyGn2Hb3G3s8vcPriRe4+/I7Js1fSvmISnx09zunjZzl89BxHTt/i9r3fcuvCTY6cv8npE+fJySnDVTKRa9dvs27FanLHfsjJC/c48eUDHv7xe25eu8rS9fsZ/cFKPr9+jmVrlxDIGc7GXae4fOkUuRUTmPPJWlZu2sLaPSf5x3+4x/zFKyiZtoAfvv+eKe9Mp9PAEZy4cYfVy1eT1bMfa/YeZc+hg8xduYEr3/7IoZMn2LptI+euXOKTDVsUa0vI69+Q1gvi+m9BWrKU9TzisqZ2xZDRWzn0073qPfafu8n+M0f5dNVaZszcSKe+41iz5wzL1h2iXc/XSelaTkbRQLJ69adH6SjGf7iKQVPnkZZTQYueA2iTN0TZRkhrX44pUIC9ZRktc4fSPn8obXMH06LHIOUTR4bMEvQZZThbVtIydxgdi0fh69wPS6CQ5t1HsHDDQe5891v6T5iNMTOXeJ8QUj6WzN7YfF2xpfXGlJaHLk2+Y1aBKaucQK8htMwbQNvCwbToNQRHi3zMvp6k5fSjfckY/N0H4swqoHX+cNJz+mPPyKNNwQjSO/fD27KY7F5v4JUDXGm9SMoZyOzVezl/6z5rN2zk42XryB0yhYlzlrPz2BXyB0wguU0hrfLeUOS2LhpDwbB3mb/sM9p1G0hWzhu07P0GrQsGkNmrD+7sYmXfzt+1Hx1KRpHde7BS1tUiD1+Xfhy+8pDR0+bSsXAQ6w9dYtiMpXy69XOKBo9h8/5DLFq3nW7lY8juPRRrVgmWrFJ83YbQsWQ0WV2qsLSqoFXxODK6D6RdwRAyuvXDnpmv/F8n5QygTdEwfF0H4MoqwZFZjL/rYNoWjeTtRVu5dv8R3Yv6k92jP/4ebyiXRftyR5LeYxA9X5/M+r2nmfLRamZ8upGc0mEsWL+PcbMXk9Q6j7Sccpp3rlAsNlmm1cu38jKDxCU/coy+50Aufw48B88rGyh4PnGJmRunWFwDmbdsC4eOn6FN90IsGV2Vb3XJd6YS2lTy4erDzFq0m7a9J7Fo6yF+/8MPbNqxmYJx03j4zUPenfsRg95byrkbd5k++1O2Hz3H9S9vs3znQRbtOMiJG/e4cP4iJQPfZOPJy5w4cZD0zoX0mriUv/y/0H/MdGZtOs7X9+8EievQFU4dPU7XojKmLFjL1etXGDhyDCUTZ/LFl9eZ/tHHbD19gytnjzJh4mh237zHva8u0KJ8Il/cuMXB/bsomTiXdZ9fZNeJs1y8eZOHv/8DP/7291y5+TUHT51n17FTjJu5lKrRH7By30l++kluxF/P/BXbWbBqM1t2beHWgztMmLWYLoOmse3cKc6ePsnh4yc5duE6D777A9/f/4bjV29w4eRp+lWNIC6nP5ev3mT1ijUkFYxi5LRPmLtpB1cf3WbVqlX0GTaLPlMWcODqaRYs+4TUtuP4bNtZLp3/nEkzVvPlw9+yeO16xs9ewh9+e5UFi5dTOv0Tfvz2GyZPfYuOg8Zy+Oodli5eTVqPISzffZq9B4/y7oI1nL/3PTv2H+Hj+QuYM28h5W9MxJhZRGLn12lfNRlL9lN7Xi8srv8W5PU84rKkdSOuRS7xaQPoPehj9ly8zso966gcOpRW7QfxxtT3uP/dT9y8+YAJk2cx8p332HDkBPNXbOCtdz5iysI1jHh3HhUj32L5lgMsWbuTnftPMX3mx/i7VNJn3BxWbj/E0vW72HHoDO9+vApLehdMGb2wZhVSMHgay7ccZuGanfQdMY3m7YoZOHURR85e56tvfmTohFm4svPpWPUW5WPn0X/cBwwcPYvifpPwZsglCMVo0/PJzB3G/PV7WfTZDlZs2cOn63bTo2wo3YqHMHvhelZsPsQna3bRs2wYn6zbzYRZn5LdrZzP9p9h0nuL6VExnIXr99K69+vKlwOSug9hzoYDHL90jbfenkrH3oW0Kx/OjiNn+Or737J0/VZyKwez7egF5q3bxaxlWxkwYRZr1m6lpHQkcz/ezOL1+1iyeTuffraF7uVv0C63L+8tXs+KbYdYsf0wmw6eJatrMa+Pe4fzd78jM6eClPblFI36kOziCfR6YwY5FcPZfOgYB09fYO22AyzfeoScyjF06TeBD1fvYcWWg4yb+h4tCoay8fMrzF22meWbdrNs4x66VQwjK28Qb368ltU7DvPx6h3k9xlHl8LhzFm8hdXbj7D/zFW+fvgNRSXlLFy9lXHvrcTesoh3l+/m3aWbSetcTPGoWXSoGEfXvhNJbFPIhDkrWLT5MN0qRzF21kKGvj0Pb+sizPKhVfnOnnxbMLOM+Ez1awzBrxaoXy+ocauJTsjumaj+2kFN/pCwWJa1Wlx6Xy7aQDHxmeV4O1QxY8EaLt68y5sz5tB35ESqhr1Ln6FTGTN1Bmev3GLN5t28894yrt67zvpNG7h85S5Ldx/jqx8fcPr0GeXX3I27d1m6ZBVHL1xj9rxPcbfqibVFN0bNXsSpi9cYNH4Wy/adYPPevaS0zydvxEfcf/R7qoa/zZufbuHMF1co6jOKTzYeZvfOfXQpKGfs+8vYd+ws5YNGkj9qGnvPXWD0O3NYvPVzzp4+zcr169l16Sanrpwhq2gU+09fYdWmHbQuHcWoWYtYsmE75y9f4/ilKxw5f5kzV++xautm3nx/Jp2KBmPx5zH3s7388Tffsn7LLhbtPsuR8ze4deMS9x/c4833FlHx1nwOX77ItetXuX7nS46d/4Kvvv+J7779nkv3vuKnX//ElLffxdCmkIt37rBk/Qba9plA6ZCxzFi0musP7vLRvAUUVY3l9Ylz2Xz0KO/MW0SztmNYvPYgBw/uY/TE+Zy4+CUbDhzmk637+fLBZd6dPY/iCbM4d/UmgydMp33f0Ww99gWzP1qBt+tg3l9/hOWb9lIy9C0WbTrA3uMXWL1hK8vWbSOnoB+6jFzeeGcJy/ecIbFDObrMArQtitApv9bk0yMv3qX6v70PzGnlWGWpMCm4VJggH4JMDC4Vmpr3JCazhFjf63g7jGH8Rxs4cOESR899wTtvL6Vy6AyuP/iGYyePU1Y2ggXLNnPvp++ZNX8RQ8Z+wKqDZ1i4ahsTZy/h/K27LF25i637z3Li+En6TJ7OzpOX2bBxDxNmfcCNR79h68YDNEvLIc7fGVeHCqYv2sTl+49YsGwtfQePZMDISaza+Tnrtu/hwtXrjJ02h+RWuQya/AlzVx5g4YZDLFi1mzdnLCEhMxeLcnAgl859xnD82m32HPmcT5et5tSFL5k642MWLNnA2S++ZPVne7h55zs+mL+SjfuOsvf4RYaMmcw3P/zE8bOXmPnBp+w6cpbm7eTyhGKMLcvJHTaDjQdPc+qLKyzfsIXiIeNYsm0vDx5+y5tTZtB74Ai++ctf2LP/Im9M/JQhHy7h6hdXGDZ0Mrv2n2Xv8TN8uGQTn184z7T3P+T9hWs4df4c785fxMr9p7j33Y90Ly5nzorPOHL0MM4s+bq2HFaQ5T3ZsyqmXdEwth46xf4TF/lk1RbO337ApPcXMP3jlXzx5SNWrN/GsNGj6Vg8ha/+4U+s3r6Pye98zKkvrrFk/U4mzFzI6Zt32LznIGcu32LJ2h0sWLmNg6evM/PjNXy29zQPvr5PbtlATnxxjVVbdil6bDt+me1HTmDxdVG+Jm6QL637C7Fk5lI1fhZr9p2icuR0+ox/n5JR7+Ft10e5YSm4xyUfMq3+UGxtH/xV4zPka+e1QM3zDFeWDWslrhhZ55S14owiLFkFFL4xhR1HL3L4zBccPHmOg6cucuDUWT6/cIqDZ04z5q0P2bj7GBv3bSGztJxBw5Ywef4mjj+4zt69J9i09RjHLl5m6tTZDJk4l/ZFIzAG8tAF8vHnDqXPxI9oXzKcwtHTKRj5Dp5WRWR3H8qo6SvJ7v4GXcrH0W/ihzTv+gYlA96k3+CJ+NoV075sPGVjPiSraz+yer1OxYS5ZOcPoUuf8Qx7ZyFvTJ1P2fC3GfLmByS0q6Bq0sf0GjqDduXj+GTjIfYcvchnm3fTf+Rker8+lQ9XHmDH0WOs2rWJnLJhWDKLmPXZPh7c+paWHQtJLJnKxkPnuXnxGlcv3mb41I/o8+5Sth48ztb9xzh48iIfLV7Lp6s3s3zzXj6/fIevvv8Hhk4arywvHLv3gI+372LO8p3sPnaY42euce3OI+XQhJD/2GnzqJJfOaWTsLUcQN6gt+g3/G3adOxD/1Hv8cb7S8ibMJ3BUz6gd9Fwsnr2oc/kBQTyx5HauR/9YBOmmwAAIABJREFURs2ka9V49K2r6Dh4Jr3emE5ix3LalgznjWnzGTfrU4ZN/RBfx3z0WQWs2H2SVduP4MzqgSazkNgWsjcg+xXyzaoXxPV/ex+YUsswp/qxJznxulIR4vIm23AkpWNLzVe+vB2fUYG5tRwuGErp4Lc5cOgMV85fpnf5XI5eu8mKzatJTi5gwSf7OHPjIpnd8snOfZsVh86yfMlWJr23lt0nT9Bv4EzGfbSRz098ztCF8zh7+wEz3nyP1JyuHLp+m4NrD5GV3JWmWV0xtC4jf+Q7rN1zhO0HDzF3wQKWrFnP8S9usOPYSa5/+4iVO/bRoaA/AyfM4f1l23h/+VZmL93I6OmLcGflow/0RJfRg859R3Hg3BU+WLCQPv2HsOfQeWbMWcLmnYc5f/keC5d8xpYdh5n2zkdMfG8hV+7/wJZd+9m77wD3H3zDnoPHmb9sg3J0XZdRjjmrnGYd+9K9cgxzF63l2p0HTJsxm7dXb+HKrbvk5BSR1Xckt/75z8wcv5jkwFB6z1vG1csXGTZ8Epv2HOODFavJ7/Mu248c5sOFi1knh9EO7SanoJghH6zi7ld3ySst4cNNBzi2bwPGDHmNpwxNRj/i/H2Vixg6Fg1n877jfLRsC4WD3mT/uUvMXPAp/YZOYPWGfYreC5d+Qo/C+Tz8028ZNeVdWnXow96jJ9h9+DyfrNjO5Tu3WLRiNas3bmPOQiHuY6zeeYw2uYMYN3sV1+7dpWPZGI5fvs7GbevxtCxj78kr7D98WHkVQZb+dIG+GPxy0jGXsjFTWLP/GKVvTMUsH32VCyoyyon3BQ+pyIETo7y6U3Pq8n/FHPKcPa44n5xAqVRO0oi55mlTTo+q8QwcO5NBEz7g9UmLGTBpAf0mzqbXgDdJafsGhYM/pH3pQAyt87A1G0JC56GUTp1JTuE4WvYcTcno2WTmvB7cPAyUEO8vVzZW5aSILlChHCHVZ8uRyRL0mXJipi+WzAHKCSA5XiqDKi5DvpJcjCM9V3nvKy7Qj/iMfkpnGTNL0YiZGpDN4epPtmeUKRuVpkz5VLu8n1GqmLLNe49hwP/H3nuGVZmm+54fZuaaOXPmnLO7zw7VFRQJSg6iosDKCxATiOS4iIssiqAYAHMOmHPAhBgRFQNiAkEERYIKYs5VZZVdVd29Z8+H3+z7XVpdvbvb6+zdZXXYfniutVyy3rTe97mf+77/YeFuMkvXMyq+ABfJMjSp6EOLyZ6+hulLt6EPn4KjIYeQiSuYtWAL7voofjF6MoVlFSxfvYtpc9ZjiJmIT8os4vLnYSpYRMaM1Urz0js4HU1ELtlzNzFnxU6GR5lw808kb9lm4mYsJjJvEfnzljO+eCU5pWvIKV1J6tTFyncd9XEKnFdWXwMMZhw1Kbh4pyhwYGt/M5/6S48gCTdVIs5yHQSlo83AXp2Iu/BetHH01ZqxMmZh65eOrSEVW73cYMnYG5JwMJiwVUUpjdjx83YQmzMPB1WU0ry1FWUUbaoCL/5rn7Q/HL9w/1Jw9NFYAtdAX4YO8mKItxsew7S4+EZiq4/C2hDNiMyZTFu3n5lrdnK28Rotbe2EJK2guuk6565dJTlzBWu31HGxow1VSAKG6PnsPH+VHbuOULqiguONTSTnLmLy6n2cbbxE6qLlnG7q5GRVLXM2raHzi+fUHTqHZnA4Vn7xOI1IJa5wMWU7D3O58w4HT18kZ/pCJi/cSNmuKlrvPWfDvlP4R+aRXLCc4rK9FK/cTfGqneSVbGRQgKDypD8bR5B5BqevdLF87XaSMqW81szslVtYt/sITTfvse3AcdbtPEhcRr7SB7vx+DV3P/+a7Ekz6LjzkLY7j8maugh7AaRpkxk6Lp/cuduYt24fm/Ydo6P3CXMWr6R4YyW37r9g7oKNhEyeT88//3/MLtzAYE0ucev2cr3jNnlTFrD/VBNluw4Slb6EoxcaWbF5N2W7T3O1rY0Vm7Zx4FIbL54/IDohgZLNR2i93oKbZFxCKRDhBW26glwclTiNytNNLNtWpcyxJ67cYOHG7YyfsYSFqyq41HqTKx3txCZt4PlvvuLwqXMsXrWfxo7blG09QvHSXTTd7mFv1QlWbdtFVtEsynZUcqb1Fou2VlJ5roWeF88YkzKZmstXaOlsZdqKPbT2PuNMfT0O6ghFr7a/1hK4HA1xjJ+/kj21DSRMmEf6tDVE5CzAxSgUCaFDSHnQIpKuUBze28L3HYHLVi1W8wJtFCSKoH6EdCdEu1CchFSoEXx/BP11o+mvHafg+IVL4WAMUoiL9j55CkbfLiAKewmCEqT0JgQGaqM3IWgfa51g/c1Yy/9rRFbKzACjYPgTsVILpj8bO102NroMhOdgo0+jrz5b4Zk4KVyCVD415NLHkK1kB4KeEeUIO2M6/bQSwNKwEqirII8E0vuGnCzbtzOaGeAnMNokbDWJ2GgTFSRUf5UZF00y7jpR8RCobhaCshmoFxJeFH8/vABbQzIe+kg8/CQzieEzo0hVxeHol4KDnxk7CZZ6gQ0nYe+XgochFidtiKLyYeefiN3wZPqoxFU3UuGIiLTWAL0QqaOUV9mmvVYam3KdsrDR5ODgm8EAtZlP9en8Qjm/VFzUKbhoEpTSgpUuU+FlSEB3UsUo52ulz1Tkt6xkRWSQ62e5tnL+Nvok+mnMCvTYRWfCSSPNbFkppeKoNuPwBnb8YfJ/HyvGn26bTsLjUutwHzaQIZ5qhg0eipePuyVw+UTSXx+lBC+/5GmUbq5i/ZGLbNh/isI5yxkcWEjm7JVsrjpJ7rRycqdtY/aG7XiOjGdw0Azyy3YyacZ84sYvoWT1dkbEFRMxZQXz12zCkFTIpJkb2bu7iuV7t9D16jFH953E2ysWK10q7iPMpE1fw9Id1SzddoTUKYtxkyxKG4sxpoCSVfsZlzYHF10SLgK/NybhPjwJV/9YBuqScRSjW43MJya0kQXMXnOQ9EkLGRGVw+Rl24meMJux6VOZvbGSxduPMHPNbvyjM3EKiGeOnOeBM/iOSWDemj2sKD+GNlQg3XEIR2jQ6ByyZ29jbeV5Nh04y/ItBwiJz2ZU2nTWl59k2foj+GfOYF3VBVJjZ+GpSUc/ZTHLNlYSnjKDKYt3Yi5ejl9UCTNW7iBt8gKCMuazbEsFG3bt52RjG4/u3iIkMo4xeQu5/uhrQlKmK8RvoR3IXCjzpW94PgVLy0kuWolfbCEla3aSOnUe2cVrmLfmKKvKj1MwbymR8at48u1LDtdeYP3OcyzZUkFgTAH+sdOYvWEXa8qrmb1yJ+Ok72eezJLth1i++yhLdh5mfeURdOE5ZEyfx44j1SzYfIIVO6ooXbFOaZP010uPSrh0GQwancGCHQdZfaCG8KzZ7D9zjSmS/fonKNdOEgMp49mJ67riOv6+7vN3BC7pcUm5yEbY8IZY7PWRuAVE4u4XiocxDuF2uGiTFIa1THwu6vFogosZmzodr1HxhJgXMiw4GQdjCB4jsgjKmoN3RC4eY3IZYZ6KLi4PffR4wjJnEp5RSkT6TCIzZhGVXYqvEHAj84guWKEI/fZXCHAROBqiMCZOI7t0JdoQyR5i6CsoFmMCYxInklWyDEN0Di7GKBx0kTjoY7AXrpLwTDRxeBqjSS5YTN6cjYxJKkYbPgln0VpUiJPxqE0FxE5ZimZcNsNGpGKevgpDfIGiuuHkG4SzbxD9RuYTkDgdD2Mkg0cmEpxYyIjUWSQWLMVnrGSTiYomo3doAQGmYoaMziBj+nLM08pwDkhS1C5EoupTVRyuowUYMYewzFLCZWSXEpZZTGRmMVHp04lIKmTg6PEMHJVHXukmhkdPZIBfPHYBiYwxl1A0fxOe8m9dIm7BExieNI2QpHwMIcInScDeEI93aDpR+fPxT8jHNSAGe30EpqlLGJ4kpVoT7oEppE1fyaiEibjrwnHXiipHIvYqsZJ/Xzfeh+3+VNfW3icZF7WegT5isKhWMi5PL2fchYDsI8RSC6/IyS+DYSGFGGOK0YYWMihA1B+ycQ1MQBudiXdQAV6jJjB0nDzTsTgYJuIVmo9mdCyD/XMZFpyNs38+zmPy0ISYcR2RRV7JVsrW7WFj1UHav3xK6cyVeHonIARfUYMZNiaTgNhC1OG5uPoLNytB4YI5ihNF0ATc/bOwV/hVArdOwl4mUVGLUKXgoBIYvYUL5ewn3LOJDA3MwMMvhSEhebiOSMfekKggBA1xU9BETFT2YWdIYHBIDr5heUgGMTQoC99x43E0iNuFhVRsr09i8KgsDFGFCtpQFWRWqi3OfiYMYyfiF56Pw6hEdBH5GNQpuKsTsA3JQBWSzcAAM15BuXiOTsU1IIuhIel4jkzEL2Uu08t2sXLbAS7f6KGutg7tyAgcRmaw5lgLK3bU4GZIwEmB6ov4eCoO/mkMCsnBY1SmInU3bFwKg8YkMHRMFsbIYgyRhXiOiCYkZgUPvv2c6UtWMSJiKqqxyYr6h6MhA6+QdPwji9CHTsLTP0XZh6AqtRHj8Q3NQBOWiZshFXd/WQBkohs3Bd+gHIYFp+KsTWKAzJ+adAaoMxibtYA1R86RWrIc//gilm87SnTGdEUBRIjM/XUCgRekpzzflszr/dzn7whcdroIbDXhOA+PI27KAg41tlHd1EbNlWucbLzBqctdnGns5HRTC2eablC25SSL1h6i6vx5Ys0FnLh6m9W79zFQN5LApCIOXrpK5oyF+CcUse7oadYeOMaSzTuVntmFpuucuXCF5rZurnXeIWtSMVPmr6Ku/S7jsorwCY5DGxpHQFQiRUvWcK65FfPESURkFzKpbBul63ZwtLaWGz3dbNt/kPmr1zNv1Ubmr91O4dx1DA6IZlRCPqs2V3Dx6k3WbzvA4pU7OF53nZLF21GPEXLjOBJK57D34gWisvJJnzybCze6WLVvP5OWbKBowSqSMwswmko53thFTvFyUosWca6hjYrqBs5evsGs5duJz52nkIXTp5ZxsLaFqfNWc+ziVXYfu4xnQDhOwn3wS6afJhxt/HQONHTS0NLNqfo2Tja0K+P0pWs0Xu3gbO0lRicVEZQ6lUstXcxatIzxsxax8Wgtc1ZvorXrJvqgeFz8o4kvLqPm+m3OXb3O7kPVLFi/hx1VZ1m1YzfVFy5zov4KYxPNjE4wU3e9i321Dew6fp6dNZe4fOcx1fVX2HP0JEvWV2Acl4+D+kPgej8P3U8btB1V0uOylArfZlxK4BqmxdVHVCty6a/Opr9k9L5mHFRmRQdT5MVsfaUSEo2NNhJrWcjoUulvkNJ0PHaaHGzUqbjrgnFXSaleyMCT6GfIsEyaxkzy5+5h2/6LbKu5wNQ1W9COTrFIlenMSMXESRuvKEsIB0wmPTsp8YtKxFs+kjbljSuF+Q1JWbhRcUgW6aARZQ0LIbi/vGpSLUFOk2ohCuulNZCskGpFBURKV9Y+sdjohKskXoOWIaTlt8i1AVqLrZLCh9JK6c6Eg064SsKNEnmkBESJRHhE1n7ROPia8Bom8kzj+MQQoywgBYktC0k7yd40CdjqYrDRRmM0lbB4x0l2VjeybncNMWmFCsKynz4Zr6giRpmm4mow4aQQluVaS9UmSek72+mSUI5NH0F/fYTCmbLXCPk3hf6GKPzGLeZw00XiJszAXQjcelH7kEpZlgK4siiQmJXrZVEMEWUSUR0xIdt2UgnvLFm5Ls4qs3JtZd/SohCZK6n0SOAaEjwe/6RJDApOxtk/BV1oDoP84xSZJqkQWa6jVOreqKG8t4XvOwKXjTaWfpooHIwxjEyZzKJtB1i+dQ9lW7azess+1mw5xpbdJxVdv2u3HzN38QHWbD5Gy607RJkKWX+0lptPnpKcNYOxmbNpvf+YGQtW4jU6m4JlO1hXeYqiOcupvXCZ7p67XG9r58nT55w6dY5YUybjErI42nCDSUvWc6ath/M3uqlvv037/Ud88c03NF1vY3v1Gbafucy59h5efPmSO3dvc+7iBU6cPsuxMxc4ca6ZLRWnFBDHobMtPHj5mqdfvKb7ziPa2m7x8NHn3Oh6xPJ1lSQVzKf87EW6Pn9ExfHjnG9s4db9Hi60XOVkQ5fSaD5cVYNqbK4C4d1V08C26os8fPSS2z1PePr8JY3Xu9i8rwZT3izyZ5ZR33qT3ZWH6H5wh8stt8gpmqKAJ9KmLCcofQJjUotpe/IFL5+/4sGjz7n94CW3Hr7kzqOXvHj5FT03b5NTupp5mw7w8MULbvV0cfFaG/e//oYLLa28/uYVuypPMG9DBVNWlXOytY3KI4c4UVPD2k272b7nIDsrKrly/QaXr7WRXTiNeWUb6Hr0gpkr1lNxqIqK46e48+orapubqDh8iIVlW9AKU18tq9mfdpL9sL8f/3o7a804+KhxHeKmZFzDhgxTelyePnpcVZbGu51GsqskXDQmnNWSccfioo7HUS8IMSlFx9PfmG6R6zGIMLNMTFmKXJSL3h83b2nIp9NXP4F+xhSFnyNkWa+gPPwip6CNnoz76HRF285GHYe1cJG0FlKywv+RoKVkU0KcFW5PjEJwtVVJxUQQbRLMLAFNjsdBIwFNpJUkI5CVvahYWNwlbGWyFaKywkWUc0jAIzAVRynlK7qmghyU4CWtAYulkhIohVckklPfBy8JFkKMtShBCDlaNAwd1FmK+LgELidfM0PVCQwdGUlfXRT9RC1CeugK1DtB4Z7ZGuKwMcTjMdyELjQb/+gCvIOzcTS+/bs3Vk/aOOxUooMoAUX2K31sk/JdJXBp5FylDx395nrkWJRGjHE4G0rxiY3GY2QUroZshW6gyERpsxWEsGADLO2Lt0RfkceyDAHgOasEWJFMH0MKLmrL9bYypiqtA9FmHCDBWpWpfKe/IRIbaREZpQ8uhHDRi30j96Vk7/L9RAVz8P6e53cELiu1sLSTsdcn4hmYrIAITl64Sn3TNeqb29lTdY6JxfM5XFvLoTPnCY2fzNwV5Vy52cGIcfnoTPmcudpOSsZ8QjKX0Xb/BVNKl+MxPA+/xNmEZsxh8dp93Ln3ki+/eM2Xr77m2fMvudf7OaVz1hJtnsaEeZvRxeQxa+MBlmw9QubU+WwRdYiHT5i/fA1BSRMYZZ7KnpP1fPX6a27evEnz1WvUN16j/konR09fYWxMPiGm6SzdeJL1Ow/Q3H6b+w+fsrN8L2vWbGbbjoMsW7ObwrmbqW7qUuC+1zpucr2th0NHDlE6ZyHjwos4frmFC/VXGDoynWBTPlETZrKtppGLF5tparrOoyePqD5dx6rtlcxeXc7hs42Kskbvw/v86jcv+OKLr+i81ULz9V5uPviCrUcOE5RUQPvDhzSer+fkqTrONbRytesurV13leB69nQtRcv2Unm+i5evv6HyQAVtPXc5f+MWLTdv8dXXX3Ds+DmlBj9l+Vaau+/T3NzEzbbr3Oy4w6MnX/Dg8ed8/uo7Hr/4Jas3V3DyUhuNHXfJnDyPZ48f03azm55nz7j16B7tt7rYXH4E78Bc7BVk048/kb6/m/nDsf6haytweBeNHk+VOABr8R4yjKG+HgzyNSjAnn6GWGx1EbgYIxiTOIG5a3awdm8V2TMW4uqfgrO/GcdAM301Qo0RxKlMoEn4hBYxY+0R8hfOwkv0DjUWQW5rP+nXRmNvlLKeCVtfyXoysdFkYycgIj8T/fxEw0/g35by3AAFuZagwKoTC8soWLqVguWbCUovxkka/zJpKzJLlt9YFC7efl+2IVmOBC4BKKmjpxM9cR4JhYsUJG1wWhGbj14kfcZy3P3FR1DQiJIJvQ1clpKWou6hkF4twcvSo0lR1D0EMGGrE61EUb3IVYKztV8UA7XjyStax766ejzGSuAWqSkJSCKjJiLhkehMRQTnLSJz+jJCU6Ypqhui0/epPos+CggjXpljrSWLE5FjfSpOejHvtYiGS+CTY7FXy3WXclw0diKVpRmPregpGkxY+U7HJjAQa10IAzSikyj6g5JFZWNnjMbaGIu1MU6xnBLKS39pI7wh//Y1CsArDmt9Ap/4J+Eqajr6BD7zT8JRK732GOzfBC5R45BzsjPGMsAvnQGGdAUHIVlyP+nNKftMtaAK1Zay4R+6J//0z94RuEQPSqK0qCq4BiQwcd5aWu88ovLYCU5fbKTh+k0ml2zgWE0TJ08cwz90BkVr99F94woGU5LiseU5fCZuxjyi82fQ8uAJWUUbyCveR+eTz6k8XkfFkQvcvtVOY/M17vV2Uld7npdPnrBqx3YFhvvq1WumF0zjQO0lGkUuKmUCBXP3caX7DrG5E/EcHc/UdTu49+UzHnR1sffgcbbvPsWmrUdpbOvk7u17jA4yMXvdPtp6nvLs6295+uqX9D5+xr1HT3j45CmPnj3m8pXLlCxezc6jdXzx9VccOlxJ6YJFNHb1sHnPARJMaRw+08Cps1Us3nGOqz332VZ1il01jTS1XqGx7TbX26/T3FSvaBWmT13GwJDxeIaOJ2HqEh7c72XD3gMKIdInJJ9zXV3sPlLJGPMcLnU9Yd+hC1SfaebC1S66H7/k+u1eTtY1sGbdDmav2M7ek618+eI16zbv5vLt+2RMnsLi7Xt4/vQxUSGZ+IbnkLhkMy2PntJ9o4ULNdXMXlbG4XN1HL9cT0NHG4tXrGPK7Eo6Hn5FW1cTmUWr+fXr55w8V8fu6pMcqT2ryF5VHD2FR6CJ/oq6/odg8Kc/ZH/eayhlNSVw+Q5mmJcOb69hDBrqimRcbsPisFdZdOP8zSUcvnSVhtZ29h85z5Y99aiiStl6sJada3fioIumnzaWYZqxuGnH4TumkLwl+8iZW4qbLgYntZl+fhk4GgPxVMfiLKaw/qKOLtY6UnILZqiPlBwTGWCMxsEoau6SYcTjEJCGtSGdUYkzOXbqPJdudFJ5rpnxJYsZFBhPX3Uy1v6TsFZl4KZOxEGCp96k9LAkCMl7yQKFyJo8fRXr91Wx78RFilbtImHSEtrb2lgydzFDRyYqZS1RKv8sIAdHUZrXpjBMFO1FjV4boyi9S6nNQxWtqF0IaMpJHc8APwkkibiLh6AmGWfdWDwNCUxZWUnvy2f4jkvDRY5NOEw6EzZ6OS8TE+etZ82OY1RfaKO0bCuegVE4+EXTTx+rAKQE7Wsj1+oH1Y0/jsh7W9aUMv7bIdmOZIWii/hWZskCkrD8jQT2t9/7/XvRUtaT/5fsWzLp375/W0K1HNvb1sHbbf12/8p3leN/+ze/v58fnt+f/P5dkk8/DFxuAQlMWbKJC21dRKdmMmP+Upo7blMybxvHjjdy4ugR/MZNp3DtHm61XsbfFKes1tx1k3HRpJI3eyHtjx+TnLuAkeHF7K6p40hdI3uq67nde5uG1k56em9ypu4yz559wdx1Wxk/dwVfvPyWWcWLGWmayIWOe2zcWMnU+RW03O4hLmcyacVrOdf7OU++/ZaXjx5S33qD85dv0Xi1h54nj3n4ryXIoOAkIrJLqDp9mc+//WcuX++i+vR5Rb5p74Eqeu4+puZUHcs37qGh4y6//O5bOrvaOH7uAmevdbDv+FkuN16htr6VuvPVJBYso733LuWHj1O0cAO37nRy7fZ92u/c5U7vXSoPn2BE/CRs/WV1mUz+ip3cv/+Aa3cfcez8dXzDCrj64C5bd25jTHIJ9e0POHKsgZu9L7h28x53n33Ozbv36bx9h5Onz5FcMJesWVt49OQrCkqXUVZZw9H6Bi7ff8Gvf/Urzp1oYVVlLRPW76bt4WN6brTQ1nCBI6drae65w/ErrVzqusn4yTMx5W3kxqOvudrZSEbRBn799Utqz9dzuLaBkxeauNlzj72HTirSN2Lu+SffYD94GD9s689zPZ01Zly1Bgb5DsZ7qB4fL28GD3NVMi53nzgG6MxKpmCatZH67oes3LCVkWNi8dbFkz5nD91Pv+bhtW4mzNtEzLRVbNhygEUbK5g4Zy95i8sZXzyT+AlLWLDhCAt2nWbL8TPk5M9ncEAqI82TWLv9OKuOXGDhrgMsnrUNZ0EVGyOw84siIKaQ5VuPs+1YPamlW4idsJSqU3UUzl2IV+A4hhhG4aQOxsaQRl9DHvb6LIYYU/AYkYL78GRcJFvwsyi+SNCSvszwlJlkzFjGjCXbiJq8lKiJy+jq6uREVTWbj11k0YZKhgRE4BZWwPKtVew5eYPFy7ZijM5n7qaDLN16mK3V9cxeshXd2DR8QsxMW7SZ7ScbmbqyAk1gKoPHZLBg/Q72Vtez50IH3U/uMdo0keKle8gsKsMnRGgw20iespyY8QvImlpG8dJtxOSUMjJxEnO3VjM6czYD/IVwLBSdD2X5f9f8oHuHcoak31ISsGRcSeTP30xr7wsOnrrA6fpr1LfdIH/GcqpPNFBTXYUhbAqT1uykt/M6yZPGs+1QHaULq/AxJnLkzBmu3e5kXGQmKv9U5m/ezcGzV9h5tJ4nX3xO97MvePHVF3Q/eMFX3/wLpet2MSp9Kl+8+g1TipbiOjyBqLz5JCYXsnLLQZpv3CLeXERU9nLmbqul5ko7N292snlfBeu37WfNxr1caLnC44cPGRdupuJMC9dvP1GClnx335HTbN9zlANV59hdUcPps1c51djFlTtP6Oy5w9qN62nuvMX59rscPHORz79+zavv/pkTx/fhOzKR880tlB+sZu6Kbdzu7mTphh3MKlvPqXOXOF7bQHByEZL6DwnN4eCFFq60tpNZPI/WrofklG7l1otnbN66keCEArruPOTwkTM0XLnBrd4HvHj1FfefPKGt/QYHDxzAGJONMXU2bT3PyCtdybR1e6lpbuFi71O++/Ybrl68wdq9x5m+YRedj59yt/M6NxovUlN3ltY7dzjW1E7D7ftMmjEX78A8yqubaGprJrtkC//y+jW9vU/pvPuCe4++5PmzL9lXeYohflL//vAw/bsepr/QIP0245LAJRmX9LiWyKaLAAAgAElEQVQkcAmPy9UnGmttPJ/okvGKnsKeM1d49sVrausaSM6cQvLMLdx++gUPWtvJKF7OwspavvnN/0v1xRYFrr6nrokd2w9SUnaAW88ec+j8NWpaH3Khvp6I3FKONrVzpamHxftrufntd9TsqsXD28THfmG4hGazfOcprt+6z/yV64jJKSEhfwkXO+7y5Ff/wqX2bjInzcBTPw5RbvjEJxV9VDEN15/Tevc7Wh/8igtdX5JZutki7iuZi9A+dKk46mJxUkXST5/A6KyFdN25Q8u1G2w808rzr75j4tQSClZV8Oz1r1m8/iAzZy8hZepiOl685mJbD3tONNLefZeSxetZtKGCi81X2LD3MI3dD5k5fy0Lthzg7osXbN1znPMd93j49C5xWdM41nCVTdt3E5Q0hX0nr7F26yFc/QU0EoWLKgIndbTSItl+qpXogmVKFqcoyAtv9S/0/vmLPK53BS5JEy2By4SLfxKZxeu41PmMQ2db2VvdxKrte8ksnEXN2WZOnDiGLqKQSRt28fzRM+4/f86tB58zrXQzK9ft4+vf/IZnX75gV8VRRoeaWb3nANXnr7LveD17Kvczf9VaGpqbOX6mnt6HT5m0ZA3RBTP5/NWvWLRkA4OCEpi9uYLX3/2GJ199Qc2ZMwSHCaIpGd+IKWyrqefLX7/i7tcvufv8lzz8/Buef/cNTx49ZdTYNIYFmZkyewMHTtQo2VL3o2dcvt7N3sNnKdtQSWrObIKTp7Box2EuXL3BgmWr2Hb4FLvPtFB+7DwHjp/k4fNX1Bw7hG6siWs3uzl0so45ZZv4/PMX3P/8l9x79R0vXv2S6hPnCEnIx2t0GmU7q7nz6Dlzl27BfXg4IVGpeI9I5v5XX7Fy1SrSJi7iuZhz9j7m2edfc6v3Ec+++IqXX33F0+dPefLkIcnTFjEiZyHtvc8omL0aj1HRDB0+nMVbK/jy5XOCR0biGxBKwqQSmjpu8+BOLzVVVRw6dpyOu73sOFRL/fU7HD9ZS37JZjbtraXxymWyp67kV1+94tDhGrbsPczBo6dob+vk4MEafIeb3jPz/c+TffxFPoTvecISOLygCj2GDcRrkEbx4xJUoctgX1xVEYpZ6adGcTpPwTsohSVlG7jd00tzx01GZ89RHAbq9h/ESR/MvIoabtzqRTUmjIDYiew5c5GdGw9SsuIgtVdrSJlQSOnaIzS1nGX62m0KiXjhjNW4B8VytL2N+t2XGDgohk9HxtBvVBolq/Zy5+59joquaXYhw4LN+MXnYJ4+j4Ybt6isqsEvJBlrVTR24sSuT2ZcbD5B0bmEJhYwOq6AISMtKD8puVkbzArUvr8qAQe1iU+1KQRmLefq7R7mLF2J9l9l1h4/fc6yZctInrGI+0+ec7qpnZkz5xA/aQYNPXeYNmc+UWmFXL7ayJ7DJzl6roWWG5fYffAgV3rusLV8D1d67nPsXA1DVYHMWLqZx0/vEZM+hSP1DZRv38hYUz6HalrYuqUSp4BMRSxA+mPCkbT1icXFT3p2UTiIxJpe/K0+yKv9u57NdwYulaBFTIrsvoM+kSGjszBGTGSQXzyaoGxyixewdu8R2ntfcOjIcXxCC5i9v4ZH976kruEaE6ct4kTdNXoef83RMxfYvHsfXXefsqeqjqvd9+m8+4y6xg527apg6Zp1bC/fxdmLLdRdOE/+woVUNV/nxcsvefr0OUt2VzJn4zYOHjlA+ZG9lK1fS+GMeYxJKmRo2AQ2HLvE4fM1JBTmK7qGc8vKOXejg957T/AfLd4wccxYsouT9RfYXXWEqnMXabp5X3E/3nqoTlEEcfaLIWfees613CJ1/DSFaO09LofsmWWU/KsbsvSeNm7aRunaXdx98ZrrvU/ZfeIcG7eUs27XQdbuOsi28r2sXbMFc24JK7YeVUAY+yoqCQjNJXPeOmbOX8GGitP0vvqGmXOXMXP5AW7fe8CZ+haudNxR9NLaex/T8/gFHXd66Xlwj5Rp8xmdNZvO7qcsXb+XdQdPs/PgYS519PKrV6+oqj7Hxl1VLNu6nytdd7nc0snNOw9o733Ewxcvab35jOa2h9y6dYs5S8vZXlHHtdarrNxyiF/+8isqj51m9e6D7DpczY2ODmrOXMA/TOgBsR9Wge85qPy7Htb/4LGIcoaTSqsEriGDNAwd7MXgoa4WHpcqHDtjJJ8Zk/GMnMro5GkERyaypXyPoj0YnLeY+q47NJw4zeCgBOZW1HC1sxdtSAz+cZPYdeYyuzYfobjsEKebT5MycRpTyw5y/tIpCso2c7HjPuVrDjAmu4BLD3s4X17HMN8k/ikgkk8MJgKi85g9dwFXrjWx+8R5RiRNRxcznjHJE6iqa6LiyCn8Qiz9G1tjBoboImrOCw3nDmebH3D4fDcpRWuUjEsAD9b6dEVFx0EriLhU+hizGJ69mpaeh5QuXYs2ewGPHn/OwoVLGRJsYuKU6Zy5cpPu7jsULV/H1Xu9lK1bT+GsMq62t7Fq+37Kj17gxNmjTJ0zl+ziUkJjTBxvukZd8yXCYrNZvbuGh08eEZVezIH6q1RXH8ZcOJ/TFzvYtGkvTsOzlEywv9BLNOm4B2QQEDsFj4B4+ov7s1HED94nkOFvcJH47sAl9t2WwCXkP/HLEVtqUWrQhkylbM9Jzt28y5nmbgpnLMBlRC5jpi9i6ZLd6EclkzZxAeev9bJ4w368h8fgH25m/oa95M9fzbz1u5mxeLNie990rVsBQVy90Utj+0MaW9tZuKOS1YdPUzBlJus2llPV0snxa7cUkd3zN7oU9fWq2kuYJs9kUGgOc3ecZNGWbfiEJ5CUv4Kaxh4a7z5m76EahhoTGBpZwKlrj2m6dZfzbTfZcfQ0+fPWMDwuD1e/WOUG6qeNJmbKMnYcvURkylScNPH4JYpafRcNnfc4dL6ZMeFmzHPXMnPNfibM28jeuitcaOmmru0ulzruKhy0cxeuMXPxDrYcvqioNQeFiCV5CmurG7je1cu56w9Zf+gU6hEm0ot3sn3/UZZtO8CWw2dJzF9ARGYJk+ato/pSKycbrxKcMZmAlGmcv3yDeat2sbeuhVNN1zlS38GFuiaOX7rBgdONLN50iJKVOwmIzmHGiu3sPHaBdeWVTJ69k9nLDnGuoUnRF5u5bD/HTpynprGbpvYuaq7e5HTnPc6136b+WgdHTl0koWCJskr8KSbWD/t4vxPLvw1c4sclGZfrEBWu3qE46qWklkxw/hp2nbnB+eabNHfcZeOBMwyOms7Kiiruddxl2vpDTFx/hOq6ZgaPisY3tJBlFbUsX7WD8bPLKT92mrHpM8ibv5UDVacYmzmTZburuXr5Nsdburj/7Wtqd9Xh7ptEn8B43MXPa+U+jp6u5/SVVko3HCCuaCPlJ69xormbqottpOfPYqAhSiHtWxmzsVUn4BuYwJCARIaNTMNDQb6Jeo30t0RXVWTqMnES8IRajC+z0aeu4NjF60woXs7gxDnUt/QypXQZ5nnlHD3TyImGDg5VnSBz9hJ6Xr3iVnc3F1tvcfjkBSIyZpBWvJoT9c0cudjM3rOXCU+cSMasNTQLgOrCTc62v1B0Rv0jJzN7cxXXbz+iuuEmZ5vvsLBsB07+AuYwKTqEgryLmbSKQxdvMyZxCvaqMCQpsP1Qlv/3LZLfFbjsxfNGuBYifaRLxUmIhcL3UCXhpMlh0JgUfKOS8BqRhKc6BCt9Bh+NiGPI0HjE6ttVG4/XqBTFF8ZJl6iYvzkHxOPgH4Xz8CScjck4GhPx9DPhGhjNQL8EPALM+AQmWRTKAzNw943EwyecPmIZronBUxuuSIu4qeIYpA/ByTgCG2MCQ8bOQBOcg2OACQ//XPyjSxieNAlvYzjOYrQ2PJWAxKkERufhpo3CQRWpEIHFKlw4EuLoaqVPxiMoi4DICXj5iTmaaPxlMTg4G22IqGGEMtjPxGd+wqWQhmo8ffURuOljcB4ei8cIE17+UQw1xuCsT2JgUAEuw9Nw14Vir8/FY1wWI4LD8B2VikugpZRhrR+Pl0wC4dmKDYmtWlxI43EfmcZwUz7DTVm4jjbhODKDsIR8ho5Mw9aYjJMxBittKh7e4+ivHouzNgx3Yzyeo2TFaaKfmNdpwnE1hGGvHY97QCH6MBMuI5LxGjOZkVF52GrjcNeH0V8fi22AoEejcNeG4KIKxd4g2ociY/V+J9UP23//1/f3A9fg7wOXh3c4zhrh5STjNDKXkUkzSJk4jwjzdAaOSOcz43i8ghLJz5iOLrEE96ipjE0oxMU/Die/PNSx0/CLSMAnaAKBsSU4jMhhWGgSwdGFipPviMwiZs7bwMyyrXQ+uM+GxeXYa5Lp52/CWR9PQFg+KZMWMDa3BJexE3EPKiIsfa7S6xKfrsGigKOJVNCKvzBkKyANV10kA9TxiuKNnSpe4RApXC4h7IrzrtaMqzpB0fEUDVPHEVMIFY+u0WlYjSwg2DQL1ZhM3COKSZy4kNjxizAGhhI/eS5tD5+zZcsOksZPZ1TkeOz18fQfnsrw+CKiCpYwWqw9/FKw90tlnHkK8bkrUEeXMDYuCxdDBgNHTSQ8exFBqSUExuWjC83AUTHZTMBaZ7H6yFtUzpp9tfiOTsRVoO2iuqEVgvX7vxf+ZvbxrsDlqIpRXDEVsqEmWYHNCqte+AR2qnT6GxLwHB2j6FQJ9r+PLoOPAlMZ6JNCP+9kRXBRJKNkIrYR229VksI5sNYLZyADEXMV8psQ5WwUG2hx0BRmfAbW+mxsjEm4qJJwUZv5e006H+lyFe0sW20OdqokXEXPTx+GrV8Srn55eOrM2AvfQ52paB5Kg9bZOwxbjYlP/YRjEI+Trwk7b3EhtViKCz9ENMGstJnY+qczcFQSg/TRuEl2qUlXPpcbzkU9Fid9FCJt9Zl/vPKgW2uEHJiAnTqWvrpohaQpnAcHTZxibtdXn6XU3O1FZV2fi7U+Hlef4ThrxS5GuBkpWOlysTdEMcBgUtBFoscoQ8Rw7XTiTizoqwSsjWlKY1dgsn0Uy2vhwozHWdQANBH0V0cxQC38i2Ss/cz0M8q1FMRYDFbq8VipxivbsjYmY6XJVFxSP9Mk4Sh8FkMq/Qzp9FNLMI3BUQigxhxs9VkfHqa/gclEApdoFXp4eypahV6DvL5Xh/fwjsJRFW3R6hQir1rklCJw1ojIczJWfnn010QxeMhYRVu0r1+6RdRZ7l9dDtbaZBwMwQp5ub8qAytDJvbGMEUyzMmQzeR1+5TS+NFLHYoqeUhoDvaGFKw0sTipTXio4xmojcJOHamU+Gw1ecozKq7BotjhporCRR2n3J8fGTMRgWnhFilOwGrpwQvZWMZbYq3It8nzGo+L4gAslvXZuKsj8BBBBTkfVbJyvH1EvNtHdFTj8VCPJWrSfI41dlEwbTGOvkE4qWKRZ7yvXrRMk+mnFafhBBzVSfTxER5ZjKIsYa0x46wNx06diq0mAxtZ3It8lCZKef4UwWzRDtUm0k+fyMi0mQSnzcDdKLYssRYrk79gsr/FwVoIxSblN3NSJ+KolmsoROM/E6jkXYHL1Uf4EXH0M1puYlfvTFy9pREah60xFu/wQormbcSUPRPHgExlsv7UMAEnXTJ99Gn0E1FXnWiPmbDSiqBukjJB26kTsVPnKJImCv9CkWvJVNL9AcZxfOyXT1jKQvKnTWasaRJOmlQ+kmxOX4ijfjQ2umw+8Qu3yIroctEmFCk2HREpxXiqJCVPxEpvws3XhItvKn2Hp/NJQAp2mgxcRHBXbeYzEa7VJ+OkDsNRNBn9cwmftIQZCxczNiwVR59E7HylZp5Fv4A8guMnkWSehYs+DiuDaK2JTEoqTirJ1kxYGSzch7+ZFc3fwIT94bewrODfEpAlcA0a6IvXD0qFLt4x721xIsoVI9NKyZizgZSSDYgTryzGRD/TThOLiyaF4MFBFLppmeGkIsfVj6iBowgaMopxnqMZOzgIne84XLXh9NPJYk+e13Tchmb8qMcsADQR6vUJKyC2cA26mOnK9uXz/+z3kKUaJRwzkb+Kx1mdgKMkMdo3C+y/xMDlIjpmOnFAlh82CRfvRFy8YxU5ERt9BBETl9Jw4wHLNlQoIpC2mnjFRsNJHaUwx62F3GcUFrpFrNdWsgJNJPaqGBwkauuicTQIMzuF/sLw1pmxlTJb0FQqjjXQfe8eWw+eZKA2BmvdeD7TZ+GiGaOg3az9QnHUROGoTSU8fxE7q88zvngVg41S1ozDTh+LhyoeT1W8Inli45+glC5dfeVYUumjlYxEVn1jleDlNiqXJfvqaO7oJD2zCGdfybjSsDFkMCS6hIMnm1i76bhCUPwQuD6UNP6aJjTJuARV6PbGj2uI529Lhc7vM3AJ6dgoxOB47LRSPbAMe0MCtupoBvuOZbKbD7VW1tz+x5/R+fHPaLD6GWdt/wdtH39M/Ue2rO7vSI7nMCK8AgkYFMFgr0TsRVfxR1xYvQ1cErxkyLblsw+BS4jNScqCwUFjkcMSLcnP/NL4JCCZT4YLIvLPtGB/V8bl7CNiken000uvIwmf4anEpheTPHURIbklZMwSrtN9lm/YiTosm5CMUmKmriF10lwM4ZLSj8NrdDIJk+ZjnrqYsPQiBg+PIzBmAuZJC0ktnK144ziJT5QmFxtdDv0MyYTmltF9/y4t7bdof/iE4AixZRivcKKSxpcSlTKZhMJZmHJLUAelE2CaxNRFa4jKmIp/dD4RWSWMNU8nZeIiUjOL8Y/MIHbSfDInzSEgJA0H/2QMidNILFpIUuFsghLG4xWcw7J9tVzv7CAjsxBnX9FDS6WfLoWwgjU8+vwbUjLmYucTjo2/KLx/yLh+zMnjw7be32JAMq63flyDPVUMGTjY4oA8RIWzd/SPGgR++DuKVJyitq7IHwmAIgEbtchByWI2HjffaLSqEUT7qMl192K2ozerHIay0d6FtQ5ObLPz5EAfH7b1MVLgGoTGZxyf+EXy89E/fiYkAUuAHzLevreoRry/3+WH1+ov971ITaXhokrEzTcRN590HNTZ2OrNWPnHKlD+P8uxvytwOfpI0zATG78JuI/Iomjeeo6du0JF7RUW7jxO8bpKmjt7WblhG5E5JZTtOsbaqsvUNbWzde9hhgWEKui20y23KT8squPljEvJZ8uhWk6ev8K2A0fILl6g+OzYqDKx1uVi5Wdm0aaj9NxtZfGqjTz85lsWLlzOEN90YifN5lJrN8dqznPozFUFcj95zkoSJy/k+IUrTJ5fRu7CjRxvaGNPzWX21V3nsmgqHjxF+YkmWtpusWbTLgaNzWDG2j3sOFZL5dlGyg+cIDJrDqsqz9LR1UF21mRcVAmK9poIcZpKN/Dy1WuGj0pXiIR9hXehF4jxh1Lhn+Wm/RFX2/8Zjl8Cl4jsugxxY/BAFV6DfosqdPF5f6VCMRaUyf+3ckNvZJlEUkiXgo2mgP6aFBz1or8n5cN0nFS5DPLOxGtYEkNUJjx0AuKwSC1ZGxL5zM/ELwJ+3FX+H8qufph9/We4R/7YOYqUlJUhGyv/RPoZpTqWjJN3Fg6+mfSXStxfYsbloI6mnzqDfroJBCaXcq61g5MX6zFPWci4rFlkz9tAU0c3qzdtIzgln6JF65m39Sgd3Q94/vIloyJMVF26RtfzrynbuJ3UnElEZ0/hSu8LrlzvYvay5YxNysBVH6vwG+z0WbiPm8jpS+1cungcU24+15+8pOVKC36GRDJLlvDgy284sL+KWQt30dZ+h50Hqpm2dCs37z9l8fotlGyrpOvxM1bvOMjkNXt58uqX1J5rIb5gBTd67tHe0c6wyGzGz1nKiq3lVNVfp6P7PtOXbGd15Vm6OjvIypqMk0ZQhCk4jDCzeH8dnbc60PlJmSJK6WeJw/KHwPWffTX613H+Uiq091bhMtiVQR4WB+S3cPj3GrjescAQi/qPjFMV3pW9PgZbQyyfGVP41CgitYlYG2PoMzySTwKjFFPaQd5xDBuSoFiifOz/13Hd/1gw+Gv63F6dgrNvFraB4XwU7M/Pg8fwTwFic5LOEC8zzn8uz753Zly6UKw1ErgmEjd5Jd1Pn7BpVzmD9RGKj05UwSKaOntZs7mcSfPXsu9UPcv3nKKhuY1vXr8iND6FvLmrONN6k8vX29m+dz/hWUUs3Xmclo5eai9LlrSUQf7xFoSKLoWkWevoffA5jx7c53D9ZTpefcd3X39HWnIO2cVl9H7xJfPnLiU8bjaXGto4cOwEpct2KIoTS9euY9rWPVzr6SGrcCYa8wy6X75i665j2Adkc6L5Oo/u3WZMTil7TpymsvooFbWN3Lzdy/yyXazZf84SuLKLlAakPFxOY7Iov9TJ5SsX8RGVZFWkYsnwIXB9mDz+WiagHwYuTw8fpVToMdhRUc54n6XC34rASmnvd4es5D/2y+YXw5P5zF+EXdNwFu8vQxR/P8aPvxs7gj7DwxiojmCot6D3EhS6Sn9NGoOGfqBp/FT3ntAkRIk/z93I3n5ubLcZzATnUai9BF2ZpiDHf6pj+Z39vCtwDdCNxlqXQV/dRMZmzeH6nZucOl9LfMYsRprmkDF/K42d91i3bQ/bj12goeshU5bv5GJDK7/65hURyRlETphFTukSjpyspb3nPklFC0koWsHildu50tnNnuO1GMOycNaacDImsLqqjvsPnlK+ZT+FK1awsOI0v379z+zYvoGM6avpfvWC2bOXEhq5kEsNHRw8cYJZy8rpvvOQ5WtWMWXrLq713CZtwnSGmovpfPmKdTtO0Ncvn0PNN3j+8Da5y3bQ8/w5W3ftYPXeam7f6mFR2S7W7T+vBK7M7KnYawRRmEa/gCTyVu7k/pMejMNTcFAyLuFkfMi4fudGesfq+sPf/XmD/L8NXIPcPXH3dMB5kM977XFZgpUg0n5/2GtSGDLUjLsqAUeFGmLGXpWHs08u7j7JDBwmCOaJ2GnHY2XIoq8hDRshGUtJUSo0H+63n+QaiPXLEE0Eu/oN5PV/+wdaP/6IiZ6DcDEE09coiOofv9/4v/Tbvitw9dFFKmAJG52ZwWNymbV6D1du3eNqz0N2Hr/IrHV7OXuthwXrd7JgUwVXe59Td6OX+vZ79Dz/mtDUCZSfuED9rfu03HnEgTMNJEws5dTVm7R136fl1n1mrtjO4MAkHPQJaOKmsK+5m/MnGykxppI3KISo0FSa7z7gxrVOps9cTsPTx4yfX8aosJlcPtPNzoPnyFy9izP3Hip9q5J1B7l06ymxBQtQx0+i9d6XLNlwGBtjFBsbmum6dZ+E/AXU9zyh6WYvZy5f50pbD6UrKinbc4aLN24TN34utmpxYjXTTx1PotiSfP01AUFJOPsEW/gZin+QTEhvfHcUXou8fw/jjc3A/9IP+uGB/kke6L+m38LBJxmHob64eLow0M0bT7eBuHva4yKByyfyDVgigwHqHIW8KyaMAqQQ80YHcRr+o0PIviLHJDYewpcyK6/yb/ncTpeiKEKIKsS/HeJMLCRh4Ys5agW4IX0v8XEyKw7Dbr4ZuIhxoUKCT8dBY8ZJLTJOwh2yGB0KOthOJ0oZacqrGD0qx6xJVty7hejcX5OKZGnijiy8I0e1ZHcWxKBigijmkW+cji29rkSF0PzWZFF6OpZh4ZvaKtqC4reVqZyrWJ7Yi9uwLs7iOCzQemVIkDUp6GoR0ZUhwDNb6Y1rEhVfL+kPWRsEZp6Em+qNLuwbNOPbvtvbV6Vf+I65RUwyRRDBWvFAS1KulbPK4uklZpRvt/OHX024eyfhMVQco6XCJs7J8fQ1RvJPgaH4eY/k/Kd9uPr3A4gYquejsYH09xPunih+/K4dy0/2XLwzcGnFL0Z+gFTsdakMGmHGPyqH0aYM9GFJ+Aal4Rc1Ht/gNHyCUjGEZyvaY6I/JqxxF10EAdHjCYybiDEyB11YFoMDEwiMyWZsfAaBkekMGyFOqHHYqGLo75eIV9QEikYbOOXsyP1//JS2j3/OTS9HeoeqqLAfxMLRQejG+KE2RhAdaCJ4TBqDRyYzIiITbWA26lE5qMOzcR6TiH1AHH7hefiNzcLNEIVXZDrBkdm4+yWgjp5EYMJExkSZGRGejndQLkPHZmCMycAjMAVbjci0mBHjtPCc2XS8fE3BzLW4qsJwEVSUOJPqkixwUHGHFW6bTn7IH3+IX85PdkN82Nff3LVWerHD1LgOcmWQuw+DPDzxGOSIq4js+r4JXJpsBqjzLIFLH6soRghXRyZtMYj8g0MJACIYINSSVIvckl4mPyEDWyDl/WVF/sfGm+fI8re/haDL5Pp94JD34qb7b8ZbwrFlv7JvIe1biMjK3ypOxgLnliAjLgfiZiwUl4Q3ZGXZh8kiaffW0PJN0LAYLFpMLuVvxN337RAnY0VWSpuLnS4DO0MMA4zhb66X+XuXYbFXETEFcUJ+G7jEUdhGb8ZZk4izoBj1iVgZ5Vql4KZ648TxjsD1rrnFQSu0HxETkIWzBK40nFVmpcynCEj8ke3KtXYbGsugofEIsfgT/2Q+9U9RgvxAHznveIw6P17+14/Y3ccFK/8wrPyjcdVG4qwWtY83rtQ/9bzxrsAl0FWZMMVJU1ZC4szZXxODnToUW1WYciM4iBy/Oh6RTnI0JOPsl4p8ZicKyIYUBogKg8aEo07cNC3s6/6qaBw14UrZzV4tTqgChJAbXOSX4vE0jiJhqIGZDoNY5eFIheun3PjkZ7z4n/+NLz757zz6+X+l6Rd9qbZ2YrnjMFI8tAR4qXDWDae/IQQbv3A+Hh7FZ8ZYnHzj8PY24TssAU+vSNxUEQrc1UrKF/p4XDRhOPqGYa1KwkoVi40qBDuNyC6lYa1KVxjz7iNSmLP1MOsq6nCX1YsogWgtMlFK8Po+WMlD8uMP4VJ8CFwfgvd/9B5QApe3GjcFnOHDYI9BSI/LbbAvLqpIRQFHXHPF2Zojo/cAACAASURBVFesbOz1UYpppPQ2BrxZlMnC7A8NyRpkgpaJWpyRbd9M2PL5DwODonkquqdvhgQXa70ZG4NYyqcp2dZbBQwJWt9nBgqiUBaK8YoYwgBDLDIsgcGCahMHYBlvj8NOn4CtPs6iuq4ggOXfFhV2+VyRhZLz1FlclC1OyrJPyR7l89+6A//b93biFi16iN8HrjhFpFgJDtrMN4HLYsBrpzghy3wgXKgkrAyiCJSOoyYRR61JEWjo45euKAiJruL35/zD83/zXrK4d80tyjkpZpoijC7zrGSpMixZ17u23deQyscBKfxTQDyf6KPoo4/HSpOBnU8+tqrxjNIN4/H/+DtKPFz5dEQCg7xT6GeURUC20uf6j96Xf9L33hW4BvjEKqm1gyaN/mozNiqBsEq6m2RRw1Al0N+Qir2flAmScfBPp9+bz/r5CC8iGRtBnWhScBCLZ42oV6QoQcJOK2l+KvLq5JeBvcLlSsDWN5Z+4qWjMeEyNFFRunAZlkDgwDgSXaOZ7BTO/n8wcuKzQXT2+QWv/uH/5PXf/Rc6//6f2NvXmUkuIwn1imGwdzQ2qjjlwRC78U/8E/l5QCz9vUJxDhzPZ7psrDRJOIj0jKCYRCFDn8oAQ5xCurM3SClAGPrSgIzH3ihOrfLgJWHrK7DeVEUqSgAclhtKJKXefvbjvn4IXB+C1p/ykP9uqXAYA90G4jZwAM6e3jj5RLyBNIsMWKYyaTsYQnHUReCkkRKXUD/+8BDyqZTqlNLg99JLb0uH8vlbOabff5X/62fIUIaNaILqzd9vR7I82aYSIEQ4VwKiEpwSsDWKao8En3Rl30rm9db9WNEqlNKhZDaJ2Oh/m+3Y6BOUf8vnb49XnuW3gdQSpOU4JcuUyT75TdYnWYcEYUswG2CIVgKMnVYEEyTjksAVZQma2qwfBE/JQt+USN/MC1b6TKwNaUhZT0QSrIxmPvHLVa6Bk2S1ynnI3PL7Qwlc75hfrPXy25lw1oooQ7xSxrTTZeIo8HUpxf6Bbb797P8ePYH/JyAVr6EhFDr6s8DGlwIXFeaBfuS6BVJu7UrnZ/8XKwY4EDjQhIePmZ+NlmwyEwf1X2DG5eBjQi6oqFMM0MiNko6NoiOYjgSDtyudP/j6fRby+6UzG52YvWVjoxeZqHSkNi03i4PonmmTcBk6E6dhs3H1mYSntxlXTRzWRpGespTmfj4qkJ+HhmAVHEeQNp6FbmOpsPWh2taOuW4GwjzDGSrESl0S1sZ0+mgT+YVfPPbxeQw0JmCtSeVTrWX/CkdEHa/cPNbGDOykHq1OwEYlLHrJdOQhsjwA9rJCVL9ZmUmqLyx7URZRNNEsmZZkYhLI3n4mN6+8l+EcmPU7n1trxM7A8veKA6oSONOUkof8++1QSi0/dSr+YX9/M1muo28KA4Z44+juiIfrUKXH5SY9LiVwRdJPG08/kULTpDJAF4n78FA8/SPwkJ6JOk5ZpPY3yD0twIgk5L0MW1Gf0WbioMtAwBYyTzgqfaZ0rFUWkWYrbdobq5F0+qiTFU8t8dXqo07BWhZ9+jSs1DJHiDanLGxloZv8plQvmY1Z0f4bYEhXnhV5JuSZsdPmYKuSeUP2mYyjBElNGrbqDGx1WVjLvKJPUxbEou9ppzxrqfTVpOFkSMZ6WBTOOhO60Im4GRJxkazRN1bpNzmoM3BQC2dTgoxUm5Lor4pnyOgcvMel4SoCBEOlNyUL1HDs/SKxUscwQFnsRiuZoZ1WtEiltySlQLm2KfTxTcFGHY+nfwyuonhvSOUT43istGYGqOOwN0hQTVAWym975bJotlSipGUj1z3VUu0RCT1R+DCmIfNIH10mNkMjUAfEvpHISqS/fxaOvrG4qqK+3+bb7b0NWvIqXmwuviFMcPHhWh97fv3ff8Z3P//f+eU//m/86u9+xq/+ixu/+bv/g9aPXMl3TMV7qGjIRuAkc+Sfqxr0rozL3jdRSTXF20bSaOWm0VtuRBtDsmW1ISuOPzB+m5q/TdF/8CrlNBHKlYxGgpbO0gAVpQrJ7jzF3C4ghI9HhuBgGIusAP9p1Dg+Gx6Guy4aQ0wRK7dXcrqhlfO1LSxduJuBY6bxaVgpg8IycQkM4yO/MITvYedrwtsniQzTLJ49+jWly3cqjWCr/5+99wCqOs3zfu+tuvXW1t29O7uzszPTwRzIGVHiCZxDRnKGQzxwyCCoCEhQJJhAQAFFAQUFFcWAihhAxYABREWMmHPbPT09s1v71q3P3edPd+3u+74zd+venXVmtrvqlDRNH845Ps/ze37h+/lKTV8txo4CKhoqNVRnSU1V4YujwUARjZG4pYhsS4jsnGOZKTJIkXoLYaVjBPPsQ5nnKBBSom4eg5GzGDIR05FxGH7/tbgFGSpjJeuC+bIo9OTR0n8Xf86XaaTvz3MUOjYN85yimO8UJQFwxc8KeO9c8XtkP3r1/P/JOP6r/7+/L3AZ2ocxW1QcZFpM3FJYuqGF/ecucfLabbZ2ncUhMFvaA3MdIzH4PvOYZRcqrcv5shhm2ccy1y4KuV82HmHLsRBrXSYCi8h8pspkMx01GAjws+DcueokcO0sxyiMRNnPKVzaa8LaQ7gci0NYVGKMXJKkvSH22jzHaGkfi0AxzyEOQ6VOCpjGKh0WzrF4hi/DJThHAk7PdRRDISnoKXUYKRIwctJgKo+RwNGzBVBBoWOuXRAWag0K/xTO3X7FinVtGDsFYyQLxcAxAmNBGnGIw0yRgDJoKR6aFSxwj6V8azdHLo2gDknBVLhD2IVg4BzAPMVi9FUaZtprcI3NprLtCH7JxZJVkjgnRGvBUB6HU3A+KzZ0cOLiKDFZReg7x0uVn3nOQssaLlFFxCX5hwD2Q/CaK6Dd4myQaaTz44fsz9RVK/09zLYPZ6ZLBvaeCZzou0BZdTOymDxKOgYJ161igWOQFLik5xFn0P+QfVnap2Fln4ydnQZXGz8CFgUQYBtI8KIwwhcGUWhjysisv6DSwpCf+Wn4zF2DpX0gv3SP5AvXT1QN+X2Ba57jFGlZ6j8po6Xmn6hdi9RdZAFTKfS/bmL+y9dTjcSp2u4PNd4f/hQ3Kz158lTvTP7D84hempgq0mGg9uanvl78dHE4C2wTcbROZaYqkZnqaBSeOjbtPcuLl19x4MgFWveeYk1DB4tzKmg6Mcjug8fxikyRhjMMvJMwUSWwUKnBPTiR7YeOE5WYjYkyHHOvdCxdE3Fyi8bRPRJj5wjmq2IwcUvAyjNeWqg2HrFYucdgqNJIJRNhZDffOQErjyQWCnsQj1is3WMwc43FQBGJuTqGhV6J0sPSVdziIiUor5VbHJaucVi7x2O7WCfR4W08tdLPmTprMBS23sooyclVfN9cFY2x9HzRWLmKjfqJFsePWdefRdb1+wKXgV0YM8WQgCyesNxaztx9yt6BQYprmlhZ1YaHJhdFcBpG8mBMlKGoI7KxcI3CTgxjhWexwCcJeaCOxj299A5eJ0yXx0LPaOwCUlGGZODom4i5MoxFnrGoQtKlf1cGpSD31yH3iUYdnISNuxiJFzR4QV+PY65ah21QKurIZBwD4zEWU3uOwTiHLsXaLQUzpRansFwsXCKJySrh2r3nVG/fi417BEZiWEKhwXpxCsrgDJS+8bgHJ2HvocFMHY1tQCbygCTkfgnIfDSUVLewWJOO02INyoBElAHJqAIzWKCOQuajpbm7n4MDV4lIX8bmzm5OXbuOT1Qy6sB05P7JuEUnYx8chal7FFZeyVRs383OE+eRByWw0DNGeg1OfukscEuiqvkYNx6+5t2vviW7cDXmrvFS5cnMLRlrdYg03WmojpOMJQVJRBhMmrhpEd8TWZ6Zs0Y6UyxcYpAHZaIMzpLOEyNZONPVKaxr2M8//uo3tO/twdQvloK243QcOo3CJQxzTx3mnqIcK8qGomf4L4/P3Lz43N2bz9z9+WuPUH7mEc8MkeHKhAwhnsVODtz67BesNDXnL33FtGkMCutgrO2nphU/ycXw9wUuURYTDUaRbQiLjKmHKBeITCRO8tURI6f/q4d04xK3rv/FQ/SNBMBWjIHqi3FUqX78L4HLySoNfVkqX6iTsbDXYWWr4zOXVKY5p6PyXsmOC9e4efcuGXlrWOQVhqVPMEkbG7jy8B6jN29RWddObEEt5Tt7WbFuJ+u3H8YzLo3a7j1oUzLx1+axofUYxRvaqdtxkOqGXfjH57DATyeZxlW3HaayeT/rd+yncEMrFuJWoYxmtjIOa99c1rYcoqyulbItXdTuOkRi3loWeMQRtaSSyq37qNl1lKWV27BfHE9sbhVrt+6jYP121rcckp4zLmc1a7cfpq69l6iMEqzUUQQml1DetJe6XUdZXtmMOjSNhGXrKKreiTwk58/iAP0kC/zH4IsIXPo29t+XCm3/TanQUAQuUQpXaglZUs2JkQd0njpNYk4+Ki8NjfvOcPXxW5x8IklbuY7rT96hzVvD3v4hhh89o/XEBcq27OHm5BtefPMtbT3HSFlZSVvfWS6NP+bU0FWidTmsqWnh/vP3dB4+zdP3v+Ho6Ysc7LvIyOO3rGvahZk6QrKxn69OwC+nls6Bq1ydfM7pkXGWlm3AJTyVixNvKVm/E7l/Jhfvv6ZqWwc7eo7x6te/5cbdB+SUVWOgCMTYI5oVdZ2cuT7B4NUxxh6+ouNgH56Raew9N8qpS+NcuHOfJWu3M3LvKWXrGylYv4M7z99zfOgO1x68pa61ixWVmxl++IzJrz+yfV83u3qPcubKJcKTcxm6+Yz+y7c5OfqQm28+EJO7GhfNco5cuMzS8jqU/lqqW3q4PPGarhNXCdetwSUkH11OJeMTE+SsKMTUORIj92yicjeRtaICXXEj2qIGXKLzJQcOeXgucQX1JBY1kFpcT2hyMdaucYSnV9B76T4X7jxn3Y4jLHDXEpLfxLVbk7x9Mkln937muwURUVJP37kbJKeuJGd9Fxs7zyMPXyGVHv911vWliw49p2TMF6Vi4pCOsYNO4hLOdg7lC7cgtOYePPzbmVTOt2WmWitddGaIvp4oGf8xjsMLXtcP0yh/LIeOqXs6SzYe5tazV1y+d4/6lh3EJaZSULONK89fc+vBPTZuO8K6Hed5/f4jE/fGaD92g9ilW/jtP3yksWErSWua+fq333H5xlU6Bm/w4Mlzmpp3kVS2keE7t7hycYT2U1cY//A1l4YncPHNkbx35iuCkQdt5NWHN0y+uEHr0auMPXzC0Nk+IhKKKGxoZ8/hI5wavs6tJ89ZUlJB/c59vHv5hKELpzl85hofv/vAvQcXaN1/lqev3zMwcJyA2BwOXBrn6p0x+vvOMjZ+n6qGrazdvJujfWfwS1jxY+D6MQD9f14DInAZ2ckwMjfE0vT7wPX9cIaxXZikNxK9K3OvFFZU7+b86ENuj9+nqbaa2Pwt3Hnzkay8Yjr2n+TwxUtEZhcwev85bbtb0GauIlRTTdv+a5y6dpOUFVVs7+zj4vh5atvauXHrGtt2dVPVeIh3X71hefEaOo+P8uLdG/IrdrGzb5hzA8dx8Ndh6iQyuVQJQjBw4QIpRZvpOn6Za5euEJK+huuTH9hUsQYH32RePnhCbW09cUU1DD/+mn3tR/D0m6qIzPJKZWlzD3cmblNdu5n12w8y+egZGbkFnLoywvOR52SVL8Mou43XL1+wuaKWvM2DPH7+gE21e2nZf4XB8wNk5NWwq/8KZ65cIDtzNZt2HmFgaBhv3SpuPnjF8MWLBOXUcePRO7ra9xCQUsLQ2C0S0msI1aznyOlR9vcfIy2/ALV3JvOcluIXX8XdsXsU5Bei7xKGXsBSth8Zou9wLwdPnKb9cD/JhRsxc4kgPGs1O4+c5kDfGY72nWB97Q6c/VZQUn2Ey6MPqW2sIyp5Gd4xG+i/eY/GbU3cuXGJ/YePYumtkUwvj5y5RkFJA6EZdSQWtmLlmYWeNGn4LwMzYtBEtG7miN6gMpU5ol+mSEd4o82XpxJrpeDpz35Jpb7TlN+hIlyyOBEDL2Im4NPEhgT+N37HP3+MgUvoMiy9s8ir2MiBwQHuPn9O9+ETxC0rZ9+Fq+w72oN7WDp5Gw/w6sNXVG9ax0LPFHy15fzmN99SX9dIWvl2Xr57x5r16wnOLJW4ifsP9rGhs5dbk08oWLEGWXAiR4dvcPnqXVx8lyCZwcmDcQpax6sPbzl57iCOgdns2N/LzZGrxKeXkVhUyYb6Ovb19vHo5VvW1m9ja8cBnj+8Q2ZmJqFJRbz/9a/YtXsL9h4xnL00wtj4dXKK1/Hk9RvODRxlZ/NWhq6Osr6tG3lILo5+iZiq/2Ohop9mof1Y7vxUn7sYhze2k2FgZoC58ULMjEwxMZ+HsaUdInDN/36c3dgtEYeAdDTpxZw4fYGJ8XECM9ZweOgmh0+eZfTeE3IrapEFxdPSfYQLw1fY23OKOO0Gtuw4Tu/gELGp+XQdGuDus9scOXeZkwNnWLNpO5VNR3j26iUegZFUNB7l9oNHuIYtpaKtl8ELZ3EMTMXWXYdXTBE7+4dp39uJc6iO9c17GBm5Tnj2Km48eUdD7XpUEem8evmGdbWbUGmXMPToDQ31W7GT+2Dtk4hZUDr5zfu5fGmA9Iws0ovruPvgKTkFZRy7NMpA93msFI5Mi1jLVy/fsXlVHYV1A0zcnSAuvpCiDfu5cPESmpTVbNp3mqODZ4mMyGT9joOcu3INr6RCbj5+wZ6OnZIv4akbExw6dIjgzBIu3R4nNmUtaq881tbv4+z1YXpOnyU+bS36ihwCk9Zx984TVhSuQt8lglme6WSWN7O2oprSDY3kVzXioy1ETxaOS9Qy8tdvp7R6K2uqa0lZVoKddwahqRvoPHKK0fERGtq6qN45wMD9l+zsOsDbly+5PHoXTV4VHtoV9J65Sn5xLcaqOMxcEyUXemlcXujzRMtGmOQ6Tom+xToQPovzVaGYyIOxcQhioX0IGisPxj6fTqH5IuY5BzPdNZBpqlgW2KRiZi80cp9ib/+JBS4jdRLOkQW4h0YRtWQJp4evMXLnIYXVrXRfuMahU8dZHJ/Fstounn/4SObSHMzcEvBOquTX//BP1NbtIH11E09evaVgVSUByYVcvDpOd88Z1u/pZeThJKXFG1msXcqp0dtS4FL7LfneUygYWXglz9+9Y/+xLmx806nrOMzIzZusrm7n9Ohd+k6dpPvoMR4+e8WG+ma27znI5PgocfGZ+MQU8epXv6G2oZYFbhp6B0XJ8zaZRRW8fP2am9cG2dPWQmNrF4lFddgGLWOhbwpGqk+xMH78nZ9mQ/7Hf+7GQoxqJ0PfVB8zIxssTMwxtdCbmir8PuMSU4LeyeWsrN/P6roOjp66xIWLN1Bqsskp3yHBqm89nsTJPxlFeAbFmxroOnSCyyMTLMlrYF39Xi6M3qW4chsNLUc5eW6QtVs7KF1XjWtQIoWb9jP+6AUeIYkU1nZz9e4jHENzKGo+RP+FiwSnlZFXtZu43Do2tPVy8twF1jR30nPuKt1HDuMRl82p0XucOttP6bYuHr35itLqOhxjs+kde8zR3uPosvJZum47sSWbWLWji0f3RunY3UlL7xADl0cIT17K3sEbHO48g61iMTNDVvPi4Ss2rW4gr+YUN0fuE5NUTMHGbk4OXCQksZQ1bccZHLstHf41u/vou3gNz8QVXLn3lJ17upivjuTo8Dh7D/XinpDL6asjZBc0oF6cQ1bhJloOHODc6G3yVjVjrMrCN6GC4dFJcldWMV/047wyKW7sprG5UwqMaxoPEJRWJU0keiWsonxbD+t39LBhRxfZZfXYBeYSmL6OovUNnLt8iVND10grbiBrQxsr1zUy8fA5fUM38UtbSeiS1fSfGyFzaRlBGauIyF2LuXv8lFhaEohPBS8hXBY9L+GGLoTRQmMmHOm/dI3jc7dIwhbZce/vp1NhYIOpUwBzVCF8oY7H2E6UFT/ROLz8TyxwLfDNpry1n237DrG5+6BUqz7cf4m4ZRtoPXaO4bvjFG5uo7Stl4fvviZtaQH66ljcdZW8+9U/sbGug6zV2xh/+palpRsISF7Juav36Nh/mvTKJobuPKD/5BUau09x5807hq+N4+K/hDmKCGbLQnCKXMPD1+/oPHoIC59Mavac5JIg3dd1MnjzPr3HjtN9tI/7T99QtqGJzTsP8uDOHWISVuIVV8aj97+W7Fos3GLoPn2dSzfHCUrN4+jQTWmz1jc2s7qmmYDkEtJLm1i9YQeygIxPdKv5jz9E/1yCwZ/S+xCBy9DWUcq4zIynApeJ+XyMLG0xtBWmrzHMkWtQRReyqqmHbQcH2b73JDkrN2C+OAa38Dze/uo37Ni3D2NlPOq4fGr2HKCxvZeV67fh7J9JWGoZ9Z195K1tJzSpgjV17TTsP8OWXYdwDcskPKeG2h3d2HnGEJZTzdqtezD1SSNk+UbKNjXjpyuluPYAUVnVBGiL2NDUwZbus2zYeYQIXQ6mrlFklTey59BJ1uw4wsbdvWiWlGLkk0ZOTSetuw+wfFUNhZv2kFbeSFnzHu7evsrh46eo3T9AbukGHHzjWFLdRl5JLdaOEXwZmM/W5r2kJBfjl93I+touXMOyCc2soXRdozQq779kI5u7jrKyvJH0ih1SL8wxOJvKbQfILFgnUTEKajtZVraZRf6pbO8+TmNHP75RBayq6aCp6zDlm9vwCs9BzykBWdAyKuq7CIhdKvWxhDO8oTIaG2UwxgoBYxA9/ykZjsiGBLxB3ylCmngU4IZZikQi8pqobumleddhlqzcKA17zZSHY6IIZVV1C+lFNZi4R5Bft4vu4xeITFzK+o4jlLf0YOUlBOYaaTL6h1H9z91imeYyJfMxc0iS5gpMHUTfS4u5Iphi81/w5G9/wRo9R6xsY7GwTWKOIoFfuAkR9aeqBv2JBS4zj1RSytpo2neUugPHWd92kNiMMizdk4lfsYHG3T0sq2tHs6qJjTsO4B+VyRznOBaE5LGt/QQx6eUEJJVStW0/QboCZCEZlGzaTXpBPfbhWaxYt4Vdu47QsK+Pmy9ecG7oGkq/TGZJSvxoTBfnUtvSRXZxJXru6UQXbKFsUyt+2iJW1rTQ2rGPmuZONu3oJix5Jdr8Gurqd+Dul8OigKXUtvcSk1Yijc/mVrZStmkX5ovj8F++mfXtfTTuO8GqLZ2EZVTRefQc+3Z34+yf+mPg+iTliD+PwC0Cl/5Ce4wsjCQdl6WphSRAFqxCI7twKXCJXoWQfpioxSRtAtausZgrI/DPXMO67Ue4cXcSTdoSCYE2Tx2PuUcENq6xGDsLUkO0NNpt4paMsUsKBvJETJRajN3iWeAShb4sHD2XBKyV0RjLI5mrisZcFcFsVRx6Kg3WLuGSaNbEORFjZy1G8kgsVRrMXBIxUcVhLIvAQDFFm1jkNiU1MXSLx0gZxUzndPRcUrFThWChCMNYqcXCI4mSbZ2cPz9AYtZK9N3TMFWESs7t+q4xGLmEYOaQwk89UrBzicBSHsIXrslYinF7VTgGqiSslUESHmq2SyoWbhpsnIPQU8di7iL8wxKwcNViKoC/ci0mLjrMVfEYqRKJyl5DbftJ3MKXYeWikYxzLVThmMiE+/uUzMZMmhoWn5vQgYrJbSEcFhoyIXaemuQWtHxpylqIoQV1SHAXHROZLhcu8SlYuSRjq4zH/HsZjRCDGyo0mIvJQ3UUi4JSKGs5RGbJJlyCk0kt2yJlXXqKMClginLhD4FLUFNmKlP5zDWRz900GCl8WWzrSrqpAzUGFlye9recmDkNH3tX5jlmYGWTg4FTAp+7BzJT9Qf0c/u9e/5PLHCJHpeBKhm7xdFY+Sdg7hGPqRACy5IxVcdj7x6HkUcic9yTsPXQsUAZwzR5LDPUCTi4675feNFYLU7G0CUGA3Uslp6pmLsmYxe1nKzVtaytaqZu91GuPXpE3Zbt2HokMVMVLenYZimTsBejr86hfK5IxsAtFVsPkXJrMFRF4uAWjKVLONbuYhFGM1+tw04djqlDvCQjWOAtNsVUKm7mkoKtWwozFZF86azFzD0Vm8WxGLvGYx9SSOXWbpYsKcJSKcSMfx6H6I/v4z//7/H3Bi77CIko8UPg0hfCWYF6cxK6rVii8rdIeyG/rBobVbCEh5rlnCjBpQ2dRJN+yuVYTB/PkQS5oucRz3ynRGbJNBgLioNcWJLEYSiIM2IvqqLRc4qUIAZCt2gij0JfuA8L4bEkaBUHvBAixzHXUextoY9MYJ6jmDwW4Nw4ZgitpSyaGQoh4E3FxCkIAwGadZoSHoev2Eh1fROeEdl8ocxAXzYl5J0tYLcuoZguWsbP3bSYOYWi7xDML1y0GNqmMt05DAFIMHEMlt7HDHWWNIhgJvNjlgjuwqNPTNI5iUxDZClChCxet2A0arFw0+EWXcgi31QEP1BouKSHFHwjmSeLZK5cUIXERLUgd4hzQgiPBXFkqnQnwRhkguAxRfGQMFROWvSckpihTGC6kCI5aRHZkaFwsVAJeVKshNcTiD2BxzL11qJOyMfSMwETpQYrTx0mavF5ikAzldX90OOysJuipvzCPY6feYVgqHQm3s6ezYamHJ9hyMnPzEm2tmG6pw8zBY3DXjAtBSwiVLrsfJo9/ScYuIRHmIE8mJnOEZLVgaGjwDItkaZljO1jmCHIGCodxiLVddQyzTmBme46TB0EAUMIqWOY66JlurASl1AyQiypwymhhPWthzlx/Br7z9ygblcbgSFRmMmjmKGeIm4IEoe1MgITpwhJ9T5DkYKJKLUo45kp12AqC5R4jnNkGonF9qVzOkZO4ZjKdMxWiVtOJOZiQ7oIknUKpk6piOkcfedwjJ0iMVb6I4m7PQuwC8/H1lMszk+Vjv/nH7KfZhP8eb/P/ylwmVkgyBmmEh3+h8AlxK0a6YAXZAljl2T0VclYLM5Ct5d3fwAAIABJREFUHhiDnSoAc6dw5jqHT2l85GIPRmAoDmCRUYlDWhy0QnAvkEaOcZKw2cBJiJATpDFqQwnKmsA0tcjuhMZzipRuKAKSo4BWa5klyBjSeL4YHBBCZkHVEF9PZQiCtKEnE268URjIIpghS2OGIhlDedAUnkoh0G0pUgnR1VeDhUs8n6mWM1/Q6sXvVMYzwyUMS6siprvEoVqciaU6ni9UCZguymGmSiDnkjB1ipCE0F8os6VAaSLzw9w/G9uwFdLY/ly5wGCJgKFhtiKGWZLYOpa5Tlr0BThXsBOlICy8w0QwFQEqjPmKSPRckpmvTsNA+P2JUqA8HoFsEoAHkQUJgpDIsMRjCn8VjzB01HMSQT9Segi6iJHjFMDhS5dYDBUxmKnEIFcKeqoEZgvtqauwXxLO0oJdKOAOU4FwCmk1NZghgtc853BpKGOuIHfIEzF1TMDRIRb1wlAWLwzD3ToKQ0Uoc50DsLIXGbrAacVhJMqJsh+HM/5dWYVYDLMlzmECgnQxW7IHF2K5bObKUtCzF0Eslr9zzWKeQwJm9jF86ZGFnXc0DuL/VSRiJOzEHROZ5pqMoV8CC93FbUyHra8Ov5gcQlPK8U6uwDFAh5U8GD3BT3QW2jMdeoJZqAyXHEBny1PRUwqQbxB6jnHMktBYgoAhFnAMQhE/U5XNLHkyeq4anF2TMJFF8YW74D2mYKhIZ7Y6RfL9MlAkMEMlbnPCdkGwH9OZpkpE30nQuUVtW8cceTomLkKorMFE3PKctHwpyjbyAOY5xTNTsNGUYsGL8kooBnKxyAQUVDDlkqTFJujRU3QCQTBIQN81FDuvFIycIpmpikUANw0EfUCuZbpKi1jMcyUNWyzzxWaUKB6JEuHERKB37AUB5AdbC+0UUFRMqTmLg0bQubXMlemk27aZY4SE55mtTGauXODDxHuKRd85mnni1ijpA6f4d4JzOUMezTwn8fwCkhoj3S4Fhkc4cxvIA6bElAodBvJIDGURknXFLKUGQ0dB645jurity2MwkYmLwxTD7b9iYDR01KK3yAEjS2PMTRdJwxkSZNfGEVPbcKk8Nc85SaJaaHKq2LHvBAdPD1O6eTfmPqkYqQIwttWgZ5fETHUgM1wFlkhMooVKwWOecxwLvXWofKZKZmKtCeqOCED68gikLMdNBDoB6tUwUy0cIcIwEhmHUxRW9sHSOhBrfJazwDVppUxEsjsRpTCpDyT2RQyzxCEsZXAJGDr7o+eyHLvADFy8I6XLpDhQxX4T1hymjr6YKIKY4ZIkXSpnqpMlPaaeXRSWykzmB+TRc3KQvOXl/FKmxcJBxwwBxpVpMHfwZboqHmO/dNS+sVgogtBVbqem6zROvqIUqpnKXGShiCA22zmZubIknAKzWbGxnsXxBYjLq76geAhYtyKeGWI/u+vIWNNMVXOPBCAQVZm5MpG1ioxLkN1jJOTbXIk+InRSUwxD0esSGd50VQLTxD5UREkl1HlO4vNMIbd+D3t7jrD7yCBF9XtRagpYWbufgKhsjCV0XaKEojKQpTJHVoCxfQ42tlPnxTRXwX+M4OeekdJlf8HCLGY4ZzHNVcMvvQP5uZuOL5SpWCwUbMJEjJwSJG2tnmMuc+WC5/opLn5xf2rj8CJrEiWHROY4xTBbHjmVZjulMNdJML8SMVSE83ceOejJ4rFwiGChbhO9/RfISK2UDm0zWSQmsiTMIwoo6uhmfX0Lgakbqd5+kJziGkw9kpglT5BuMQIxZSoWlDJJClyznHyZ5xyGsTqboNQaije1EJO2ElPB7XIWN6Ap3qIoAYgbowhQs5zTUGcW0NNxjui0Kv7GUxzIwnZABJ5YqdQgDv/P3ZOkFFyQoo3kwsY8Fn2HGAxkQcxxTmGOPJOcqiY6ek8h885AXywa/xRK19XhFlGIbXAWWeXb2dzax7qGdoKSi5gvblPyMAyUicxzjmG2Mgx9kWU6CnF5AjGrN9K6/xxe4cuYrhIePAkY2opgEcs0lQhICcx3jmOWuAVLKCxx2Ah+pA4TJ3EAJTLLQfxMinTACEabnhCryyOn0FUiSDmlYGwXxQL7UIwlJ1vxs2nMcRLgZYHDEmXYaOYJzJWjqP2LG2oas9x16CsFiDmamc7R0q3TVVOOrnAzzsGCViJKVYIpF4qp6EE6JjHPPZ6EzBIicjYwXeJKxmImC8HcKVialpJ4b59ko32KzT31O4WRpJ6tA0ZWxpibLMLcxHyKDm/jhJkIXMIZQZaEZ+o6ugdHOHZ6gPptzZTVNWEfmsFCn+gp4LU8Az2vYPS8IyWnB3s3DVauUVj4LaGwejfbWw/gHpGLnksaZspYzN3isHINZZ48lNkuWqxcw7DyiMbALQ5r5wAslDFYe2lxkvlKlY/Z4nLlLEC1WiwVkSzw0CIINKaKCIyVMVi5J2IqLibKWMw8U7F090IRtY6WI+cpK12LjVMYc5VhzHbSYuCSgo06lEUu/lj4iAtaFNPV4jVosHEUzxXNTN981m7eSGZMCrPUGTi6JaDnloilWwyL5J7M9U5ieeMe2lrb8QpJZvWOfRy7OIpHWDoL1RoslWGYu2kwF36C8ngsPHJYtnYbe/uOofBLl1oFlq5abNQ6qXcnAoxaW8qp4dtcu/MAl1AdBqoYKcDpOQj0lchcIzFwjkdfJSDFohQZjYEiAn2HEOkCN9M5kdkiO3SJxMEzCguBtVOnsf/GOCf6uqWx+czCKmRBWdR3nqN5Wyc2rknMV6VgovJljjJI4jha28fiYCtgymES6X3RInF+RUjAYGvbDObaFTLPMRk9pS9zVYEssInF2C6FX7olSDR8a8dAZrkI3uIn0nH9PnLGH6OOS9ziDZyjMLQLnbJFUUVITVoTh6mat6ipmytC+KkqVboV2cpDUeds5d2H76hY3cQ8RSRW8iBMHaNwSihkz7WrHDl5hsjsjTTsPkrR+iYsvUTdWtxogrFw9MFcFoSxaip7mC0PwkAdyUKfbNqOXmfi5Qf2HjqJk1cCcyRi/NQt00gRKWU8+ooplqFrVjGnjowSm1rBZz5xWDrHYG4bxnwXQcIPxkgRzpeu4iAOw1wWhYkiWgokhoK1pgzAUDAQFUnU7T7M5LsPuPpnYqRMoqhlH8f+WXMTmrCSnYdOM/7oOdevj3PuyggFm3bjmVxE1Y5uUvPrsHAX1g/+mMj8MXUIlsqWmrJaDp28jm/EMmY6h0qWFtb2omwp9D0aKVjMdxT8uSlLCiOnaIxswzG1j8bAQdx+dcyVpyBuiAJTZaYIwsQ5GBMR3OWRUsYlbHFEE9naIViy0Zin0mGg0GEmT8BUKZA+omkfjolcg7HwEnIUn3WylHFO3UA1zHDWMN8xClloPs2Hhli3tRV7rxhMRPbtKG694jaehqZ0G6O3HpCysk7KPsX3RcYlHqJXMEfQzP8rBy6RcZlaYG5tgMkCB8zswiWvrZkKHcF5jZwde0JXzxE0STqc/cMo2NLF3tOXcVRFo0mpouPcMP5ZK6lrP8npi2M0d/aRW93FlYlXvHz1jrq2HgIyyqnZsZ+ec6O07j+GW0Qa2pJGek5dpPXgGY5em6CpbR/NBy7ScfoGxUVrmSufotQLertb/Eq2dxzlyMVx9vVfQ5dRgKN/KntOXiNraSmLfFPYffwqeeVF1Oy6wrNf/ZY7o7fIXr6R+cogjNQ6Ele1sPvQWQ6eOMOhS7coa9yDU3g2W1oPsnt3L4cGhwku2cvA0EXWLqsgrnQPfWev0dI/xKHBG1SuqyO2bAtn7j3lw6tXNO7oZltPHwOXLuOXsJy2/ac40HOCPefv0NF3mUjtcpxCV7DnzDnKNm1B5rGUvI1dHDp/lV3d/QTHl2G1OJNNe04wMfmMifsPcQ9NwMRFg1/qGoKSiglPKyY4uRR5UBamqjjsfNMJTi0jImM1kakleEfnY+KehHfKarZ293Pi/Air67qw8s5g6MlLOvbvJjQ5Gw+/ECxVYehWt9J/9gphiaVklHRRv2UbMk04c13EeRLAFx5B/MRbxyLbKOxtEpijDmeGpwtmsnC+UObhuCiJlplyjk//kgPT7PC28+Yzt0Cmu4Zg5RiKuTC//GOE7P4xBi4jdQI+iQWk51QQnVFMxtomIjOLUbhF4BmVQ0xmGXLPCOZ4LyEuu5zwqFR881r57tt/onZDE/El9axYswmPwFTkcdnsu3qB433H8dcWkV28lqjUXAwVQSz0TSR5eTnl67cQm1aIkSKMOcI+XBmFnnMY/rpiRiffc+vBpLQIk3OLmSOPxCEkl4jcciIyy0gp3ERi3hpsPaKwi8+lprKN4Mg8bLR5LC2qITYmj8yyBlLyVuMZoSOytIrUVcLdOU2aunJNKSJ3zQ5yK+pYHJmFhSySLZ09vPn6HV6BqShC87j44BHrNu8kJrWMe8/fMDQ0SGJMPEFRMbjGFVDQdIAbD56xr+cMYWkFhGQVkLasiOSMQuJXVOOxrJKqDW24+afgk1FE0rJStAn55JbUEpa2EhuXRCxV8YTrSshevZ24nHXkFKwjIHoJZioRtJKZIU9GFrKMzJUbCY9PJ3d1NUkrqnDwisfYTUdgSjnLyreTW1SHV3AKBqoE/JPWEJ9eSkRyCUvKtxOdnI97SBpZZS2kLt+IlasoJcbiGrGEtNJ6Etc04RaZiak6kpU1HRw7d4XYlDzMHUV2F8V0RSIz5BnUHDrPw4lH2DgHS72G2VLA1UhjxsI+Q/gh/VcOXD/Q4U0FOcPaHlNbMe0Wx0ylDqugZdR1nWB88hkXR8Yk1FLa6i08ePcN2sQctrYd5MzYfRIKqxh5/IbW9r0kpucRmrGaw2cuc2v0OstKK1i38yCnhoZYt2UHF4dHWLtlJ2ua9vLi7Ucqqhs5OjTGk+evWb21mz0DI5zuP88CH+HJF4GNfyprO3oZOHeR1Zs7OHTmCmdOnsQvqZCrj95TXVnOIr8k7k6+pq6pgrzy3Tx6/xXHDh7EPyQFPYWvBLHO39zFzYlH7NzZTtuB49y494SY7NWcHrjEy6dP2NDUgO+yFp6/eE9z2VYKt5zk0eQkW7oP0N13mTOnzpNQuplDF0d4MHKd/IJKGvb0cPbcKXySljMyPsnI5QukVm3jxuMXtDa3sjixlL6xEZKWFBMYvkHqk+85tp8ly3Px9s+mYN0edh48xsmTxxkbG8UlIBJrr1gqdhyjvqOfho5eNnf0EZ1ZgZk8HP/4QurbT7K18yRNu3rJK9vGIp9kirZ0Mnx3ksoN9UQmLsPOO5Vzd+9xafwO5+9Nsr2lFRuXYDzT19N//hpZ5fV4F24hd81aFgRFM0P4n8lTmK5K4e/VBfzEN5LPXDL4Qp3GXwV4oK/yQ1+RiL+dEw+//Bte/fwvODZtPj52rsxxFkM1QruVLFmyiAzwk+ynP7WMy3pxOht3HePF8w9cG3/M2YfPuDzxkLKytazZ3MLJoRHitEuwjyln8No9tm1rITC/hV9/+49M3rvPifFJHrx4w6ETlwjIyuPQjUFOnjxC6so6jg9dZ33TDgJ0y+jou8jtxy+4fvMuXUfPYu0ZK01GzVdpsfBMoLi2ldFHL9i4uZF7jx5Qu30Hpi5RZJRt58KDFwxNvGJ44gUTL19SuKaWyDVbefrwHcsLNxNV1cyr998wfvMpQ3eecvfZay7enODsg0fcePqG7S09hKbkU3eon+NDdxm49YCBS6MERGbT0NXDu4/PWRycQkZFO08/vMIvbjneMSUM3HzI5KuXbN++E5+IOFy1pew4fYvXv/qWZ09esGpLKy2nznHv0SOePX1J98U7LOvoZ/LxO+JSSti4r4+HT18yevU+Nx++ZvDGLbQ5a0hduYkrN+9z5f4Lrj16yYvXL6htbcfKLYW5zml8KU8mdsUWnr39hvF79xkaG2f4/nOJGemfuZa9p65zYmic4fHn9PSexltbwrbDg0w8eMD5kQluPH/Pk2cv6R8alT67u5MvKa3chk/0ck4PXePKnfucufWQPUeO4xuTSlRWBeev32VlUSV2ovmsjOUzVTpfyNNpPXWV8es3sHZaLDXE54iGt3yq1zVTmcys/4KBS/S49O0cMbI2wcLMFjNjM4SOy9DSDpNFYdIAwCxRilYnYuMVTerSAk4NDTN0+xERS6q4OvGM5uZmbt4ZZ+22vZKjee+FazyYfMbO3Qfx1eazdXcPp071EZ2WRduJQR6/nGRgeJRb4w/Y1nGQ8sZOnr9+T0B4HDUtB7j3YBK3+OWs3d3LpUsj2PvHYyALQRmVQ9upy7R3tOMSoqWyfge3rl8hZmk5I08/sGVjBQt94nny8h01m1fhH1PMnWcvaN6yBXu5P8YqXyw84ihq6uT0+QtkpaeyfGU5Ew9fkFG4nvNDw5w92YuLnzcmgUW8ff8dTaXbpMB19+44scuWUlHbwdDgMCG5VWzrOcmV0/1ERqaybms7l66cx0u7jIknr+jdvxtj9wgu3Bzn6P59BKWWcfr2KLEpK/DwqWDLnjOMPRmj58h+ytd10H/pMScGLzE6co3Xb15RVr+DBYsTyK5oYUXldlau3cqyNU14R+VioQjHO2opyyuaKajaysqKBhKXlGPrk0hUbgUDV29xe+IR6+vbsXIV0N1w1EEhNB06w/0HD3ELTcJZV8Hxc8MUVjVg6J7MIlU4Zo46ZsrzsbBLJMzSkygTOTO8HTFQaFlgkYs43xxsUrFZmEmYjRWj03/CakMFVnYBfOmcwXRFNuYOcViIvrqrh9Q2+TFw/TtKOAt8M2g8OMDj+4/JyFtJcN5qzt0a52B3J5s793FpbJyM9DzkMZXceviUltatBK1o5dcf/4EjB/diExjHto4uJl++o7y1g6M3znDy5GEyShsYvH6LrW1tVLd0MDr5muKK9ajcF+PoFcl8Zw0zJH8iLQsXp3H+zn3O3RglLjWHMxcvc+LCAB6hqSwvb+Ha5EtKatrRpJRw9c4ddnYdI7Gmkw9vf0NBSRPx63fy63/4B7Zu3k1wUjHjz17Q13+OqOyldPUNcLJ3CJ+YVJxjdMRlFtHUc5xngvRRuonmIyd4//UzPEPSKN85yJOXt7H30jFflkRQbiXHrt5k8u03XLo1QUJhHclVzdyafMTWLVtY6B1K/bGzvP3whorVq7D2T2Rp5wBfvf6WxMwyGnrP8+jxIwpXrKNgQys3Hz+kpqWDtqMDXB0ZIyqzkJSiKh5N3qZpbycL3BOZo0rjc3kySUVNfPXNdzRsric8KYOBW4/p6jmF5eJk/GPTSVxWyt4T5xkbu0Nifg2dZy7z+NFNInUpFG7p4Nff/Yqq+m04xy3h5Yf39B49yfr6PTyefET1lno2tezj1v0HFFXW4xlbxJnr92jc3IxSrWGWLJrP3HKxCV0tQVH379yJlaOX5B/1pejliX6jPEYazBHDOZ9ko/071vYf6nX9ELiMrU2wNLfDxnIBFguMMLFxxMxe2ObEMl2pwzmpQjoUwxJSaO8+JNEhXONKqGjo5u3Ht7z68EoSG9v7ZxGUkkN5dT2jE49ZVr2LTTsPMXDhMgm5pTQeHmTg8jBZKyuJTc7GPUTLipoOJl9/xD0oVprcHR1/iJNmKcUth7h8cQzv+BWEZlQSkl1Fw6EBjp48S/yyMnYeOinhl4JSC7l0/yWtbW1oCzfy9N3XVNauwjOunMG7j2nftQef4BSCM/LxSVxJ8dYObtweY31VOVua27k58YSEFevpHxrhaE8vjh7eGIeW8ujVRzaXbSe/8TTj4w+JXJLPqppOLly4SeDSarYePsfwuYvoUovZtOswZ4ev46nNZ+zJB/bu78HELYJTV2+yf/8RAhJXMXB7nPTlJdgrs3ALX8LKDWu5eusWrfsH2NDWx47ufoZH7/D45VtWNXSi0Kyg6+wtegfvcOTCOAcHb0s9XENZJLFLq+k5P86xy/eli9/G5kPIQrJwCE7BJ0pHZ88Jrt59gmvUCoKzVhKoiaHt2DnGJiZxCtDimVZB//krpBZuwCwkH1n4EkwVqcx01BFkpWRwzme8/8V/4/lf/TU9vzAn1FzFl14u/MwznL/z1pJqacOb/+sX5Bmo+cw9hC9ds5itWiL1neeoRQUqGD3Jd+wT9G//1DIuK59Mqved5c7IGCGxWpxTl3P82jWOHelk8769XBy7SUpiFsqYSm4/fERHx1ZC8nfy7Tf/yMZ1pZgtjqJ0wyYev/jAuvZOeq+f5mTfEYlSMXRznI7O3dLN/vL4Q6IT07B2UGEgC2S61BSNZo5DIoG6Kl58948SlfrJh3/g6Te/5ebje+SsqKC4ooXrD5+QXdKIX2QeF0ZHaN97isSafXx4991U4FrXzodffWTZ0grco0sYfviUve2H8AyOoe3AMc4cPU9eZQ29N24y+uAFFyZf8P6rj+QXb6Tu4FHefv0Mt9AMqvZdZvLJVRxUMcxzSmGmawImi2Mort7BxORzDhwdoGRbFyNPHtGwpRYr3yiq+87z5PUzNFHhzPdKIKtjkI8vviIxcw1bjg1xc+wGoZHZJJU2Mfxggrr2Lnb3X+JIbx+uUVn46QqYmBijvusAC9wTJDHkZ/JkEou38NVX31BavBLvmBSODt+j5+hpElc1Mjz+gOEHk1x7+JynDyZIzlvHrlOXuT48iFuQBm3pDr75+jck5a7CMiSHV199zdnB87TtO8t3//gdj169YOTJV9y4/5jl5VtRRpfTd/U+zY07cHWJYo4ijr9RZBKe18bbb7+mtqoKU1tPqbQ7TZHEXDG5+P10mnCs/kMFiD/W5/3XgcvC3BYrcyvMLPUxtLTFRPRZ5XGIz0mI4Huv3+f5x18x+eYr1jd3YeyVi4NfDu9/8zUH+g9jqUwnKL2Rq6++YfTJW3YfOo0ybiWpZU1cm3jO1kOXSFi1kxP/fPDffvNrxp5+JCRjFRnr27l4ZxKZfzw5G9u5MHoPm4gVLG3ooe/4FVKKG+k+f5esda2EL6ui7+Io42++5cLtSZKXr8bGK0oic9x99ZGzd14ydPcV+RsqsPQrpvHoZe4+fMW23WdoP3WRyrYeirfv5vHL57x58ZwHz9+xqXkfdsFL2NN3iX2dfZjJFzM3uIwLdyaoKN1MSvVJBi/cxj+llNyKDnqOXUaeJHpfW7hz+wHtBy5St+8sHf2X8dGVcHrsOdU7jmCiCmXf6WGaOvpwDshhT99l1jc0EhJfzP7zdxh/8zVHzl7BP3GZ1F/Xk4WwalMrB85cxS4ggzkqIbKOx1oeir5TMHPFEIaQFkg6NjEkJSZxwzFThmIsxunVMaxo2Mflh6+5//IDG3ccQh1bwuCTDzx9+Yrhu89IWbEWYxcNaWXbOHfpKpHJJTS0nGP/zl4cXROY4RyLo6Mzq01n0Kv3OcOzf8lvfzKdtz/5Jbe+/DkX/n4OB7+w4PiML7gz8//g2c//kj2zZrFpmj2F073xtBBTzinMlhWjJ0v/NPvpTy5w+WZSe/Aczx4/prBiLQnrGxm6d58d2zZRtm07Y08eU756PelV+5l4MklLaz0hhbv49pv/Tm/vPhSx2RzsH+DWvSdklq+n99oAJ/qOkVq6jaGR22zfvo267W3cefKa2sZWAiIScYtZIdV/pzmGYKpaQtW2fh5+9ZHyzVuJz62iavtebr94KjV911Tt4vLt+ywpasInolDKAHfvGySxppt3739NQWkTCWvb+eq337AivwZ5RBFD956yd2cvvqE62rr7OHfsEg27D3DsxhhLVpZRtK2Vx0+fs6K0moZjp3n98Tmq0CxyGvt582YMX98k3CLWkF5/ELWuiKySGu7cuc2xg0co3LSdyw8esrN9J/aRKVSdGOLByycEBQfxpWsM2bsH+PjiA/Hpq6g7eoGbt0bxDcskpngrQ3fvsrG1i7YTFxm784DkoiZW1h/g2dMXbOroxcZdWKrr+FyukwLXh4/fUFRShDpSx6Gr9zh99iLlO48xeG2ErJI1NHUd4vHEbdIK1rHjxBDDly+i9teSXNHNd9/+d3RLN2Dsn8ezt19ztP8spdWd3Jl8TFldI65R+bhHpLLAIwlXXT39N59RVb4BuSyEuc4J/NwlV7J/7+0/xtiNESzk/syQxzNNLkwH4zAQBnrfjxT/sQaYP9Tr+jeBy8x2ilVoqT/V4xKsQlksM52TmaVOlMpwar8InL2DsRAmrl55BGds4c13vyKrKA8Dh3TmOGViE5iIIiQeG9dAZojJN3UsDt7x0gDCXHU6NsL7yjeZRd7CKTwUfc8UbDwERSMQPTfhZRfFNFUS89ySUKmjMHVOYKFXFmbuydLwk61nFDJ/4WmlwchZ+NUFYu4agVNopuQLttBHxwIfX2Yol2LgGY+zlxD/J2DpGYmNj5aibTs5NXSOnCW5KLw0WInpWnUS1j46FGKIapEff63Olp7Dwd6LmW5LcVILAXA8Zi46HFyi+FJootzicfeKwM5Ni5VvMiaeicx1iMDaK1MiZQifsoWeCVgLTy1nHUvL2jh8up/FkZks9EvCwT8dK3UMeko/ZokJYqXw1QrH0i2auap45rumMd8xGmsxxCWmcYUDslLLTMdYZguxtWQdIvR1ohcZwXR5NHoeWuwCtDj5ajBTRaDnmoyRXzZ+foE4ugZioghjYUAWW/adpnH7LtwSllK/u58N+RVYK4L43DWdn7umMV2dhJVdFu7Wi8mzsKXG5heMzvkLPvziL7n/xU/59U/+iv/7//zf+e4n/43bv/yMBlMTMhdaY+Zhy8+83bBZpMHcXuCpfsy4/l8/BBufFLbu38u73/yGh89f8OzNB46cuUqgbjVBmbUcv3yfR28+cvnWI249fkXNtt0kZBZw9/l7hu9Mcufte65PPqe4thmf2Ay6Tl5h6/5BdCs2se/UNco2txCozab5wAnGnr/n/rtv2X38HDauAeg7RrHIM5m+K485PDiGo7dWGsVWavLY1TdK56FzVDW1c+TyKNr8jbiELeWAJGRuJ2X1Vs6GWfgjAAAgAElEQVQ9eEVaUS1p+eu48+w98dlrcAvN5PilB2zY0oWbXyoNLcdo7x6kuLKZM5fHuP/yPVcmnnL14RvSitZT3dbDxYlXOAenEKAtYOzFV+QWFxIWl86lG494/OYb7r96z5nh26Qtr8YropCdx65w+81Hato72HX8GGdv3cMtKov5dmHkberiwr3XRKQVsrm9hxOXRnENS5VKRgcuTJBV3IR2eQV918aYePuO0Xv3ePf+A+3bd2LlmcZcx2hpVDeloJZL916TWFiDY1gG7WdGaT3Qz5KS9VwYe8CNR6+5fPcpZ2/cQ5tTQtP+fvYNjODgl4BuZQ0jL74iJK2ERd6xDN17TVP7QYJiMujpv8T9l19x78VH2g+eZHFYEsuLKjh78QbarArMZPHMk+kkFM6XrklUHrvO6P172Lh4M8/Rh/nqWKlEKCzghbW7kEh8ko32KTb397/z34zDmy6S/LjEVKGRlT1GUsb1uw+equZOrj56xbYDpzFXi5HtSPSETk8hRPt/nGVXY9c4lm1qp/XkMD7JxegrppzHBbVDPP6Qf/8WnmlELN2CW9xqxHDbH/J3/a7nFtmabUAu2uJWaeLQSPQufbMwdUuWXpOUzf2rz8FE7sc0dRLTnHNwMF/NTGUi092CCV/gxeuf/ox1Bvr8vYeG2Y5LMXaMkyaPp6tjJc2XkdOPgevf9Zds45NKQ9dBLtyaIG15EZrkpaj8kzASqn/nZJwj8wlKW4VTUCqLEwqQBaVJLsaBKaU4BaYSoCvEJyEPI3kI5ioNblErUIUsx8YjFY+ofNShog4cgY17PP7aYiIzq1AEZmAiD0dYZBspoglIWoVreA6GjkIfJbBRWhShhSyOKEAVkoprdA7WXsI1Ngn3qAJUoWLhpEhjvou8E3FYHE9gQj42rtGSq6lnTCFKvxRJu6IOzMYlaAkL1NG4h2UQnJSHKiQZn/hl2LhrkAen4Z9UgolzFJbucbQdv8q+U2clTYd7yBKi0lcRkZ6PzC8WI/sw9B0icArOlMo1yjAd6sgUfLTLpem8OQ4hLApIxzOhkAUeMSgCk/DUZGPsHC4NoLhq8rH3SmahVwyh6Xmkl6yhZnsLEw8nqSzfiKlrCvrCZl0x5fzsHVeAjQjmzlE4a5bjGpGOhToUr5gcvGNzUYWmsDgulwXukciDM/CIzZfKIOJ9eMUXYi3wXSoN3vGFKIKzMJCFSiJNf90qglPX4By2BHu/VJo6j9Pecwa3kGwMJSRQkiTQ/lwey/KWY4w8eIpffCZ6skBmyiKZLUSlgr4gDi7ZH/bg+l2Hyaf8/r8OXBamtlibW0k6LmNrB4xtw3/vvnPy0+KnzcNEGcZ8Iez+nq8nCBbi8Snf1+/63frKaOwCU1H9s7GjlXcS+sL1V2Qqf+DAJZ5fX6CvHAWtIkb6+ne9xv+c7wtgwJSn4g9B9H8MWuJ1mDpq+cxVxy89IrGzSWKWKpLPPEPwt/Xgzuefs8bIjM9dopnruAQjJ/Eew6f0nrIEDD/VfvpTKxUuWJzGpj29HLtyh8WaTMycAiTNkYGgOCiSJRqEENYKgoRQq0t/KhOYLY9jjtAcOAowaJI0SSXGgMXDQBAvJHSNwKokTGFMBLFC4GocxGEniBaJGLgkSPqu+QohktVIcEyhep8jT2S2oBPYx6EnFym/0C8loafIkoYm5skEgVsIc2OY7xQmHdZG8gjmO4qJrmgMlLEYCWGlCL5O0ZJmSiwIIwHXFFwxQYaQiM5RiE0pWGNiwekJW+3kKhoO9uP2/7D33sFtXVm679x/XtW9NXdmuqfbbVsWxUwQzFkMyAApBpESKeYARgDMQRJJ5ZxzzpnKOWdRwUpWtGxJliUnOYfu6TAz79669e7v1dqgbLfbdgePLNstVe0CSEIAzjn77G+vtb71faUCxpVo1XcbRKC1QDURa0TI1Cbfp1TpymnNQmUViaky/JNFMqtcydP4m4rRWuX9i1XzsEpZGOzq852jF7F0zylW7D1G94277Dp6luwCWRBq8JEdmDRKioCoSFeZyvHWya68HK2ljGBbBUFWO1ppVDQU4ad3N1kKWcJ9o4sOnZw398/SfOmrt+MjMjiSKrE61aOoUcvvkqunMGXNPkpbx6qm40CDqGvX4auUQarpW9jBiq2HGTJlBYHmEgKsIi0kc0Pe372AfT+Lxg8HIL8KXDER0UTGBhEaqyM44duBSzQFQ61VeEu/l9LUq1KN674izSRqD1/auf9wnpehMYswQTG+etHmewRcMgcefxQkIPEIKJ7UOZHPl/vo0ecLYH0daMnfw+MHK4HdX2SlKx+uX6RW8LP+5RTHGnn5hecYERqPt6jaJDahNYgWoqjsiGSdSFI9oXn+YwOusFQXNaMWM2zOVvQ5jWgk6pHdjaQtDLUKvHzNLlV7kfqLyEP5mmXxc6jnAVLzkJSRyalEMZVoplUEMqWDXVQsHGqIHJKIhvqbXfiZnerR31apOvxF6Voo2JKvFskiEdf0NznRiqSLgISlSOWpxVXUz1yPvyhgWORmEsWMkh5hynK0Nml0Fi02kXapQGOtRmMRaRYnGksdGtEvM0iNpkeAU9QvzDXqe8lx+Zic9BHWnCkXrc2Bn95JoDxai/GzyPdw4WsVAkUZ/hYXAaJ8YGjGzygOp3Z8U2RhF0UNAYgaxAVXeqf8LKJfVq1UMwIt1fR3jGfi6l0s3H6EMQs2YM2tI0IENuV7K7JDFQFmt423iKGK2oW/0NCtcp7c50ge3c+lCVpeL7t1B1prHYEWSWHUqEe5Lho55xb3UNfOJNfOff1UA7Ecm0kaqEVUtQJ/gwONnDPRXZO5kJhHoN6tKO4n8l4CWqJgLqoeRpHqeUI32xP63D8CrrB4oiPcEZcAV0jCt6t7a0xO/ESJwlqrzrF7UygbQ/fm8Id5LkUnUKSi3MK6qoldySmJpNIXi/nj+O5PGrD++Ji+ANBvAy4fQwu9pc5oysASVY4mYZjaCI4OCeXWCz/HFZVMoF5EkqVPTjYEosAj2opyzz/+jcAfH1PPvftjAy45CNnVu108RWFZUF/EI8UGQCIpEfqs+sbhVnKWaEwAQxZRkTqx42cpU5p8wlD7xmGpwMdaoURwfS2ViEabt0408iQiKsdY0k7BkHEk5csFLUL09vxMNSSWDKZs8HRi0x0Emtw3k4CVLAI+IrhrqMLHUI2vKE33RBZuAHUp/UWlMygq0HoBUwf+lloFwj6WWnwUmIkgqABBgwIbP6tYR5Sov6k0mYj7Sv+SvoEAfaMbDC0ixCnFYAG+KiVwKqAgQ76D/E4mpkSsEn2JAoioQQcaC9HoxYbCHV1pROleb0djE3CXKLNGAZqAmij5u4dQ0gWsRL7pkQK4vE7ARmSuHAq45GcZfnqxcvjma+gvGwCJGM1u4VUBT4mKVQQt88PYMy/ULtOtXu6eM3YCntSN9oRAS+6XR+SMoOhgFKswLFKJ7EoD8p+LuGTu+ZlcSuvS/dy9KZG5IRuRr11UnuCxur+PfK8vhkSKkgF4NH6Y3/nJbaaeS67E25pDQt9ckqIaCO47icS4cnb4e3LthV+Q2XcAwYnVaI1OfKyFam3wNTapjbusDU/kfP4YgUsWRVE1dkc6Ej2JKKdbXFZShu6F6+sfBax8JdpQjwJaMiTKcIPYo99/3aO/ihpkMZeIpJKQftVk1oxgYPVQYlJKaJ22it0XrlPZOYYQo7B7qgi2VOMYv5wD514lp6qTUFMpQRYRznRHUf6Sg9ZX4Kdz4i/K0rLYqrSZ2DqIwK4QCmrUc7XoS3rTXENQSh3+EtlYxB+opEf9uV7ZP/hbCvAz56tUokRv8joJ67WioyiCngKWIgQs1gTy+UrQUyI5UcJwqihKI7lr0Vq0VBNgkXPp9lXSGErcKSOz2IAXEWQpUdqHGlsNARaH+nyt8k4SmSjxUKokSM6DuZogk0x+SX9Wuq0heha4QHMVMqQ+IDtW9VwBkIDQnw6V8pDdnjqHPSD7JekZVXtRiuLuNKba5EhEK/PmS697IjfcE1jUvwtwuSMrd/T9hfWGbCpknv5QgUs2TCK2LRulnvtM0vRqPKGF9glc9790fnsml6G1DCTMUECv1FKVoSqKs3LJ+5fs9Q4gRldASILc21V4phQoUo5G39qTdXpCGYwfJ3C5QUtFGWrXLgtiOcFKjfmRt4285o+HCMZ+AUhS+3BHRO6dpCzYUv/5Yqf21ecCjgFyI0g6zFpJf8codp25ztqdB0ktqFFSRC/efYv2STNVg7A5czARJhfZtVOYtXgzGbkuoszFJGW3YC0dhalwmCI2iHpzYFItoeZakgYKAaERU/5grIXtRKa4VO0qNqMZS/FIbKWjic1qVurnof2cGIo6ScxyklwwEmP2CKJTazEW1GEqbiBcREPFtydZ3q+d5JI24rMESIrRCBtPJ9YvpWiVt5AowjvVDS9/E01CMbgLy2wiIXeI+s7JxZ0kDRqMxurCz1aPPsdJv9JWzKXtaPtJtFhO3wFig9GGcWAzKYWdJPVvID6tDmvuUAwDmgk3VRBmlNc1YCkdhrGonRDlvlpCUl4rUf0lJSVRqTv1+PWPkl+X6EyESOWayrWUCFoUySvwtghxwG2LIaAlmxmxkJCIXKw3/tIb+qfyuu8EXBY74iggmQmJXB6dT7X5+IECl4CVuA/IJkwyF3LfS2rfnVl5ClxfndcafQX6+Gwy4rKx2JJoiIhji48Xb/X6GeODjXib7YQk1qrz90JqnrKA0iYNVmlCX6WS/wSixW8Drq8e4A/lZ4kexKxO7aYkTaSiLBGBdTOHVJpLgZIA01eGUQRcZbjTV/Ie7p2ZpNqk2PzNwKUWAImGTFVEZLQys+sAb/z2Q249eJXx85YyYcVm7r33LgfPnGXTwdOs236EHHsj5SPmsHX7HvIKKykcPIp1e0+zau8xVmw4QGxmjVJuD9Y3YSyewIwNOxUQrt9zhq7Dp2kfPRNDzmCGze1i7fbTrDh0hWUbt2HuV0Byxyw2H77Isq4DrN/3Il27zzNz6TbWHTjJpgPdNAyfTnxGLYMnLGX97hNs2NPNglWrseaUEZHeSsPkDQyfvIxhU5bTPnUFdaMWEZvhdNcMhZxiraN05GKW7zjAsm2H2XjwCmt37ie7sgVb1WTmdu1h3e5jbDl0gWHj5xOZbmfs0m1s3nmcpZtOsOnwJdZs2suCVZvo2vciyzfsIr+0kdSiwcxes411e06xfv8p2qfOU5buq/acYcyiLiWe7E5hShrzT4f7Osm1kiHzoOeaSn1OAZikgiUicNOfZX7InHGD1t8fHT5IrGAS9EodXiSfhFUodHhhFYYkSLRe1TME4N33kdxLyghR1QZlEyM/u4f4w8mQ17rrR19+/NIiphiIX/7bF8+l5ij1Evc1kk1KBX5mke9ye+YpMk5POl+saR6Rd5RJ5Z/xgHKnpyXLIB5UwnxzOzYI8AqAueeCO7MhNitqSC1UrStScpBIXUoAUheWFKP0ULnU6zRC9JCsxZciKHUMyvPqi+P70/Mi50tsTqQk4fYiE48t8TOTuqtooIbHN9ArpQwv1btlR6t3odXVu22KRNzalIePNR9vS5la18TLy8Nmx1P6wb70ff7a58/3qyAtMZMFvgmc6dWbN/7lea739mVpcBjx+hy8zOIIIRtT+Sy3T5lGX+e+Zj/EVOFfewJ+6q8P0omFtjABxVZgCIOnL+WVD25y5tIp1a0+evlW3njvfTbtO8by3Sd5/b33mTBzFqPW7uPD9z+jprqNWbsP87EI/q5Zy+RRMwizil1IHcH6WjLblnDq3iu8eOkii1bu5uwrtzh6+BBZlWNonDyLqVMXs+H0Ff7tt28y2NVA7tJNfPKH/2THvmMs27qPdz78NacvXGP++m1cfeUeG3fup3XiQk5fucLuA/tZtnYnt1+9Que4CURnD2PxvrNs2XecLfuOsWn/URau34FpkEPdYP6mWvzThzB8xW5uv3OHdbv2sG7Xi7z93l1mzJ5BhmMiw2YtYPq8pVy98SZ3rt+gf0U9uy5d550H91m0fh+7zl7mgw/eZuvuzWzYd5y7D+4yedJkJi/bzKVbN1i6cj0Hjp/k5r3XyMirZ+G6fYyeu5xQceD9Djfi0//7JfAwViDApU00EBIbRlREIjFK8klLSIyO0IQStbjLAi8ZBbHjCTS52aSK5aoWZDGLLHcPo7gfCJAJq7aMALOwzB7Vj9xWPm4igNQ05ffy968bQlYSLzD5P1I3k5pxGb4WMWV1Ik7jnkItV0xG2ZDKECKAbCz/TNQsqhOmKrTGKkL07hGsd5sySm1O1cPFRVjA01KszB2FtKFqu4Zad93cnI9G3+yup1ty0eib0JjFvFKagf90cyu/k/T61x+r+/iDJd1uKsPLWoWXxUmgzqmc0eU8etqKCU1s5Wf9i+mdXKPYvWK8KeQkH1s+IQY7keIgLfV9g2SHxPW5Es9kcaH4bgQJjc5FYkIxhVFWWsKiGRIeR3XfDCx9SwlN+IGKUv8YI64ntTCJK6rUrmSXFJjURmrpcC6+doeN248Ra62jfcFGbt57k5axsygZMpWrr73N3OVrGbP+EB9+9O84XCNpW7CBO29+wokLV1kyczWJGU5F0RfbjayWuXTfuc369bsZVDiCrcdOc+nSeWqHzWXqmi62bzvAjvM3+Pf//IA5E6dQtHgdn/z+D3SMn0Rx41Ref/d9tu0/wsDK4ew7eYadR06xcOsRXv/wIZduXOVQ9yUePnzAzIXLiR4wlPoJyxg8ZhaDx85UjcLOjonEiV+SkFYkbZjRTOfqnbz0+i1axkzDOXQRd19/jeUrVlHeMZfV+w7StXMf1269xWfvvUt+wxB2XbrKzauXKXAOZdKK9dx/4y7DJ4yiZfxsXr3/GkuWLmfn2au88f77HDt2lotXXubdz/6N7JJ29P1r0GWVE5j4hPLmP1GwVMCVZCCsbwSxUfqvBa4vXHGldviImCMLtDu78UUm4tHP7nqhm/TSQ5ZSYOAGCHk/WWS/bSFXpAmJqKVm/PlnClvRocxVxRFZpfPluihW4JdYgt9yrVSULul88dRTEVe1AmdJK8tnuQlcAlzy/YQlJ0OAq1KlF+U14mMXYGhQtTxpEQnUNyoPMgVaKuL74jw8igIVQehrQdoNXFLOkMiyj60KUVUXU9SQJMkYuCOnMJ3UfosJSWogNt6pHl+wueiVWoK31b05EGPXsKQatAanqhWLhqo4JHyXNTEoqYbgJBeBMnSyiW4gJKGWiHgX4YkCkn+8EfpB/PwUuP7yixKkr1U+NgHmXAL09fQrG0f37dfp2n+SxIENdCzcxNW7D3CNmEpW3RjO3LzH3JXrGbfhEO9+9huqG1owVVfTPHw4G/Zu5Z179xgyaRqGQXZsuVVkNU3l5Mu3Wbn8AP0HjqPr8ItcvHKZhWv3cua1B8ydvYxpa7fwm//4mPmTZ1G5dC0f//YPVA/uILtmLq+885DVO/aSWjKe7UdPsf3YWeZtPckr773Fhl3bGTZlNqPHjSWn1ElcTger951ny5GzbDlyRo1Fm/ahz25wuzDLTi+jlraVm3nxzh2cw2ZR3LSQl2+/wYoVXaw9fImLb7xF07DRHDtzg99+9gm5TYPZffUG169dJqO0gRELV3Lzzi3qOttxjp7D9fv3mbd4OVu6X+LG3XvMmLGYjhHjGTFpKrq0aowDa0kYKNbvf/k1+UHcRD/w7xtscBL4TRFXYrE7wuipKSqmq/Q9WqrxskjLRU8/pHqUeqJbMUP65oQA4Sa+PCLBCGj1AIP0Rio239dFW/I7iRKk1URAUlJ4ktIX9qKYiPbUN4WU9CgdrCIvAa5S/M3fTuF3A5f7PSQtKMxjxXLtAUf1HRXIuoHVnS58RNgS81eJ/oQ67+73lPmo1YtLuJCkhPQhi7kA16PIS8DHfT6+Dajle0jt1cNWpaIuAcEQnZvF/HxyFR79clTLTB9zK0G6RsRQ1t9STJhRTFDtPNvPwc/TXYrpK1GxnF9xc49Okt7Iv/2e+dfMAfwyYxCe1nICdbVoDXV4mu08l5HHL9OzfnzAJQyvb+P//70tGt66MXjb8vFOScXHVEZC7mC2vniOGx+/zuwd25i4bjtXX7uLa/QkMupH0v3ybeasXMH4DXt467PfUd00hOnbtnL03CXO3r7Fmw/eon3aTLYe72bt7uOUjVrK8ZclKjmMrf8EVh28TPelq8xesZNzb7zHjZtvcOLWfT77X//JvKmLKZu9lPf/7Q9UDBnNANcSbrzzAUu2HcBUOIGNR8/Sdfg8VWMWs+/CJV56/QGHr7zK/mOnySlvJTDZQf+KUQyoGcbAahnDSbe3E2Z7lPuvwie9hsHLNnHmldexD5lNfstSrt95n8VLt7D26CVu/fp3nLz6Kq++/RmffPwZ2U3D2HrlFhevvESavZVh89dy7fZdXMPHYh+5iAuvvc2EGQsZNq+La/ff5Oqte3RfusaanbvQ969m55mbDJ2zBK3lu+0g/97m5Z873kfkjEfq8I8akMPi9ITpStU9LoxOSdf5GO2qKd3HXK4WL3+r+3dugJG+Q+klrFUFem+dRF3CAv0ycFXhL838xmoCFXvWDVy+wkaV5nlRsVBN9BJ9NKseR39LobtWJnUTvQuNSepuxWh0diUMICal7vYRARpp5P9T4JJ16tF6JWDqp++ReXrUw2cWJQuplbnr4LLQy/eW+pnGUomPoVS5qftJ07qpFF9DKf7S5iKsWEONyrJok6rxFeBSPYjlaM2SnRCyRzmeouBicdfBHh2jNP3LcANjmWIG+4oOoWgW2koJTCogUtpvjBX0SnGiSc4jOqmOIEMD6X0LGBsez8oAX/Z7+LPSuy+OsDQyY9JJ7WtCZzDTq98gfp4qacfvdr8EGYqQoe0ZQSJ4YCwmxFRMkOFPz/Wfm2/fy9+/LeJ6NBEU/fg7IPr3ciDfw/frbRyGR3IBXrZsfPX1BOrayKmZQseULZS0LKF/zQiaOydizK0nYkALjo7p5Fc0kFI9ivbxGzDYXBQMmceIcRvpmLmD+vr5xGU0UjdiKVVDZhCTN4zqMdMorBhFuLmdAW3TcHZOJq2ghaKR05k4bQ3lHVNpnjyPovwWYiqHMHjcUhIG1BCV3UHThKUMqh1DSFoTJa1TKGqZSmiWi/41QxkyfRkd89fRPHIOSenSlFyOf4Jozz2qZ9gJ6ikwy00t6QtPWxnmquHUds4iaVALkVnt1A+bRX5JO4bSVhpnLqd18lKqh85hxJjphA+sJmfYTFo6xypGY0pFJy0jpmIurCWucLTSbxxY0kTcwCbKh4xj1MzVjJ67koKGVlLLhvDab/43jvFT8Dfk/TB3ed/DHHsc90pgUrXy4wqOCVU1Ljc5Q6uUM0KSStxMW9WwW0pwSgXRmQ70BU3EZkvEU6AcxzXCLDSIarlEMNI36VRsVUvxcGUiKi0QGoMdv6QyAvRCRJDWBjdIaSzlBKpeQlFsEdHdEmUm6qNrwkefjzY5mxCbnVBTM8E6J1EpRZhyHMSmVOGvK1HRmJi4KqaoAqA/XahlrZIhunxRaU7i+zuISq0gvJ+dnMaJFLZMJTq1kmBDgUqFSxuKn06ilCpE/UZShVHZ9ZSPnENWRQdZFWMpbZugrHu0OmnlKCJUnAYMNfgYyohKl/RjLnH9q/BLysVb73Yp8NYVKbCSY1SApZqgy9TxS8Ql0aCXqYCg5DxSchwkWaWB3o7obD5jG8ivzI08n1ZLkj6ZNdreXPL8Jy729uTNF/rwzq+e4/V/7c0rv/oFx3r1wh5hwdsmggrfrQ7la2jG19CAj9mOjyUfsSzxspbjZW7EWzYXP8R5/xS4/vIQu49VCqtFBOhdhMS3EJmQi8GWitVcQ9+k0YQZGkmUYnBiAz5JQ4nU1RIdV0yQsZVoYw0xCXLj24k3ilpEPTEGUdZwEmJzEWqqxcPSRGBaNuGmXHwNjXim1xCUbCdUirdpFcSaKghOtqPpV0FsQhl9MqqJsjUQbHPhYc0nLLmeIEsNvimlhNpqCbLW0MdWovpXZOHQpFUSlVxFkNGOl9VOsDArRcXCJAuRMLBEiNbNrBQGkbfVjihnxKoG5FI8RcE7rZxIg50+ySX49bMTkeYkxOwi3piPV3I1fVId9LUWqMbrQGslcdYiAi12ehlbCbZWE2UQtYsaNNZygsy1hCRXEGTLI79pNuuPv0RinrgVi9XGX35dnr7228+VAFdgop7Q2DCiI5OUcoabVZhIUGIxvtKEbyojdkAtMzcc5PKDD7n59kfsPnUJ/aBqBtWPprBlstKODLNWqnkTkFSBrWgUy/ZeZuLK/YSJmkxSMUFmaT+Q3kT3XJeIQ8096ZPsiUC0NmncL8UvqZnYAZWUdHaSXNxMrLWVyqZF7Dl1QY2cynYlYu1jlEXUqdyrpX9TalNfveay0ZKoMbVqAjNWH2H97tPMWrWLHFcHi3YcYfWebnTppUTqB7hJJcYKvBPKCRSFFiUCUEI/x0i2nbvGlLnrmLloD5sPHyetuA2tkLIsA9T8VU4DVjsbjrzE0MkLOf3yG/SvHKokpuSekWjSR2SmHrEVH0WYpjKChSxiqSDD2cH8Tbu4/fp71DWNwz8hF09rNX3Ng/AxDcU/oYr0xEwO99Zw4ll/mnxSaQ7MZKQ2ldl+Vvb7BPDhv3ix1MNElLECL9t3i4pCE52EJEpUKRFxkUpPukkgDjTfERS/ep3+y35+ClzfftN/+UT72LKVunho3zZ05kF0TgxnxVYP2of3YWBhIn0HJGHqH0F8toXwQZkkZCZhzYokNttMfHoa5ows4nKziTX3x9OSRYg5B6/UgXiZstDo2ujTrwPv1P4EmTPxsTbyq36VeFkkj12FR/9aQhLL0SRX09tSQ1Sii+ds0qfViNbSgmdaFlqjCMvW45Wag8bUiJ/RRe+UUrwMLpXa6WOrwMu6q4oAACAASURBVC9JWGGVeNhK8UsQaq70uQjttxaNoZYAvbQFSGqmDB+LUHIdRCWInmIpXimV+CQOINRQjUe/cjwsFQSn1OObUEucuQyvtCZ+aXESaS4mwNqi2F/hukLVbO2ZMoYgaz1hCaLX2IC/rQVfUwe+pgZFgY5MHUJEilhGZBCge8oq/PK8+67PPweuuHBionTERcd+rlWoTShSOnRS5K8YNpsX7z5k7upN5JU7cDa3kWmv5+ztd+k6fBH9AAcJ6Q4ySkaTkj8ca14n6VWjsJV1ENPfhalwKMllwxngmkTCwBZVrwlKriLdMYHkitGYSoaRkNuGRCVSnwk0tNA2Yxmn7tyibeJCskunsXzDBW6/8w7HL16ipK6TQH0e3vqyHuASSTeXSkN++Zw8irYEuFIqxjNr9WE27jzJ3FXbya8dyqajZ9hx8hJ1QydQUNZEsER/xgrCUhoZWD+fTNdMgvvVkNU4nsPXXmHe/DUsXnKAA90nyShqIrZfPemOBtId44ke2IzWWsyO09cYPnU+1+6/i63QSZC1WJnNyvHlNM1QkaWAl4B1dFYDWXVTGFA1ifj+Lqau287Rl67yu9//v7S1jiM22U5wZgP97S38ytZOaFIFGXEWTvXyYLNfAJrUEvqYWvFL6OAXKVUkpYTR3ceL9c/qiNXl8Wx6psqQfPmc/DXP3SlC0XMUZZ5aJefkbanB21qGjxzXD3ET+aMDLmnWNZQTbcsgTD8Af10dfSwNeNlKVSQhoquP60Q/Y+3gOctg1ZAXl2Jk7MgkXj9t4feXn+d/v/jf+L9n/oH/e/of3I9fef6f5/8bv3vxn/jktJbjS8NpKfYib6CO1EHFRNtK0OqFvltCoCUPP0s23qZCvE1OPHVtPG9o4llLA71szWr0Tmnl85HcSh9jI96WRqXPqBhaqn/GjsYslh5iElj1N40XTNX0stTgmSyK0aLA7sDfLEyrFvySRDqqgOCUEjwTC9Eah+IXP4oQwzA0SYUEmgY8tuvwuK7vT/V93cDVQ4cPTyQuKpaY+FDC+xqU5JPS9TMUk9s4mRPX3+T4xVdo7RiDwZLC4uWHef/3n/DBHx6yrussi5cf5ZP/+JA7D99k5baLbDx9js0b1zN+zgbuvfs+b739Mbc//ZD9O3diqR7KjA27ee+1z7jw/qe89n9+z5lN3cTHlSsat65oPBfu3OPf/9enXHnlDtVDlxBirmXM/A3sP3OG4vomNCbx+6qkj9TVzFXUjVnIrBWbmL18LVMXr8HZOZVgY75KeXuLbqe5gcT+Q7BmSPP7CHxzhzKh+yqvffoRd977kAf/8Qc6Vk7DxzKYNWfnc//D33L93Yes7ZpJdtNSTl65wsx5Gxi5Zg9bu7eT39rJot27ePONN3n1s99z7tVrDCwvJTG7jLAsJ/Elo/FNceBhKCIwpQL7yBXsOHqdeKs4R1SRWD6RNQdf4r13HvDqSxcpbx7Lc/3qsDbP5K0Pfs2opmZijDl0dF3m04cfEl7u4h+tDRij7Rzo5UV3n/9JctJAYvo2EWHKpU+/QlLMCZzz/p+MjInmOWMrP08XGaY/jUJ/qvNZHdePDbjCU+spHTyfjNIqIgyZaHS1eFoa8LaVKvWMwMfotyRd4kpp3FhNkKGEWF0aWekGxrUNYOm0cuZNd37jWDm1gY2zcjm9IYGHp7z5+NT/4A/d/8hvD/6CD3f8ioc7+rjHzj68s8Obhzu1PNgUzJHxvRhSkURmhom0FB1p/XSk99N/PlL76dGnmbCk60hOjaQwL4Y2ZxIjXH0ZWR3B8JpAOh2+f9MY79AwpTyQ4SWBOPOCyOwfTFJaDLFZyQRnpBFkEvfTQvzSkvGw6emTks2z+lK8bE1q1/aTvnF+iLvQb/hOXwWu2KhYouKC3erwiUWqsTTAYifEVkbz+IVcfOV1PvvDf7Bl2w5yCsdw+e4rbNy7Eb25hqUrT6i+vrLGJtKKxrDxzAU2bdqogOvs9VsM6ZzF5NVdvHj+Aq4pyzl//102LtmJvriKE2++yrltZ+kb6+5bCurXQtv46Vy7fYW2keMJNtgJsbgYM38j+8+8SHF9qwIuT8kApDQSmOxk+JyNLOray7LNe1jUtZvmsfMJMspGqYJAqwtPnRMPfQl9DEUEJ9YQn9zKxk2XubXrAqOKO7l6/AZHd59g9OAT/OHfP2BU4yrmzNnBvZdvUT/mCGdffJWFE3cwa+VZ9nefYvzibRy4foeOsdOxutq58eoDVi7uwmQuIySuHG1sDX6R5ehSWpgyZye79x/k1ZtXmDtnOvmONrJbJrD7xWtsXrecenspfZPzVabEXDuJt97/NcOamonSD0CbO5LS0naC9bkE6quVtVJDYiQXPXszyz+MuL52njcM5xfGDnJjcnnlWT/mahKIiKvlufT+T4GLL/37IZIz4nMGs+HYLY5duUl+VRvBBhdeogIvUYswhR4jcImFSoheRGar8NbX8UK8iwBzC1pZwA3NeOg6vnF4GiR11kxgfDVpA+oZMrSZzs4UpkyLYdvGRE6tSeD0mkROr0ngzNoYznWFcHWnP6+f0PDJi8/z2Zl/5tPuf+Ljk//IJ6e+NE7+Mx8eCuLdg3482Ps8bx18lg+6X+DDs715/0wvPjz+HB8deuZvGp8ceYaPDv4LHx/8Gb8748Gnx3rz0RFv3t3vx7U1v+LAhGC2j01ibIWeAcY04uMrCUyswdM8EM/kjKcR1zcAyfcN6F8FrpjI6B7lDHeNy9tSgbe5jKAUOzFpJZizS9m86wD3HjygvG42L732BhsP7iXBVMXCFUc5e+sGttxSbAUj2Xj6Mhs2b2P8nI0cvnAdZ+sUxizt4sVL1xmzYjeXH3zEzNELsZU46H7wKmd3nCUuTlJQRQQmN1I1ZBxX79ymbex0tFIjMlYyat4G9p25RFFdOxpTHp7S5yR9YdYamievYs7aXcxZs5O563bTOHahqon66cvwMVThJUKwyeV49itFmJHBGU6WHDzH3hPHsNa4WHrrGie3bGfOmD384f97l9PX77P15jW6TmzCPnszB6/eZMb8PYxffYKdp04xd+V2Tpy5wuimkeTkuzh39QrLN2xC17+EIEOBquVJXS8ipZKhM9aycs8pTl9/hWEzF2CpHYNPXgeO2dt58fZD7t59k5qhE+iTUo7JMYo3P/w1na1DiDYNxCPZhTbTiV+yHS9jAf6mPOLMyawOiObuM70ZF+1NmrkvufEGFvpH8MYvf8XkwBiSYmqVmoYwG7/vefVEP+/HFnGJZUZe8zxO33yVluFTCNJVqU57H6t0kEv3upAL/vK61V/zWum5CBYbDSE3WErpZSygl6VQERV8U4vwTx7wjcPL0EgfYz3eyeU8b83mhVQRtHTyXEoHvZI78DIV4S36gfoGNPoWRFIlItmBJb+BYe35LJuZx/JZBaycU+geswtZObuQFXMKWLR4EHPn5zFtdgktw3LIr8qgf0kO6cWlpBbVkFLk+ptGalEtaXlVDCosYsywWpZPc9A1KYfdk/txZWU+t7eEc2dvKOf2xDJzSiw5BQZC9Xn461rwM7Y9tuvw11yzp6+t4KvAJbYmoZEBBEUlEJhQhKdFyA9lZDdPZfr6A8xYuYUTF67R/eJlBtgnsr37JY5de5mKprlMmLeHEzdfJaF/KdaiMaw6dpHlXTsYNWMDu07foKR5Ku3zuzh8+gqVw+ez9/wtzh6+wvSVm7n/u085uaWb6EQRvC3Cz+LA3jaRS7fuM2/9XgxFQ9Haqhk+awPbjl1mkGs4AcZCvIx2PE1VeOlLyWmYQt2ohdSPXqAes53j8E0SMk+58tsTd4MgnZ3whDIi9aXE9ytl/b7j7D92AkN5Jwsv3Gf7viOUVs/k3ocPWbn2KK0T5zFkaAfpdVM4fOYm86dsZ/aSQ+w9fJL2EbM4eOw8e3cdYuGmXVx4+T5Ng6cSlVRKuM5BpKmJEF0tYUap7TopaZ3Psi1niE8VElIhuuLR1I5aydKlu3jppTu4hk/HP81OinM4Nx68T0vrcMKNA8ntWMj41dvxsJXRK7mcsIRiYhPtpCVkctQ7iDee/yfu/+qfePPnHnz631/gzi+eoTg2noCkejxFk/UxrXk/2Pf9sQGXsIoG1M7i+JUbdIyZQYTB3Q0vRUSlMfYYgcvH1ISvye1D42cpdSuwm3PVrlAM1oKTGr9xeFsq6ZNchmdyMV7Jhcp2RJg7wuSTIUDoLbYihib89G0EGFoU5Vjo6n4CeIbWrx0+hlYCDHUEKKkaB4HSc2JwEKR3EqyXBk/5zLy/afRWINvAC5Za+liqlReZv7mMQFG4N5YRZO1HeKaFRHsmAekp+FqLlJWK9KqIQsAPdtL/nd3kSqtQGpB76PBRPVqFITFJBCUV4WWx42kswWQfxsQ1e1h/+Dyrdx6jsnEYYRYXFcNmseHoGYZM3kzF4PmMXbKB6PRK4ga0Uz9tJc2jZ1LWOJOhM7uw2IeT0zaTkbPWYC4cimvsXA7uOceWwxd55eMP6Vq+h2BdBQFS+DdXoBtQz6T5m5nTdZjU2nEEJFdQ0DCZjilrMOY24WcoUt5xEj0p1p6xjEBDMYFCqTeIOaq7X0v0Kt1iy0LDF4q7i7CkQjJ16azpHM7eUR2UJhcyZ9xKmmbNUUy8mrGT2bb/EhsOnaZj+FTiKjvpWLCV8uYlFHQso2H6KhJzmykdPJNFO7qZc/QS1ZOWEJZegb9yk3C669Amh5Kn8rLWEJw5jMRBQ4mwFBOkyyWleAhzVuxm3/5ups9bq4SphXKeWNjAjJU7ya1oI8xcyNJD1+navIUwAcTYeoJEDiqhDk9LDYP6ptIZrqMtIoXGyCxGBKfijDbxQkYOvzLVEpz0+Or6P9h7+McGXNJJb7NPYP/Z86zeuBtTepNqoJTUg7BilAXIY1qY+ogPlsXdgKgRgNAJjbSe0PgWgpNqlUyMSMV83fC2FSqWjvr/pgYC9fWE6SqITiogSperXI41ciMaeoRMjaWqdyTIVPA5fVeYUF83pGFTNWVaSvC1CGW/UjmUelhr8TM2oNU1/k0jSNTjdRVqByuLhL+5VCmFi/yMl9XNCvNLcuKTWIOfRIlJnWh1rYi7s9ac/RS4HtM8/GsXky8Dl9Dh42P7Eh0XQmisnpAkKewX4yfXVkRuxUHbKBJH+QQmDVJ+ab6GYoKs0hRsx1/6lXS5SvlC+cRZigg25hCmr8RPZ1fRm4cAR1IOwbZqKsbMZfzkZcxZu5fu23doHTwNL32V2gRJejIwqZTgRGmCLsErWaSNitHqSwjRC0BJv5ZsEO3KK0+ASyKrABFGUKLJbuUKt2C22x1AHAJesDp4ztZCRkQJ6z1s3P8XDZ/+83/npT7PsM/jX2n2T6E0phRjZB4J+hK0KYXE6XLQpJQSqSsm2lBCkDkfrSWHKGs+UYZcgg15eNlKCDAUEKQrJERvJySpEm1COdpEuzoOf105vQxD8UmsIyTJQZi+Vm0qvc31eNnqVR1KXLn9rUVobCIpVUCwsYQgawWjlu+lashQNH3tJMW00Tullj5mJzFxjcqCqJe5gmfMzfw/6c380laDl6mcf8xy8Xw/+ay/Qxbujw64TNWYS8ax/ehJtu85SsrANiU742stVmrQjxO4BBT8LSKU2aOULcKa+hrV1xUgwpdK3FMEPv90hCS2EZzUpKJC5ZBslZ2ik8CkwWgThyqlezFl8zUXKbM2oaKK5I6XuUH12Uhq5WuHqVhFWKLJ9kjWxttShae1Bg+biHS6VC+G9GP8tUO8wMQTzC1vI4+iuC3Njg34G5oIjZqCNmYwYWY7WlOOisS0BhdB+jr1nf7aBfbp6x9PlPpHwBWRRGxUDBExWsRIMjQxX/mqyeZH/Kpk4ddYxQVc/Noq8FSyQzU9ZqJSR5EMgKhrVKu/eRmLCdANIjhRmtYdSiDWwyS0dWnAraJq8lJWbz/Kku3HaZo6gyhjHh7J9aqVwlf6BHUieySZhjJeMOfT25iLJqlYCchq9G5RWX+xVhFgVcAl50icrt0SS+LsIOK47mhLwEtArRgPa7kySk1OGEhLmJ6FwV6s1PpxyNuH137myZVfeXHkmSB2PefDem8vdv2iN+s9PNjZS8OG3r6s8PFmob8Pi/28WejjzyRNEEOCgqkJj8AV0xdXZAKusATqIhJxRSbijIrHEdWX+ogEWkPjGBIcR0OIjsLINMxxgwhPkvVJDGPL8DEV4GOUXkdxXRcLlkoCbVVEJ5XzgsmFl1k2yGX0Ti4hIcGBt9XFcylV9LHU8PN0h1KDD4t30Ntah0dKNSG6Hyhl/XFu3L4NuIQxpoQolS6XdJeLY67ImLgtQZ7EQiMGdoNck+i+dpuhY2cRphOFaXHEFWkVyfU+vnyv7AqVHI16LHK7HJsL8bEU4Gsp6rGEcNs9uO0hvniukcY+sxSMK+ljdeChmoPteCbn4y3RYtIQAnRC8hAPMfcO00epYzvdTEYRvv2GIZPcxyLRkKgMSPQlO1hR75bzUoyXTXaLf/3wFhdlpVEndiHiyeS2PlfiqaZy+lgL6G0dpIaXFJUtTnxMLrd/k6huP86J+/S9/+Lzq2pcCXqlDh8dkfS5rYmkCkPjhWBQhI9R5mYZGksJCQNcJGTVEpnqwtNUq6KrMEMxnqYKeovGn8wrebTWk5jfhjmnStWa/Q0uXrA4ecHsIEDJR0lkVUqErhiNzIeUHKJ1xXhb6+gtliWilq6rIFTnblbubbGjSSlDn+nC0N9FuJiUGiSTIoAq2oMOAsQdWyeLvcPtBm6uxUcMI8VdWyScLOXEWQpJsuURmlahFv2EwsEMKKwh1liBTl/EkkAtG/zC2O0ZwOneoRzq7cu55704GhzOPb2RazGhvBQfxh19OBf9Pbjy/PPc6uXFjed9uN7rGV59/nle7fU8b3k9w5u9PLnbuw+vefwrt3r34c4LP+ONZ/8Hd5/9Zy709lCfscA3nPZAA4aEQrx0dnobS1TEFCgbU2UVU6s2qdFxQ/AwVODRv4600npMJbXK+8/DJhsJOcflBOqLiEwswaqrI8zSQHhGNRHGQT3q/eKXJga0At7uaFRtotXzx7MpemL3+LcBV4BpgPLgcRvwSY9EAb6yUMsORyzkn8DiEWQup7JpDCevvE5Nxyw0+nw0Snizosdm/u8w3/sErsOTuPZPP/NvW3wEuLRJRsLiwpVyhmgVSsQlWoWh8UXKi0vUygMznDhHT2flxq2s3bxLSXIFZw4mo3IwpXl1eFgdPJtcT6SphGBzEYkDOhm9cCtjJk8hyFCFSCN5m2vpYy1RRqTKksRsJzahFO/kEnzS7ST2LUOrr1AbOI2+hJiMWvLLWzFk1xEyYCiO0UtYtG4PS9Zvo3HYeOJSxUJFRGwbCTA2oEmSCMPteyUu4hqzRHdOxFQ2wFpNfMFgnKMX0DFxHi3DZ2MsGUfnmq0sXb6G5IwReKcUEWguIEzXglGfSnpfOzrdIDIMyWTbO9jRtZ1pI6YydcIcdixbTMWAAspiTQyNMDM6OIW2KB2dIcmsKW3klaljmB2fS3tUJiOiw2mKyKM5Oo1R4TG0R+ioihlAaVwWefH90esqCDaWoZXI0ubAx+pSijj+5lwi9FU8b6nDw9SK1jAQXc4I5m/fyuQFK9Aa65RIgEZfj5+xDq2xkIj0atonrqGsdSlT5m9Gn1VIsFHev7JHbku0IwXo3fV/8ST8yd073wpcEraLurIq/ovzbxF+MmSHozxh/rYb6bucxNjMRuav28+BF19lkGM0geKPJfIq5qfA9V3O69P/+/3P5e/rnEuqMERvJiIhkrhoA3HRcUT3DSEi3qjYa6It2MdUQ//m6Ry8epcDJ88wc+EKOiYvwWQfy/r93WxcuonIgY1os1tJGehQWoL9ikbTOmUZre3t9E2VKKmWpLw2TKWNGFMl6i8iNKWCAQMb0ZU2EFfsIjNVXLdLVGQUmmynZvg8du4/Tm3HZBJLhtEweSUTFm/kwNnLHDxzgf7l7lKAn/jDiRq9TkhQhWj1ucobT7QMJQUn6TZfcwXJzvHM2drN+oPnmLt6P+m1s5h/+DRHjx6lyjEbo70ez8wSnrc0EZ41kOS8dnTlbUT0y8DQNpkDl19h3tRtblbhiYvoygejTS/GWFiHrXQo4bl2NIZC2pds45WP3yW3egLGilHEZWfRy1zHCwNbSCqqRVfSjGZAK5FZDZhyGogvHIehsJ341EI8LVUEJZeTnFNNSnEr8SI4YHUS1M9BRnE1xXULOXnjFTbvPEp8ahMJOS4irQ7C05rRZTuIH1TH1iM3GTH3IGduvIc1r4qYNBeGQUN6zD57Iq/PgevxZaG+rzn8J5/zbcDlbyxSzDYxUZMajnIsVc6gIu//ZHxaItJqcQybQ+WQ6cSmi+BnsUoVSn5e2SM8ZbP99HZXTyPK73RNRR0+WG8iIjGKvjFG+sa4gSs83kh4opAE3H1S2UPnceLWW+w9doqqujYSUgtpnLaRBx/9hoe3HtA+Yx2109ay//BZlm85xPBpmxm3tIuxkybiGjqL9TuOsmp3N9uOn2HOrIUY85w0TlzC3l2nWX7wBGtPn2fRjHWEioiypZi+ObVsOHKJDz/+mC37jpDmGk1YeilxA8tZtn0/p6/eJMcxtCejIjYplRQ2T6N2xFyaR0+ndth0cl1j0BhKeupuFYQNaCKzcRIFbeMZWDOMmNxOFh47zZ3bN9mz+wpd3eeoa59KvLmV2QuXs2PzBdbsOMfEiQvp3zSbY5dvMXvOOmau2sXu7m76tw6nZd5ylu3vZt2xy8zdvJnM3BomLVnHR799yJatZ9l89DJzls5En93MqDlb2LP/GItWb8LeOZVhk2eze9cu1u04wrbD5xk7fRqxA5tonrCAjTv3sGnPOWYvnE1kRj0ds5ay/8RRtu+/xe23P2LHjhNUN85i9trN5FV1UjpkDrPW7iC9ppOqtmn0s0+ibvh8Ivvl0zB+Jct3XyA6oxa/JClpSGmnWmmG+v0U6fLfBlx+xmL89E40hmb8RRhVajtGqcdUEKD7My6kj2mxkXy31lhEkKmEQGX9LTYHPf4+4vHzFLi+0yL3Jzubx3Qdn37O9xfhKeDSmQhPiCQ2Wk9CbDyxCWFK8iksoYAAQ5mKuMKz2xi9cBOXXr7LuSu3GDd3NcWdC7j//ifcOnmO4sbRTN94hPff/w1jZy2jfuQSNp++RNeW7UyYu4mrt+8xb812ZWB66fQpqjsnsP/SKxzcfZK2adO59tEHnNjVTaRpEP7mAsIzq5i0fCsP332bRStX03dQDZEZRbROX8TJ67dZvH4L+gFynorR2BwEWCooHTydwZOX0D5hOoPHzaK4YSwhZqmRleNrqUTaTnysdgJsBSqdGZjewrxjp7h+7QIzp27k3L0HbNi0m/qWhTz44B1WrdzPmp3dnL/4MqUTVnHw+i2mLl3DjA07OXC6mxFzl3P8xZfpWrOPhdO7uH7nNaZPXc6MxRv47N/eZ+r4NWzed5F7925SVDWG7gu3eeXmdUZOmUJ64xDm7tjG2VsXGbZoEZsOn+L8lbPUj19J94177Ny7k2Vr9vPmO7coGzyHS/fus3v/diZN387Lr7/L7p2n6Bi1nDPXr9LcOYmh01Zx9PJN8pvHEC6q/aY6QpWrci4FzRNpm7qKyPRq/PUShQqRxl3SkQzZT+5++1bgMhcrgzSNsZHItCZMhc0Em4UmK3TZJ1VLEhVosf12KzF/YRvudgh9Clzf34L4k7sZfqIg/SjiCo93A5fQ4WN7tArDEgsIMJbSx1SNj82pLHKqGoaw90g3Z19+ncymWVx49QHdW3cRaclh/Kq9XL12j+S8atLKRtF16hJrNu5izOxNnLh4iYq2cUxesIaL57oZu3gt5++/x8zJCzDkDODk7Ruc2HWK0KQsAmzFBKVVUjl8Fq++9hpDRo4nekAVoxas4cD5a0xfuo6sYgfhst6IDp9ZnBKqGTpzA6v2nGb5tr0s3ryf5nFLCBYikpASzFX4WmSU428tJtBYgiZ9MHOPnOH40UMUF4xg14Vr7Np/iFHTN/Lu//mU5ZsOsXT3UXYdPkLZzNXsv/Ey0+euZcbyHRw81s2s1ds4/dIdBrdPJntQo9JWXNl1gMlrtnP/04f0G9jM8Plbef3910kpaad13nqOXL7GxlOXcM7ayLytx9l/5DwDy4Yzc8kWrt++wcyuo9x+/zccOnYUea8z547TPmsjr330GZOnTyQrfxTdV2+xZeshBo9YxOkrV2kbNomOqcs4dukaeU2jCdHn4yfsXb2cmxKCrblEp5ehFZKY2tAL+1NSqGJ8+XcGXF6mPGV1HWiuJ8s5ia2nrzJ28ToirSIK++Ts1d2OqeKaWqEovF8GL/+/N7HJn+hi+xQU/+s2IFLjCkoyEtqjDi90+MjYIKVVGJbgJjcJcKXUzqRzVhfjpi3k6OmLvHT/If2a5nL06m0uHz1LXsMoJnYd5vzVu8RnVWAuHc360y+xqusgY+fv4eCFS5QMnsqYBVs5d+Ei9ZPmcerVN9m/8yjjF83j7qcfcnLHKcIMOfjIpthSTumweVy/+4CZyzbinLic7pv3uXXvDVZv2k3nhIWYshvdajgmFz76clyjljJuwWbGLVnP8LnrqGyfp9i8Ylwp9jyKWSymkqpNxE5Q/+HMP3aJQwePMChnNFvP3eTQ7uPUNs3lrT98yNqtxxk7exWTx09lUMcMjly7qVKFc1fs5vDxU3TOWcLBqy+zePtuRi9fx/X7D5k4dhXTFu/hwbufkJY+nJHT9vDW2++QWTSSitnTmbvZrXg/Y/thVmzdze0b15i3YCUHui9w5OwlasYv5OzdhxzuPs+UxatZuHQtqY6RXHvwGdv37WHqksNcefttNu06QH3HPF68+RpdW4+y+eB5JSdV0DwWYXn66puVm4O3uZJMxxCaJi1SYggaY6EyzPRTEZe0hTZI6wAAIABJREFUDfydAZePNU/1EMmEiM0Sr54dHLx8g9TCRoJVc+B/3c311yxUYignStHKYvuPwEvo2n9nml1Pgeunlwb5L76mEnEF9E0iKCpYGUmKcsYjyafQhDwCTMV4mmuw1Exj8fYznH3pFY6fe4n2yXPwH9BOy7Ql3Ll8m855m2iYs5G1244Tk1VD5MB2Rq7cypipq6kevpKZ6zaRWTcR55g1LF23hXRnO40TF/LiyatsOXqYe7/+mMNbjhGiG6S83gJsNZjso1i9/RgbD11m2JJ9bD18jnNnznH42HmWdx0jo2SkKlMEmBvUAhzZr4YwUyER/UuJSC9X0ZhvojAPHe56vOo1lGxQKSHCRkzpoGXpNhYvXkNW1limbjzCovmbSOrXwvCl8zh6+T67zlxjwvgZGKpHMnfnQRpGr6B+0nrmrNhKv8p2mictZtepl9h/4Q5TVq0iOauSitFz2HamG+OAIVSOXsH2I7vJKBnB8q7TXDn7Mrt2nKOydQEruo7w+oO3OXzlJltPSX1tChHZVTRPWcnhM7c4cPEy85bsws9WxLBpmzl16Qpr9l9nxaHdTJy/gPSiThZvPMjR7pfp2nuGVVv3kFExmFCdAFcrAbo6pd4xd+tBVh04hXdSJr7SIK767STi+jsELm9DNSHiYipeTemdjJ4nO6nLpJc68JYGw//iG+zp+z2ZjcDT8/7TPu8BCRVo4hIJiggiLDiW8JAwQiP8CY5MIFiAyywKFS601iZiMptIHFRP/MAmwmzNyro+MqUSw8AmIjNqCUurIyqzEX+ruGg7CE93EZ5WTki/aiLTGwlOdhGaWkd0WhtBFhf5DVOobh3LlAVLePvTXzNq2hJCpKfRKPUoSem5iMhoI2ZAKxEZTmIznSRkNZGQOZjYjEaCLTVuNRzZkEovodSyjAV4pBTgY64hQCc0cadS4hBDzCC9qL24CDCIyoyQE1wEpzURldZAsMlJVHo9UemVytxUa6sgadBwYrPaiEwVOn0pERnlhPerIjCtheCMTgItdcSkVJM00EXsoCbCU6XPshzf1FZCBg4l3FRCTEoZsVl1aG019M1yEJI/goiBTcRl1zOr6xBHTp3B3jKC2P5thKQ04yGSaakudJnDsfQfRUxyPT7GXAL7VZCc0YJ/djuarAbM4sVnrSA4s42+AzoIzxpCREYLQdZqtNLPJs7W+nJCrLWsP30R1/h1BNsa1PkRv7MAiciMLjSmYkWXD7FUo5HGcr2YetbgY3TibZAGbrecljR4f3VI/6awtqWGKKazEjS4zWcr0BjLCZJIV9oTDCUEWEvwsxar5mkP+QxLLYGmMgItFXjpyvBT3n9C6pNNhjAdRUqugWdTankuxYG3RVodqolKqCE63qkeQ3Viciv9gOIhWM0LNhcvWBuUsPo/fEkQ/o+eeusdhOqlkbUW39RhtE1ay8VLVylq6FAmg08XvJ/2gvf0+v40rm+o0Yl/TDzacC2xUTqiwiMJi9IQHJVAUIIw/ETFpcdM1FSB1lZCsK1SFf8DxXFB3IVFkUJScCrbUa2kzwQ41BxRKhkixyTpup4hUmOWRqauOc65uw+5cu8hM5d1EWXLQ2Mow1dfjZelHBHFlQVUGmzFhVkipQBDZY90W08TrdRqvry4msvwSClVPWOyOPurpvcy/CwlbhUZvRyLiCRUu9/fJO8vfadVbsk0s7seLj5kIiEl7sneEsEYStFaRIuzWKlX9DG3EGCqJcxUhlaULmzi2m3H31CBp7WZPsY6lXkKMxQq1Rofk5MgYwm9bK301lcR2b+BCcv2sWbzQVJLhhBirVffy8dchDa5klBTI9q4ekJNTgKshfQxDCIysZJeqU14JDvomyDswDL6WOrwM0hkJY3IomZTTaD0rRmkLakSjdlJaEY+QTYXvrLQWwRo5BwKcDndcnACJOLkbK5Ga6lCa6lBa3YQbHM3botiytcN2SgEGgW8hKVYpa6/PCojUCHKGRxohXFurHQ3sZvcCic+OpkzLoKkqdxUTnCKiwCrqAs5ehzXq4lIrCQyyU6AqZQ+KUV4phTinVyIyON5Jhep33mkyKP7d6I4FCiRtL6cIEMF3wxcxho3cJmkG76J9LIOXnrpOit2HCWkf93TiOtpxPl0DvwI5kCQroaQJCPhseFERySibE2iAj8HLlnwZUGRdJsIKIt8V5ApnxBzNYFG2aW7wchtUupQDbGiufk5cAmDTeSYFLgJODjcWRprI76yyBqKCbXkE2wapPouPRNk912vRHZFaFeGe9F8pMjziPglYCZu3BIRVPa83i3O622V6KAOP2OTknrTmIvQmKWnU5ptHUppw1cBVw0+php8lTSUAGAVXvGVBFmcSsBXYylAaysmtF8NfroqgkzVBJoLlQqMp7kRjamGEH0BgYZc+ojvV2KOilr6iJ2SoUaBeqgqmzjwMDcSlFCIp6mJAGszfomVaEWpXleIv07cysVdIpdwSw4BCQPxTbDjr6JDOU6JfLOJMNbwjFHMX+3EJJagFQ1Hi0QpsuhLZOzeIAhZxddUg7fBqdThA5PzCU524quXxmNhWkvEWas2EuJu7WcRBZ56fEUL1VSoMmnBSaWE6gYp8Jbz8nVDmpeF+CJDJOXcG5NHv6vAN76cAJ1TScPJNZQNgNZUjlZXTIhOgp4i/KQepxPJKwEzd3O0zCm/nusn4uRR8fXE9K0nIrEerb5efdewxEZkhPaIl4vmaqCuWblnyLH9GeAqRqxEfFLbaJmwgosXr5Fb04nnj+CGfRox/DQihqfX8btdx2C9A228jtDoUGIik4gICe9JFcYTlJinnAr8TTUEmmswFTbhHDmFIZMXUVI/idBk1+dRlKSIFHj1pItETkgWowCD7OIrCbbZCTSLtZDTnd4xioN3JcorKzEfP52bNBAg/nkG0bwUTU8Rhi50p6gEcCT6Mgnxqtjd2qJSVEUqIpPfi7yayJCJzJvocPqY6wixVRFhySfElKMIH95mAS4BQTlvbpkyFVmpqKISrbGRIJOD2MwaJq/eRk7jCHx1eWh0NUo7Mcich4+lCm+LkyBLObG2AsLMOZSNms+MRZuI6y/1Nqfy4pIFWOr9Epl6WFswpVeR2zSXxLzhhJgqiDKVEaovxdtQS1xWA/UdkyioqCPGItqedvxsDUr2qWXqakbPW6EarD2tkkItIVwWf2OeovnLGhxmE+HfIhVx+Si9SAF8kYsqx89QiG+SyN+VEyisa5Xik0ZkSfGV4iUbDWMTwckOBjo6yHeMp6pxFikDRXtV0q894P6VR0kpSspVCVGIpuLnEbi7yTki2UmYrVrV1JLy26gevYj2GWsobxxFvGUQ/cqHk+UYS6D4GOoKCTKK4a9ovco1FvmwKiITq4lOcBAqAKiuv5Bs5HOdiPZpiM5FaJL7UaI72WTJXPxW4ApMyCXQUo13v2aGzVzP5cs3SCtsxlsYPE/B6+k5eDoHfvBzQIDLPyaBwLBAoiMTET+ukHA/giLj0cTn4iWuAsZqUssnsOvsLV5++AEXb73GniOXMeUNIdhajZ+uRPUHyUIuUUCgqYiw5DIibRWEm0UUYBGjF6zHkteCJr6MYGMREf1kwbPjEy+UdlGdL0GjLyUyTWpQ5QSbHYQkFxBoG4CfoQB/vTsl5iepLks24SmVhNrsaC0DCTRJlCRitDn46iqJMZeitVURNaiVGWsOMmTEdPpaBuGfXE5viTbEodhmV71cIeZCgs2icC/vaydUX02kuQJjdg37zt+gYcxMwk35xNgchOtKibLkulmJ/aqpGzOfKQtWkVbgYPyKrZy9cANLUacC6ghDASEpTkJ0/z977/0WVZ6ue/8H7/lhnzOhuw3knBQVCVVQVSRRxIQIVFFQRZElGQgqCpjFhBhARRRzwIwBRQUkqCCYM8ZuO3fPnJmz93ve6/PuZ5XOzA7j3udM75ne1/aHdVVRVK2q9V1rfe/v8zz3c9/T8Aqahv24AvJLF9N06QaTMhaRt2gDFavqCJxoITRtGZuOdzD41Q/U1jUQHq3HWWfgl+pkpfesasdpDp86i5ukaEPj8dBOZYTOgI96Ii6aBCZlLGVF3U6mZ5fgIulBSZuJtJYmA+eQKbirDYwIM+ITqsczxIC7Oh5PTRwewTPwCkvCRZeMW0geUzIqaTx7iaLF9TQc6KJ29yECJufgIMr/4j6hRFZWFwp7hTmegp3KjH2gqPUnKcDjJqAYbFBqneU1+8hZsJoRkYmU1R6mqfs2Xfef8urbbykoLiatbBOneh4THp+Ph3oaXqKmoklS9uUYHIt7cAy+qml4Bc9geEQi/z1yOp+GTsVdO51fjYtlSLjIDMYrKVgvjfQRT2V4SDS22ml/HrhEvNJblDI0SXhMncuq+hO0XuwkYnoBdhqRYPnLVoIfP/9x/D5eA//x14CkCl38AhXg0qgi0QZrcfeyV8gZrgFxDA82YKsyY5m3lcu3B1lVu41JM5LQhccx2VxKWmk1Xpp4IhMLyJ6/hrBp6STNXEDq7IUYcyuIS13O7pPdXLx5i+x5awibOov4rGJS51RgzC/Hf3wSE5LmkL2gmqS8xeSWrSEhq4zkvLVkzF/MuJRkPHRxuKiycQzKZGxsNoY5xWQUrcQ0q5IIvQG/iFQyStcTEpfAqLAMZs1eTrihkJzV2+l79pamA83MiJf0o15Rhg/T55NatJyMuYvJKV6CPnseY6ONzMhfTObc5RSWrWVcbBpzK6qJjs9mkn4mefNWYZo5n8y55UzKmEeUeS7HL1+ju2+A7DnzWNN4lM7uXiJSFpCxoIaM/PkkFVWTX7KUiZP1jJ5RROOJZlZv20lU6izOdA1wtfsGxsLFxBdvYNneZnofv6L2H/vbQsNFnDuRX0akKVYwGbNWMHt2Hl7RqViKF5NdXIGltApz9iwiE7JZtescNx8/YEVtAyFTCohJK8RcUkH67HVEzZiBb0gqBeXVpBSUk1G0jknJReQtWkVKQQU581czNXUOY8PzWbX9KDtOnSR8eiFJMzfT0veAGEuZEgUFTs5TQDlcX0q4YR6qqQW4hCTjGTkTzYwSxumLmZRSSnhCIV7hycQWrKT73iCnWq8yxVJI0LQ0RoxPJDo5k6dffM62nfUETs3kQGsfyzbvRx1lICFjPmFx+XjqUhimycZjTBFpHqtYOXwT6z+tpdpmG3XDa2n4Hxuo+1U1tb/cQM0nm1lms4V8l2pivJcQ4L9AsWn6YMTlHhSrhPParJUcuNBL9fo6fLVJ2Cih/n/8TfdxYvs4xh+vgb/sGpCIy37kGNxHuOPpNorRI0fjNcIJZ6/ROPvHYSNsseAMxdF418k2+h8/Ze/BI2RlFVFWVc+jr35HtD6bmoYmum8/IWfOAu4+fcWFq91Ubd5L8aJddA4849bzh6zfvo+a7c303HvIqUut3HnynEVVG1mxsZFX3/+O461d9D96yuDbbzlz+T7XHj7kaHsLY8bF4zQ2g5ERcymrPUjr7V6azl2l584T9p46zPTkUm49/ZrFNWsICEvj8d1BFtfuYsWhY7z67jf0XuqhOL/S6ikWZWZR9U7uPP+SS5036LwxwM37z0gtKONYRz9PPn9DS0cXM2cvYfD1/6R8WT0r1tXz9ocfudzdQ8eNOxy+dI2Stdu4euseg6+eU1O3lW2Hm+lo7yAmaxndT77m2eArao608+XX39G4rY4Iy0Kau/vIKinDWLSM/mevePbsGRU1uxkZk43npBSOX+2jrmYXGu10PlPP4BfjMxgSoufEmWsM9F4hMqOUwa++p3fgHsc773Kjr5+l1Q1sO97N87cvOHTmLAVldVzsvcWZjk5u9D3nSvtpElKW8/mP/x/9T99w6HQXNfXHefHt97R0DtDd/5CWy12kpK1i+4EzrNpRx+hxGQRMLOdY72MKl21jVEQyy7eeZPeZmzQ297KruY95a/bhFBRHaMpitp++zZ6z/ew/28umAxeJTptP0caDPH/7A/ceDDJ74XpGRiQTMDWbZVv28ejVF+TNnaukYys3H+D4peskmGdTu/s0BeWb8dQlYxOQTdiYZdSOOkSPcws37S5xzfEiN+3P83jYGW45NnPL8Rx9The54tHKQb+zLA85SIp6A2P9Cj4UcZkVU0AJr50nZKOamoF/cDQu/lOxVeimErqJ1YnVNltyysJyEV8eJX8tFh7qdGsHe7A4/KYrmmIOarkRJb8tbCarKZyV3WNQcptimyKsFaFuOqkkHyq5VdEllFyqtWDrEpL6jtKZjBgwuglTSQp+7wzmrLL+8l5RlpaCrdXyRAqazhoxbJTvNVh9sIJFzkqPo1JkNSiGefJ/5bgUiqjQPeXYJL+aoFh8iDeVtSD9zuZFOSarf5D0UDipk97Jrlj7ypzUQulMxjUkHtEOk9yxa7BBsRsXdpDdexuCYBMuwdKCIIVN6/hYvZGshWvrscjxyPjJOH7sW/sIbB8GNs/gdBx8/ZSIy91lJN7uXnh4O+LmI6nCGYrck9ybUhIYn1xA9Y5Gbt17yLWeAQwzl9Dz4BUbtu+is/c2W/ccY7pxJpev3eR0ayvzlqxhUlwhG7bu59iFMxjS8th//DK9D+5Sv6+Ry92dbGrYy7q6/Tz+/Bsmzkhi0/ZGHjx/zlTjPGr2HOXijU7UMSa8glIJmVrKtjM91B3ey7iYJNZuauDanV5SMyu4/fgrVm5aS0h4Ki+evqSiehPR6VncejzIxlU1BI6OwEOnxyXCSHlNA62d18nMzmFu6XzuPXlB/oJltHT3097Vhio8grApyTx683vKl+xgzboGBh49JHtuAcvXb+FM5wBJefPYdeQ4LZcvMd1gZPXWXbS1XSI6cznXn35JU9M+XLQGrvff4fzxRmLzlnGp/wGm7CICYzPZdPAUx4+fJHSK1I8S8JiaxtH2Aeo3HSQ0wmpFNGyclFwSONp8g1t9V5iUU8bDF6+oWreBhILFXL56jQUrNlG0ooEbN2+QV1TCvMqt9D16RuOhw5w40UZ//1WmmasY/O53rKlvZGxECovXNnLr8RPM+QtYVFVLd3cPc4q2svfIBZasX8PIiHS8xy9kZ/sAS2oPMCo0jrSiFZSs3EZBxUbmLqslKa8cV9VUxkyeQ96yXcprRUs3kDlvBcFxOQTri7hy7R4bNu1AE6UnPC6f9Xsu0HFnkMVrthCgjcQnKpl5axpo6bxD2EQ9qoh4RofqcRd2ZnACfgHxTBttIX5ULuGBuWT4L6Z4zCpix2QwNiyNYE0mEUEziR47k8hRaQT5JjDSb6pCmPmzEZfVDlvUKUROJQnXUD0jowz4TzTgF23AJ2IG7iGTlEKqKB7bCXCpTNiG5CkTq11oEsMmLGXCjDRGSM5SOxfbkAQcVSk4aSy46KbjrJEin7gYG7HXTMdBN1NhLYnauxTwXAONeKpT8VKn4y729Oo07HVmPDWZOITkMFSbwtiIeDThidgGZ2CrSlMsFpxFwT4kDTtNulLAFEsAh+As7MMLGDMpntE6M6OjxH9oJmMmLSAiPguvcHFbFRO7JNzFekFrZEhYEsN1YhdgwT6wBGddtCIQ6qguwEVMJUOnK5YKwmRy0CbjLCAfnKiAtWjAKX0nGhMugek4T8tkWrIZ96g8pVDqq45VLA5cgnIYqrEoDCbP8Bz8I5LwjUxiVEQi7uKTJGydEBNCtxUmjqN4JEnxUqH1CtPowxPXx///1x4fpcbla6XDe7j64u3hrURcHr4BuAYYGKZJt95HhtnE5JUxNbOAnQebuH37HhMt69h84Ax3n/Tz9OUz4iwV+McUUbR2J81dXVy7+4DC+UtYV7eHc239ZBZW0NjUTO+DR2zZc4Sa3TtJzV/Iyg1HefDmG0KiE6jafIRrj+4TkphJZf0lWrtvEmMsIyl7PnHZC9hwrIs9zedJz69kx/5mWjp7MFjm0ffgCzY37iKzcDnPv/qBZdW1TDGk0Xv/OZt3NjE+NhVjRjFTzEUs2rqf7pv9LFu2mNVbarl2ZxB94XzOX+nhzIHT+GnG4zPVwM2vf8eSFQ2sXVFP370nxGXlUbaqjrNXb2HIKmHz7qO0dA+QnDuXml0HaL9+hXDTKvqevuLAofXKXNfSd4fjJ7YwwVLB5Ru3mZW3XEmRLT90iubLPcRZZuMQYcBtRjrHr/ZTu/EwIdEpjIgxkF6yCv+IBHa29NB3+xrTMuZx++ljKlavYUb+Spo7b1K8opZZS+rp6H9M6fINlK7YSM+DF+w+0cL6rXtYsbaOiJRyXv3utxSsWYHdhFRmr9nP7YeDTEpfSO7qRtp6bpBRVMueA61s3rCVsZEZjJw2n6auXuat3cLoyGks37afQ5eusau5jQMXu1m4oV6xWQlPqqT+xA0OnOvg0LmLbGg8wkRTKZr4BZzpfsDm3YeI0ZtZs3UXT7/6geode0nKLiQiNgmf8Sks3nKIU5f6iJxoZMK0dILGm3ENMWCjSbPWzVRGxZB3SKiBU3aN9Nu0KSWqD89bxj8fcdmoknHSSdSShHuYkbiZ5SzdvJvqhv2s3XmYxPxKfHSxBMdm4DdZOPuJuGrFcNCCFNLsQ6YwZX4T+4+dYVxcOr/SFLwzXBSwMuGqm4FDqPj3zMFOl6bolzlq07HXpWErfQFqMUWTfgWh6ooivQkHtRHnML21GBmdS3TeYpZtrKNs4TJGRlmwVwtrSNgqVvqmVQJGoiMBhgy0SYup3LyV9LyVLKiqRT21mNyFe9i25wgxKcUKW8VDJHJUFuy0FoaGp2Gry8BV0QWbj2vYVFx0BlyCCnDTmXANjcdVToAmC3sZKwG5UDG0S8YuWPpUUrAVnbUAExPnVnLu0gVCjWVKf8jIoBiGhFsQrx27kCQ8dSam5awhb8FaMsvWkbVgDf4TxLk4ASd1ghKBOqul4C29EOZ3wPW3k9768IX1Xxssfk5j4xpoxmGkn9KA7O0xBi+JuHwc8RgpDch6bIMt2ISkEJO/kqpDl9h2qp0Tl29Qt+MIY2LmMC2jmG9+8w0t7e2MDrcwLmUl6/Zfov7YWRqOnWd62lzyytZz8spdyqp2Mbuymj2nW2k42sLGvYeZkjKXuZW7ONN5l6DxRoqW1HPkcicB07MoWH2UxuOXMeZXs/XgZTLLNpE0bxM7m9toPN7NkZZeSlZsQDU+lS37znP6ai+b91yite8psxfXoJmcws5jl2hq7WNBVT2b9jRTtn43i2r3cefxIK2tlzl5pYtNu5vR6HNoOHyehtqD+Gom4z3VxNHep8wu3cS8kg0cu9DFBFMeM8s2UnfoMhMMhcxavJETHbeYv2Yby7fuZ8+x46gSl9N0uZcNtauw182m/mQHW7avRR0/j30tHaxa0Yh/lIVZVVtpudJP2fIdjBmfi39MDk0Hu9m++AAxoanok+fT1fGC+MkF7Gy4QPfRDszTl3D9VD9Vs9eTY1hLy95uluRvIit1DU0nemnc105eQRWNuy7QfPI6R/ZcpqxwLabxi3h5/QVFxUtwi0wja+FWzp3rYEpyKZaKWradbCYys4I1DUfZe/AYEbG5TE5dqogLx2eX46kzoIkrIDKpmChjKVHJpQRPy1NMRt3C0ghNKCLaOJeJhkLC43IZGZnKqIl5rN11iiMXu8mev4zdp1ppG3jE1kPN7Dpxgax5y/Gflkn9yXZqdh5nurGAtXWHic+sVMgdQvNXCB/vgGtoqIEzDnu4bd+Bj+bfErj4N4DLUStprUR0CQUcvniN6/eesPdIE7uOnCZ7/nomm+ZQs6uJ3PlLGBURi0doHG7aGfiHTccncjLj8+rY0bib6BnJDA/PxzMyHi9xRdXp8dYIQ8TMLzSF2IemMSI8HnetgKSAmvRvJGOjlkeT4t/jFqbHe5wBr8gZ+ITMIC5/JQd77vL8yy85c+IkEdMzrXRQoWyGSL+C4Z0/jVEBMteQVAyzaxl49YaV6w5zrvs245MWsnLzOfoG7pA2ayleEen4qJPxDJQ0ohH7cAseEen4Cvj4F+AWHot3eALewTl4RVpw103BJTBRiTSlX8I90oRreDKK3bg0OIYYcQu34KcxkVm1nh9+eEN87mK8Qi0E6CbzSZhElum46+IYE5nMvPWH2X3iErVNF9l25CKRCbPx0cbjLQwhdQJuQWJGJ2lT0zvgsrKBfk4T5cff8vMCbSurcKxS4xLg8nTzxP0dq9BjrLAFrSl27wnZTJq5gplLGjDPXYd2UhYBsbMxzirnxZdfsmD5WoX67DdlHmkLtlG4ZAtRyXPw1CainpKHqWgjCXlVBMRkMMFUROGyrVhKVhEQnUn4jPno81cyIiyZiIQiZuQuwmt8OhpDOXHZiwmeVkz8zFWoYmfhHJrKpMxFzKyoJz53BX7RJjw0SWimF5JVXsPUjCXoC1YTljAX71ADManzmVmxhRm5lcRmL2SiuYSKzfu43NnH2uqtCklDEzsLt/EWpqbOR28oxjN4Bg6RRmJnrSNy6hwmTZtDYnYlfpPT0M6YTYylHN9xqQROySZp7mqmZpcTnVpKXPpsRkwsIyF3GZMNKdhp5zIpbRmxyal4ReazcMU2jhzoRB07i9EzsrEUrcKSupx4dRmrRm3m1sSr3Aw8wwmXnZwac4iXqQ845b2XmxGXeBjTyUnPczyZfJ2Oscc543WG+1GddI49yWnXw8rzN4n3uDDyEK2jj/C56S5fpT+mZexhDnj08HTyY86MOsYGt0b2jj9Co3EbU6NmEZJYwpTMUpxj0oifvZS9Jy6SVrKa5bXHaNp3Bt202YoepLQ1iNqJuzZdaXCW0owEGPbC5tMY8dSk4RGchocSBMiiPIHQxHyyF1Yz0TQHfUEllpIqzMUrMRWtJMZSTGzBUg5duUVidjnm/CXsONLOxOT5iiPBcMm6CVPxHXB9ptNzxnEvdxw6/7KIy1bpWJd6SiKTLfOU8PRS1w1SMzKJiJ7OJGMR63Y2M/j2e650dZFesoicpdVU1GwaeT1GAAAgAElEQVRjxfrtLN68lQnZ1WyvryNmejyGRY0s2baPRet2UbPjMPMWrWJ0dDre0xeQu6SeTdv2UVG9m/X1x0ifuxIvnaTyhNqqx3dCCguqt7NxX5NSeJ2qLyY2ezmr9p+jp/8u546dZEJspkKZ9Z2QQ6SxlBjzPCamFBOdUkpo/BzcQoxok5axon4vhqyVzFu7E9W0UlbWXeTJ4Asaj5xlXeNJFi7bRHh0IhHxmRStqWfdzqNsazjMmOAsMpavYcmWBipWH2LZrhPMXlGFbpKJMeMzyF6wWlnRSM44NmshPmGJTLGUsmrrEeoaTrP1fAvffvkAU0E52fM3s3bjdhynZKKNX8Ci6h2Y8iuIy1lKwcK1pC1YS3bZWsLiCpi7tJaCRRsIiDLjJSda6LBCW1VShR+B6yNQfhgoBbikxuXs6YSn6yi8BLi87HHz8cPdLx5nSd2rTThKfVoWiipRS5D6toXkss3sPtel3BuaGKFhSyNwhlJzdldJfdda45aaq2QBnLWpiqmrqFKI6ryoLrhJ35WoYQQJJVueG3CSerLOgpNG6svSyJuKtW4tRBHJ8ohSgyifG3HSyrVuFdQeHiA0cKugrr1aUvMmnLRGq1qENhGHkBm4ahOZW9XAoZOXiU/Ow1E9XWmKtglNwzkwAZ8AUcIwMkxjzYh4ispFkEkRDnfWWangSmZHaZYViaRE7OVYpV9LFYddcL5SI/dQTcIueJYC/J7qKTiGZBIyJYtZc2oJnlbE0NBEhoXOwDEwhcn+lTR676HL/jC9ww/TZ3eUq45NtLkdpcvhCH3DDnPBuYmL9ue47NzEZefDtDueps3pIG2O+zjvfIgTbvs47r6Po66NHHbdxQGPnezxbGCX1w4Oex7gpHM9+9y2sWnUXjb4NVLmvpzYEYsIGFvCaD+TUvIZOT6LlFlriZ5ZgbmyBqNpPt6hGdirZSGchrM2HdfQTOW5onKhTcVBl4iTqG2EZOManIdLcLbSGG4bIoohM3AUF/pgUaWXPjLxcJyBkzoO91ADEzIWYp63Ad/wZCJmFJKYs4KRkaK0YfwXqUIrcEnEdRWvYJEF+9B1/YGIy1ZSdRprJ3ZIXC67Tl3h9rPXHD/bQlnFcmJNc6hqPMfTr36k41o36fMraGjp5OXXwua5xaYDTRRvucTXX74mJzeXmuM3uf/5Nxw+e5WLPbe5e/M2hQtWkruqns6bj2hpvsjBCz28+eo31O9qYkxYgiLB4qozYJy9lFvP33DywiWWrttJQtJ8vLTpaIzzOHKmjXPHLzBuWq5ysJNzVrDp8EX2nOlkz+kO9jVfZdGGA3iIn1hkMaMmJTEyPJcR0RZ8ootYWtfKy7df0vyP6Yvz125abRbmzKZqy1au3ntM45HD7GvcjlqTwq6OTga//ordB1qUY71yq5fKqmoySlbT2nGNQ6dbOHaxk90nLysspr1Hz9F76yEHjnbRfP8h//PHQcz589nZ1M79x4OM0OcTl13FtXvPWFHTiHeYkZHS8BiZhO84I/7R2VTvvsDanWcImpiFa+DHiOvDF/SHLvb/mv8TOryj71icPJwUVqEAl6unHS7eY3D3m4GzEK0UmSVRvbA2fooElOgX6kylpC1Yz7jYPHy0SQrBaLhO0u5m3FUCMCIZJJto2P3Jo6LULgoY6QrhSmrWDmohZ4liQpJCdJIatOjd2YVkK5JC8rejyB8JoUqIXBqrxJT1uTSsCtEq451hrNR7Le++X1QfpBnXqrUnCzqtfi76zDLU4wVoJWuTzTBdBu5qqV9LJCGyVdbfK3+7i9+gqKlrrCSu92Quab79g4yVALMAuzpbkVtyUUuaPkeRy3ITUVtRsNcmMjIwFY8gaYI2YKvRMyowl9kjajjj1sQN55P0O57irsNpbricot3rNNfcTnF/2HGuuBynw/YE7S7HaHNuosvhKJ2uh2lz2keTUyObPeup8dzOGu+tlLlvIN9zLZYRq0kaVUWh51xWjyhnw+i1bArYyX6v/TQP28Nhp8NU+DYQpSrFTZWMS5AFt6BshkcmM2RCPK5BEphIY/mf22TBIJkjGZdMHNU5OAZnWf+W15UtSeFACA/iTzdpo3INFa1CyXzpkfGSBYNQ7KVfzEaT/k8iLqlxnXG0Apd3cML/PXDZqIxKjcteVk2hSUSbi1hWu5e2gYfcfviEyjVbmbmqkasPXrG2ro7AODPbznfw6s0T8uavIlSfRtmOLn74/ivy8/OoPd7HnaeD5JQsY17NPl48eMr2ht3sbG6h51ovRfnF6Bds4OHga3btPsTYCD2uOotS70qdV8MzBSD7WLx8A9HRaUqXuV/8XA6e7eT0yUuExhYyTJWEf2wB5uIVzCpfzZzyVeTPX0Zi9gKcA6YwLDgfR+laV6XhoNXjFT2XZXUXuHP/DqUVVZRVb+fes0GWr13D5j0HufP6S1o6OlmxtAyNWk9jVy+DX7zBaMhlWn4F1x/c4UzLJTbtPcfnX31NR99trt5+Qt/Tz9nZdI6Bh89p3HuQyYnzqdh3lN/95iXmvPnsOdbOoydPGZmYTXz2CgYeDrKyZjfOqkTc1NOxe9ew6aG1oE0oQZMwB69wIafIDfaxxvURvP79ICzA5TTa2oAsdHhPVw9cPWwVOryrX5zCTHUSBq9E8koNVcBLQEGIUIm4qBJxHyuCqqkKUWlomEw8JjxU1tqxMqkpBK53RC6Z5BR1A2HC5ljBRZqc1ZlWhQapfysTYDquii5gLs7ymsYKRqKNqEyOEmUpE2a2EnkpJDH1zD8+lxKCsllTnQooCntYwFSXgpsqDtegOIZrU7ENmckwXTqe6kRc1Bbl99mL1qLU2oNNuKqtxyLaiZIy+8MmjGNFFNYqiSXALrV26/+tArBSf5f3yL5sNUm4+aXgEiC16GQ81SkYxy6ixWYfbz65yivbfl7b3OTtJ728tu3njmMfT+1v8g9D7vCbT/v53X/r4Ydf9fH9J7389u96+HFIH999doMvP+ni5bBOXgy9yuDQDu7/+iK9vz7H1aHnaLNroevXp3j0dxcY/OwKA66tXPc5R/OIQywcW0NMQCVBAXNwCJmOs8qMm38uw8IS+GzcZNwCRT9RAFwWCf9ykzGXcy3H9qfgJn8rryufsVpM/and1B+eCwC9k6oSprdE1+8XAv9hwGUnlHBltWLELSIV35h0AqemkVu5np7+2xxqvkj+xiYu3n/Fko1b8J5sZsuZDp48vknY9CwcQmIo2d7Dd99+Rd7MHGqP9DBw9x6TkvPRL93F4/vP2Lv/AEcuXaajrRODPovggvXcevY5O3cfYVRkCvah2XwWnMPoKXNYULWT4+c6uNk/wNKlG3ENTmSMfrZSED3efInguFkMDU5mQuZithxp4diFq5xq7eDo+XbK1+7ANXAyNqps7FXjcQlIwT54OiOjZ1NVd4aBvquk5y8go7KWa4/eULmulqnpJZSu38fZrrvcffCALPNSdnYM8GDwJeNDExiXWsbNR4+5dLGb+sNXefLyDftPX2Tl9gMs3ryXldsOcPvZG9Zs2MIoXRZzdhzmu29fkJpfxv7j7Tx//oJAUwGmgtXcefycqpq9uKhlgpDWAblgZDKx4ByeiWNoOo66TOxkxfknrEKh9n+cxP/9k/h/xbGyNiAHKeQMAS6JuNw87XH1HoOrv6isW1XXRVFdVBmk9eT9ZGUjKaCgFFzGWLDzT2VoWApDw0TENVkBLuskJKk8MXY1WB+VFbX5XcpwprX9QxeHvTrrHXDFY68WjcE03INjGa7Jx1lknzQy+UuKUq7p7Hf7EpDIse5bUTzPe/c98l0ilmsFUYkalBYVYR2HZGAblq5Qrl3U0pCcrgCXRIo+KpGdElC2Ao2Ixwp7WWrG8pq91G9Upj9uitZiKi6iSyhEMUlpqq1CwCL75CoOxEprikSWRj7TJSmgJcAlhCsbbQrRIRU0uRzmi09a+cqmja/tOvjx08t8M6yNR05XeGl7mf/9iza+tOniN59c4a1dN6/tOvl6SBsv7LoYtO/i22Ed/HZoB7/7rJ2//7Sdvx/Szu9tOvjWro2Xw85zILiJBo+DrHDfQdaIlVhGlpPiXYpmbCbOQRZFE/HTcROUBm2PgFwcxbIqLJLRo7JwUaVbFxcC+P9sk0WAMLklQnKUxYcQ6rQJyvmX15VFwp+N1gTwRAczCXvhC6hlUSH7sgrt/ocBl4MckFpOgJ5ISwnbz3RQf+wcRy908ODFW+oPnCVn/hau3HhKe+9tsssqOHipg5tPnhMSV4hTcBwrdrXw8rsfsRTMZcfR81y795CYlBwsi2q49eJr1u3YT83eI9x5/jl7T5zjQNsNvv7NW3YdOIyvTlY3uThpc9DPrqK6/gh7Dp7m8asvWL/tkFJg1elns/dcD3tPtCrMRSd1PGOnFqKfvQ5zaQ2ppTWkL9jCpPTFipaXrCpF9NFOEeA0Mjo6m/XbjjHQf5u02UtIrayj9cEXzF/fQGnVNqq2HuD4hat899vfk52/keOXevnuN99z/FgTR5svcffRF6ysPsDSDft59OpLmq90s7mxiYq1dWQXV9LRd4+u/gdsO3Sea49f8f2PP5KSW8qSrQd49O2P7G6+iDQHPnvzJVUbd+ITkoCHnGh1CnYhZjwnFLCi9gBFFasZFZGg2AdYddik/0NWyJKOkTBeVqd/1GVT+rwU6wK5GSXFYcRFBDjfAZ+sBj3UcYqmm+xP2acy4chEYO1HE70zqVFIv5ikUERUVRYyouYsCtofe8j+cwCmsApFOUNsTbzf2Zoo5AyfsYoorLRsvAd0JfL6k9qCZFtkpewkaUGVlTAl9iHyfmXCVvoPZRzktfeb/P1eKPeP16b0IEqPppIqVK5ZYf8KCUqiHXHslc9Y9Q+t1/T73yX7eP9crvv33/P+tfffJ5+X77BGBwJKcjxC7rKmKAWUpSZs/Z5/ecwSIb7/3dZzqxy78pvkd/3p77N+p7UPVZ5bleeVfUtfq5I2S2GkaiYTR5Uzy3kjNfYb2OxazR67Tey3qWaP6zo6PbbS576b0yMPMWB/iZduXbx1u8Zbhy6+s+/ma4duvnTq4Qf76/x+6HX+/rMefjdEXu+k3+UiB+0PsmpILRkjN5NvV81qu23std3J2aGNtNkepMVpHzs9tlI4uoIg/3RslFStVcXeSTuNYaGi5v5+PP71R+mdfT+/KAr+Ms9IhP6HcfzXP2cd5z+eI+vYyr6s7/dQJSuLGtFR9A0wKC0Zx51388iuWaldvj8//+pjyAdqXPaBgoySqktErc+jpukiZ68/4HzXXdY3NDHZXERw9EyWrGuiue0W86rWs3LbHhqOXUUVW4pXeBr5Sxo43DpAXHoR5esa2HmijXH6XAxzVrL9RCcZ86uITs5hy/7jnGqTyOUYL98+Y3P9Hkbr0rEPTMdJm4pp3jqaWvs5eraX1XUHlIjOPSQe9fQCKrccp6JmP2FTzXhoEpXVgbPU5t7dgPYqyalbbRmkMCwDaKNJVXLcIyZkMmfJNnbtP8f0tHlMn7WamqarZJZvZGF1I0dbb3D6Sh8btu/DPzyX05dv8PqbL9h/ZB8Xr9xgyeo9qCZkEJlYyJItBznWfo/Dl24pjCv/CUbSS6vY39LHoUu9rNy8h/NtN5mSXIg6fiZ7LvdzrvMmW+p2sevoeWZVbsBHq8dTl4qLWADoLKiNizhzdYAlazcxNioRp+AEhWIvophys1iB648XlhW85GKRi8Nq6yBWCM7CRFRJCkj63zKVpm5P0Yd7R8B5rwz9p+kAufFFEFPEVGU1rKRyNJLzT8I12Kr2/H6MPz5aJ7qf4zj8c+B6H3FJjcvNb8Yf7pOf42//z/SbZCIXkomkySQCHe1nJHXEHA74NTDgdpzBz1p49Gkbr39xlTvD2rnq3cZr2za++lUnj9xu89q+lW8d2/idXTv/MKyNf/j0Mn//2WV+N+QyPwxr45shbUrE9b+HdvD7X7Xw9a9P83ToMW4NP8JtpyYeuxznpXsz912Ocd33FE1jm1g7tpFi37Ukes3Cxz+TT0PTsNGZ8Qoy4q5OZEhEvGIW/LcYZ3eVwbog1qYxxj+Rz7RmTjjtZnD4CVxCpMb6gXsq5AO2JvaBsvo2YxOix04EH2PSGCPpwokZjI4yKQ24rmLOFpbH2AmZ+I3X4z/BxJjITFw12fhE5DEiIpvRQifXmfEfl4XfuJl4ai24h5sZOT6NERFJTDAWEJ85F33WbBoOn2Tw9VuKymUStygCj47hyXiOT2bsxFzUE2YxepwwlYR1osc9XGioFnyjUvGNMOCqMSggpbCCNCYEwGRTQl2hyf8JcA3XpuEUno5PZBp+kSZGRZoVszzvcWl4hqUwKioVv/EWVJMyFKFMT3UmB1u66Xv6DG3MZLTRRtQTc/DSmvCKsDAiOlvZRk0S4oc1L+8aZsZ7fCYjp+QQEJNJYGQKoyJSsNcmMWZ6HkHRZgJDpzM62oR3RAoeoWZFwUBsym3URibNrGJPyw0S8xfhGCLpFGHjCCCJwZ4A15+e3D/aS/zxpAuomXGUsF4t4qYZ75xixdPHuiKV/cgqVQEvBaDE1M1a+BbVEqslutQfJB1iNYGT9Mofv+Pj85/zWPxz4PJ0kxqXlZxhrXF9PH8/zfmTBZ6YWgqDz4h3kJHIoFyygpdQPKqKBSNqmD+6jpVedZSMqaMkeCenRh+l0+ck3T7NtPsdo8P3KNdGHuXmyONc9zpCj/cRukYc4cqII7T4HuWUXxP1I3ex3GcjJWPWk6taT7pmHfnq5eQELSEtqJKpY0oI85+Db2ABzuo83IJn4hmcwSfjMvjvUWJHY2JkQIry++x0kib+G51/jQg+SNRtYWRgAp/oUjnlsJ/B4afxUmd/eH75EHCJdJG92sDwECPDQpL5TGWwrvaDROJJj602GdvgbGwCcxgeKCk4Pfb+etxUWTgIq0ZeCxCl6GRcVEbsxyThHJSBU7A4fqYidFZJ2+VW1tH98HMefP4jj998x8btxwmKTMcxIBlHXQo2YTNwiNDjrpuJc2CeIp/iqBXiiFmRSrKmuiTVkIjVHM56IiTSku39RSnPXRUmkDXiGqpJQzY78aqRFKIq6Z1VgXVC9whLx0ElKThr4dZTl0djSx9dT18yImIqTgFxeIVm4RGWoYCMTYg0clo3UexwCM1kmMrEZ4HJfBJswi0yA5egRLzDLUrE5xyRhYfYEPjFKuM7LNjIcKWuaMIlVKKuFKWfzXOcqHIkKYohAig2ijHenwDXu9D9/XEqqZR3aUM5XheVmLxlYKfOxEVcrYVdJNGYJlMBPoVVpgCRpFhSsdNYgUvSg1aprT8yzZzV0hAtbKB3thQfAewP19cfx/9vNBH8mXPxz4FLJJ+sdPixuI39t2jHP69j+bmOsfwu8Q6z0cl8YsZea1QWpzbaJIZozXyqy8Ax1IBzxGQ8wybyy5jJOEYbmegnKhIzsAmbwlBtHja6Ahx0hThoC7DT5jNcl8+QsHxcQgrwDSrESzMbB20+tqG52IVJrSpHoamHepnRjUxFHZTJCFUa7upU3GQLkrqSiU+iTPzdeCO/DEtS2h9GBljdhofpxNdLsjN//fM8PDRRqYN6BpnwUiXw61AzR532c9uxGZ/AvwC4REtKgEBEOKVZTDqdhys9RCZFkl8mUwdtHkMCcxkSJMZqydjLQPln4ahOUszDHFVxeAodUi2maCbF+dRJm4Wt2oKN9I8I80aXzOhxJgInpOAXHo+3OgH3IKuvj3IBRMQxPETsDMQmuoDhCoXWOslKysxOogWNGVshkvwbJ0By3FJYttOIA2saw3UZ2OgyFWqmk9ai/EaHIEkrCrBaGB6Uip02m+HBGTiqM/EIMzFmsoBZLK6adGwD0nEOzcBRek2kliR24u9cYCUNJ66k8vdQARxxDA2Mx3ZMLHa6dIYLHVSTgWtQCkO1GQwV0NOYsJW8vxj6aQ04Bk7HNtjIEAH5sAylYdtGbcIjPBMbf6uahp0qQemvcdFalO+3VxuxU8XjEByPq/9k3IMkvSjK2eLYmsjokATc5CYLnYWTLCgC9IqPkiiByPl2CU1huCpeKX67Sk1L0qzvenvEEM8+QAq2We/SkX/9C/5vcZP9Z/7OP7AKvV3wkhqXuxdunnYKOcP9I3D9ZJO2pArFP0oWf8K8/CwiiWFh1hqxTM42mix+EWnBNlSvpOuyfRZzyK4O9Zi52IZZGBFg3XwCLHgFWvAMtCi0elHxEaDx8xPH4BRrH6c6GY+gZHz9k/AfLTJzZmWfv4w0898mmPl/Jpj571FmPg03Myw0meFhBsR8U7y3vIJEYEHmSjO/CLcowcjf4vr+LFzKOkZkbAS8fx2ZymbHrTQ57cZTrHg+NJd/KOIS0VkHxbBMTNVSERUNN10SARNTCZpoYEyUcPPNDA/MwFY0AbUi/JqCs0rSUUI7nc70meXkL9mMV7gwUeKVhmL7YGlytKawlAKfWozPDLhpReA2DleZcBXh22wFQDyj9KwQdY7yOrwkUguVeouwlgQoZLJ9ZymusxqMfeiA39uQSyhvp01heEgKQ1UpDFdLakzcT8UKW0J9UcDIwiU8Wzk2B10WLsEZeI9LxTk0DpfwZJxltRNaoFwAsj/HoCTs/BOVRyE/CFDbBYigbzIe0RaC47IJnWTGWzUNtzAzdjrRT8zAQ5uDrTYLGzk2TTJ+U2diKdvIjNyleOv0OEqTZXim0hbgFmrBMzwdR7URj1ALbjozrjojLjoTbjoRSrXmhl1CjcRkl7NmywHiTaXYBqchBnuaiSZCdJMYoU3is9A5yn7EBFCaRaVxUHrHdPE5aKdn4K6NY+SENEZPTFckYTyFrCERqNiDh3wErg9dZz+n/30Err/e4sraz2bCXpusmFrKvOAijsBqEerOY5h2Jq7BybgHZbPXYz/f2nQS6LOQv9NJduO907CVli7z6ftNiFLCYHTU6LHX6RUVfMdg6ek04BlkYFiohc/CLHwabmGY9NlJ+s3fgsrXwlg/ofwb8FAn4aUSoDAqtXHRl/0kzPw3i7iGhEmDurhCm3HSxvLLSAPzfNazdEwtTv+W5NOHgEtW34rskURKUqRXTcdYWM6dV19wd/AZeSWL8Aycgav0MEheN1Q6rCWyMuOjM+GlNVCzt5Ur914yNkbSTdNx1iXhpE3GM9SCh85iPVkKUCRjq9ZjpxEtQumOl5OYi4sqE98IIw/efsv+kxcYFSy9WNb+MkeVtalNDOakwVHEd5WG6Q8gtdU6WiykhdKbiIP0dWjluwQA33Xq66xagzbSMR9ixFkcPrUm3NRiqBaLk266IqjrGJKDXVDWO/BIwlljRnS9nBWZLLlZrCDopDGxbFcTb37zOwbuPEQXGYtnaCK28j5NOm6aLFx0mbhqpTEykUkZCzjSPkDNvrOoY6TpT69EVOL06qrS4xgQj4fOhItCQBGjtxmKWLGbTtKwabiGpuESmkR+1VYev/qSyhW1OIVaSJy3ifYbdymYmYd30BSGhBcpda1h/nEK6cMwaxkHL/bw4ItvWbt1B35R0yhYU8/O891Mz1qAa+AU3CRyluhb9O/+SX3trzc5/JxA4T/Db/kIXH+da1NqRcNCRSw8BXd1Ct6BKYxQakkpeKhScJE6szYRd+14bMPiqPPcxDeOF/EdnY9d2BS8g1LwDLK+Vz4vm3xOXpNMkb02Qfm8gJew+4S5OEwnC9AkPFTW+UnhJOjMfBZm5lcRZn4xzswnESkKiMqi3U20XmVfGmnWFgD764zNv3afDNdZm8HlN9uFTuOXUYnEj1xIbGAFwyKm/N9HXE4qKwNP0mrSIe03MYXV2/bwxY8/8vlXb9hev4NAXSKuajNq/Wx0SVlEJuUzNWMRUSKxNDZOkflIyl+sOJBqEgqIMhWhSZjNJPMCQmLz0MQWMCm9Ap2hBLfIHNzH5xBqylWkQsL1i/EIMjMmwsSr7/4nJ86dZawuGnuhyWuS8Q4zE2UoZmpaORFJpXiNS1PAx2rZLSfEiKvOhEeYGS8hcQhRIiIVD60RN0nFhUgndxI+4WYi9EWKwGSYsZjojEUETJOmyHgcVLHoEmcRk7mQyPgSvEPjUMdlo9MX4RxiYeyE2YwzzGVklImRMQVoDWX4RguF34K9Ng2bEDN+00tovXmfh8+f8dvffk9+wRycxspxmAlNXoQ2djbjk8qYbC7DP9qM7/hkJlmKiEkqIDAqhXGJs9DG5jPeWMRUUwljI5MIj5/DpPRKVFNm4qxLwGt8JlEp5UxIXYouYS4joowUrN3Os1efs2jxWkZPyWPXpQHq9xxgXPg4/MLiCUpZSZSlnEhjCb7jTNSfukb3w5cMvv2a6i1b8NaMQ2eaxZ6L3azfdYjgScmETMsm0lCC9ziJhv82ufF/7Sb4+Nqfn4DeA5fzP0kV2uPi7Yfb2I+swp/q2hEQELaeZFuGhabwq4gUfjHOxK8iTHwaLuSnbKXe5BYSy68jDaz33cUbx2sEjpqDr28CtloTNloTw3QmhoZaH+VvIXuIU4UIJkjk5BOUxEj/JEb4S8ovGbcgidCkp80a2UlEJcSQ95uURqT/TjJMktGxlWyTqFqoZR+S5fojZf2nGot/z34kSBHFEqXVJjSWT6MSCfTJwcd/Jp+Nn/x/D1zeAZOVBr+hYVnY6FKIMuZz6vI1znff4WxbDz3dbSQYi/CIXMS21htcu9lK36UbDH7+A5c7W1GHJ7C1uY3ep08JjC+lseUG9x70cujcNW6/esu57qscO9rCs+efc/VqFwmWNeSW1NDSfoGOu0/offiIorJCRkdYePL1bzl25iSeWiO2Us8K1jMxbYEiEdVz7wl9956xproOv2ghFkiILdGTgYnpZcxctJbipdUUV1ZRtGQtcckFjFAJtTwbm5A8oswVnG65Qt+NXlq7e3n8xTfs3HOMsOlJZM6r4Gr3bXoePKJn4AlzKzuWeDIAACAASURBVBayec8F2u48Ii41l1Vrt/J88A6LV9SQt2QHp1r7FTsGL61ooaUxRJdGcsV2nj56y6oN1Tx+c4/D+/fhPTYRnWUd1wff0t/bSnvPXZ4Mvmb91oNMKdhEU/d99jY2UVy5gZ7ePo5d6OTSrUE+//xLGuvraW6/zeDXP9By4iCBsWYyVu+ls/cm1x4+p+1qBxlzZpO3bisPX7xg4dJ1mIrWcO3eKzIL5+OmTaBozW5ePhuk++49zp2+QIA2Bb/45ehLNvL89eds3tKAu86AfVQma3Yeo/1yKwnmLFbWH6b95n0mmfKUfPm/5wL9+J4/Dyp/jbFxCbTgMDoQJ28XPN1H4+XqjZu3Iy4+Y/nIKvzrnRshSUmUIwxfm9A4tnrU883wG4wdG8PQYLGC+uv9lv/03/WhVKFX4GQlshkaloFTuInM0mXcHXxF7Z4jVNXWc/fhAGXl1YwdP499/+g7c/9+N2VzFrPnfBff/+ZbDKZZ7G7p5PlXX6EzFHP4yk0ePuijeFkdDcdaefLqObWbD1BTf4jHT54wr2wHM0s3sGDxQkqXb+HRyzd0X7uiiMs+/fJHTjSfwFuTiJ1WjNn0hBkKKV65mbLl62nrukFHRxeTUouV/PJ74MqoqOXAxascaeng6IV2Dl9op7hiLR4B03BQpTI8JJsIUxkXO69zs7+fhSs3crqth+sD90gvrqSt/yEDt24xf1kVvXef0Hq9m8JFG7n3xdcsWLme482X+fLLFxw8fEqR7D9xroupxjmKCO5QIV+MS1OU3u/ffUFKTh5Xb3by9vUrwqIzCLMs49HX33DzeiuFlVtovdrHhSu95C9t5OLNhxzZf5zSFdu4eecOB061kF+5gRcv3vD65WuSZy1RrBW+/+YL4nIKmVG0iiUrVlLdcJAnz5+xsXE3ueu38fjFIBXL1jBnxTa6Bh6TYMrCZ1wyJ2884fHjpxQsWkRW2kxGqxIYrskltnAVL968YXNtg2JR80loGrnLaum+0UdG8VKylmxmfWMTusRcheTyn/4G+C8wWXwErp8HIHwErp/wPHwIuNyCpiogMCwsDd/JmWzcfZgXb7/i5MU2mlrbePTmGQ27DhMzY5Ey2V8418SUSWnM3tbEd7/9kYzsYvaf7+TFF2+J0BdysuMm1zovEx6bo0jq37zZR17eUjIXVNPbd4MllXUUr9zG6ZazHDrbzudff8u9ezfRxJh5+vl3nGo+jXdIrBI6e0SaSSioZO+pVk5faOP+w8fc7u8nPnvBOyqqhNYGQpPmYi6pInXOYrJKl2IuqiQqPh0v9RSlX2q4JoNIy0LOd15n/9Ej6KZZqN59gq6BfuatqqP/yRvu3bvG8bOtXOoRu+wuppkKufP6K3afbKHz5l3au69y/Xo/Z85coaHxOOoJkiZMZ5guk7CkOdwYuM+jR1/QcPw0nbcH+H9//7+Yt2gjUWllPHj9miN76xk9bQ47my5yue0G81bspL3vDkf2HmPO8h30339AedUGgmKSuXf/CTdu3MIjXM/a/S188/13WArzKa5p4OKlC5zvHuDVF59Tf6iJvPU7ePT8GYuXr2bh+p1037xPgjEN9zA98zcf5FrfLS71D1C3eRvBoZJCyCE2fzkvBbjqduEiBI7wDDIrN9N+rZ/sRdU4hwn5ZhJuoVbZl4/A9RPejP9BIPoRuH4e5+gjcP2E5+FDwOWiEpBIZpjOTLipiEs3Bui9fY+6vYeo2X+C9tsD9Fy/yczCalo6rtN+sYXxMTlk1B/l6x9/T2rWbPY0d/Hm7bdE6nM50XGTns4u1DFZLN9yhr7efrLzVmNZtI2evhts3LCXU933OHv5CvNXbFD0+x4/foJ2ionHr7/l5Kmz+IpNwD82qo2alM3aPWdov/2I5dVbONvSSl9vHzMyFyj5Xsn5ypYyfxPrD7RSs/8cm/afZdmOo6QUVuCpmqwwHIeFmBmXXs75a7cUkzj1tGzW7j5L5+3b5C6qoX3gKTf6LrF0bS2V67dRtKwadYye5q5b9A1+wfnufpZvqOPx4Bv6rt9mYfl6fDR6hT4/XJdF6epGnj8b5MjpK6zbd4xN+4/x9RffcupcD9FZpTx5+wVHDx7EZ0Y5tYcucbmtjwXLd3C17zaH956gYEUjNx88UbQTAyencuvBM65ev4PbuFRW7L/M59//QElFGW2PX9N89gxLNjZy78lzth06QfaaBh48f8GipWuYvayW3ttPMKfn4qJNIGbmMkrLV3Cy6wYvX75l0vRZ2GlyiJ9dxeCr12zY0qg0cw/TJFG8ejvd1/sxFlQSYigiNr2EUVFCbvnb5MY/guX/2QTgGpSG/agAHD2d8XAdhaeLF66eDrj4+PORDv9/NpZ/ybX3Ebh+wrH+EHCJuvJwdRJ2oRYMRatpu/mAFRvqGB0+Dc9wA6VrNtPdf5eSpXs4cOYqJ5rOETGxEMPGvfQ9+gp9xiw2HrjCwL3XhBvyaDxzjXPnOwmYlEtpVRNnLnZiSF9JYkkdpy+3U7m8gbpjV2jtvsXOU1do631IW+ctVFPNdNx+wa59p/EJF6ZfCiNFqmn1Ls5ee8jeU21c7Byg+UIXk1PnK9p675WO3SPSGBWdztiJafiNN+EzIQ1vXRweqqmKLIt9WCahqeXsO9fNpt1NqGILKK87ycmOG0zJLGdh9W46rney5+QV6o9fInfRJjxCJrCweg89T75i1Y7DxGbM50LPfU6f60FvmouP1oidLgeX8bPYsP8SHVd7iDHm4RCqxytUz+mT7XQNPMdYvpb2u0+o334A7+mLqNp5hqbmbvIqGjjR3sv27UdIq6hXoqg5y7YwelIWF7rvcLL1Bs7jsiiua2bgyUuy5s5hZ+sNrnT3sevMda7dfc6aHUdIX7mTq/0PyV+whtiZS7l++xkLK6vwnZDGst2X2bH3JAfb+zh2/BKhE7Jx0OUzLW8l3X23WbKmHo/QZCWtuKnxGOfOtRBjzGXJztPsPd2GdqoZaVD/S27kj5/9CW/kD0Rrbqp07Hz9sfdwxN3FVwEuZ3c7nL39PgLXB8btp74+PwLXT3i9fwi4PFXx2IrOX2gaEckl5MxbyQR9trJid9CKU2gO6SUVRKRUEFe4jNSMMlS6XEamFpK9sI6gyclMzllNbnE13uNTmJ6/joyClbiFpROpLyOlsBL1xCLGxpVinlNBVHwZ403FFJRvJHVRNZbiNWTMqsJ1nJ60so0YspcoysSiciG9VkGxBVjmbyKnvJb00mqS8pbjFz0TsRlQbBUUvx6zop5hHyR9ZXqGq02K+rQIzDqok7DRZeE5sYDE/OXMyJiPV2Qq49MqMM1eyciJWfhGp5FTspy5q3eSv3wrYQkLcNPGoJqaS0bZFiJS5uAdlU3i3HUY8tcQGGnGM1j6LNJxHldAXOEa0goWMiIqiaFCd9eko0+aT/7CDQRnzsO8oJpEYzEu42YyJb0MQ94KAvRLSShaQ6KpBFX8PFLnLiM8qQSniCzS5lZhyl+MfXgOGlOl4mcWMlVPaOYSipZuIq2igczi1UxLm0eQcT7pJVVo44sYMamQxmNtnGi+rLAODSVbqFxZR86KbUxLyMMnIJlh6nxGTy4kt3gxk5LmKPT8KZllHLt4jTVrNxA81cKOizdYv+sYqknvxVB/wovxrziJ/NST0s95f38KXG4uvni4eOLsbo+TsAo/ahX+1RZfH4HrJ5wrPgRcHgHS35OsKAo7quNxC5yIq3oqQ9RJDFHPxFktzLxoPtWk8ZnOiKffdHx8TXwaOklxU7ULnsJwsaX31zNEHcdQdRpuAXqGiaJ5QAK2QdNw8LcwLNCIo7iJijdMYCxeGgM2oYkoTXcBSfxKHYud9F0FGBgisk4qE/ZByQjt3UmUHf7R4NFOnYyNNMeKSZzI8AeLVL/IHFmwffd+UbO2CRYXT5E9SsAuMIlPAtP4TBxiAxJwD4zDLigOO3UCLoEGbMSWQCjzQZL6i8dRk4B9QBrOmsmKmoSjmMfpDAxTZTIkJJWhwSLppMctIE7Zt+x3eLAJl+A47LWJfKLNxE6dh6+fEZegafyPsESGBCcpDEO7gAScAqdgrzLwP7TFfKJNxX1sLLaqZJxV05Tm4yEhWbgFxeMROI3PVGkMDzYzIjAKF+00PgkTe4I4hoWk4yLnLWCaYvHioo7HTpvJUO1MZqSXU7fjKJHGMkVhY6w6BvswIz7+U/EOTGOoeja2ajM+QdG4ixqHLlNJHVZs2M10QzreUWaSKrcTbSnFO1LURX7CC/EjaP2HTaD/FLhG4uHsiZuXI64jAnD3/yj59NdadHwErp9wvvgQcDmrBLhEhFGah6UoH499wBQc1HGKtYX0K4iixmdh6Ypkkpv0FAQkMVybiY06h0+103AITGNEYCI26qnYi75dkEgtZeGk+v/ZewvguLIsXffFi3gR8ybeQEOBUVKKM1MsC5NRYDFDplLKFKfAJDMzMzMzMzPLlkEmmWUosAu6q7vv3Pfuje/dfeSenqp77ejuqa6YqStHnLAylUrY5+T+99prre8vpZuuHIEv8hP2GiYbPQy1EnU8WO/G0yoaih0EqBvpJoCvhnyUcXn4qR0Iq22BS5LpygnW5KLQFeKhr6O7QRjVCSM4QY8QUFjBMnTiI0zihJeOtgofneilEL8TaCUnHhJB3UWApkRyCBWoKn/RlCx6I9SisVnYOpRIOKkAYRGuF6Z1+RKgVvSJCQq0QKfI9OV46d34CpM6tQNfrVN6bUFbFwLsqy3EwyI+fx5R6kwCDVV4CF8gXSneugq81cLGxIGPrpKemjq6GYQZXRE+uo6m7g631xqJXBEkDP1UHZ35SgHe1ZfQ3VSLp8BFGZwoNQXIBeZJNDbrXcgFBVq43CbUkpDXB1XvaqmfJFSbg8KQS7A2T2qu9tXXSWMlOv0DLG58jS4i0yqIyKwn1JSLQp+HT0IdXmbhWPvh/Jbk7SSYiMKMVHjx6B14SrSOErpYS6RG859qwvjf/XXk6gr8Y9T4hQQi9w9HGaBEGSqEK66zj+snXDB1CtePJ1zC1fr/4D3/BKtQTNqis1kw+ITNtl98NsG6TEL1qSgNgrnlpodZNATXoNS5OrBNlkF4aer4RJ+FKrWJzIK+BBiy8Re0BU0ZXvpqibbR09gg2Wor9Pl4GUrpaaxBoXOgVNfhlVCCn9WGUtsfmbWB7PphZBU1SpytMHUZPcy1RGYOwl7ehCm9FE9trQTMFb47/ppKiYjeYectBssp3RegEYJWjY++SqKfexkF37AUH22JZCEtFzBdg0AolaIwClvxKul3Mn0JMoFSEvbjeod0CNM4b5H/09qlQ8JY6YXJ4zurcmE5ohdHqTTJB6gL8DI7iEzKIEprxVdgsQR1QyN8aKoIEBBOi0A21RBkqCAgqRxdRiORvZ34CMaYqRqFuRaFsQqF0U2gcG8ViCyzE0Hm8DBWSYZ5QmiDBFJKXYSvoQ5DwTAKygcRkV5FD3M1wfoiokT0KMZZn0eQrgiFUUB9qwmQuIoOlCYH4cnlhJkL8dfl4JMg6B75hGnT8DVV0NVYh1w0PP6rR9L7LkjxmA7hl8bLIMTLQU9BF+iM1v5mEdYPhTpQ5SIgTo1oQFYEhEtGkvJgb/xDojr7uDqF6ye7Dn94Xf57bvvri94vXL6S7bIQLoEXcqEwOEgrG8Ta/afYuO8wRdVDpVV5D2mrzkWwACYa8vDTOPGKddDdkM3UZcc5caGV+OxKKaJRCrdVg3AOFV3ctRLbUERMwlbDS1eDf7yDMG0NflaBfcoiWF1JcEp/Dl1rZcW63UToyghSldLdXE1+00KOn7rCkFFTCDZXEWAQMN+idx5V70zv3k2QwrdKrHiE06lwWZUguyJCkUwTS6UucmkiNnU0CUpRlKZc4gcKenxPwREUHexCvIwC6tvBERO3RaTkrRNR1h8PMVkLwepgj0m+VvpC+sxaz6GrLcxbvg65xkmQtga5WriKlkmUeDHJK/UOwgwOcvtPYeuhKwyZtoyQlGr8xeJA+GJpOmgVwvlVJuxmDIJcUoyX3omHQEDpCwnWZKBU56GwuBk5dweHTl8hs3YYPQ127HWj2LDrBCbbYEJM+Sj1wrq7WqLa+5idGOzCuHI9uw8exd1nMFG9y+k3bydDpi7DlJyPv8GGh7Fc2jIW7/d9F98fIyxhZS7EPlArOvydBKlcBAtbc8kA832C13n/+8b1r7lfCJdfTEcDcpCilwTZDQySERgWQ1C8MATtHO+fYgw6I64f7zpTxte+X7iE87FwKxVoHzH5Bpns9J+wgGff/I6Xb79kyqyFKEzCq8sl8fmCNLkE69IIMRcRohMIkywKqiYybOJcqe8oVO8g0pwnRSBBxiIC9EWIkvswUyEhJgdyfZlkgRIh7OstOQQbkgiJziPY7Kbt7W/YdfAwYeJ3Kgc9rDWUjVrBg7anTJ4ynShzCZGWPEL12Sg0xR08LuHcK3lOOSTGX5CmEIVOvK5d8svpQKAIIRATq40gUyH+2mzkBhuBRmENbkduEpYnpQQnuVBaSlGaHcjicwmylCI3lSByf+KxwRYHQYYiiYQfYi5FIbbbRLQl2aC7UGfXcuxOO0+/+ZaXX/0GY3qdBLsU7yc0yUGYOosgTT4h+hxC1dnE51RR03c02SX1KE2Cp5iLnyqbIIMdpTEHWUyatJAQ9/cyFHZsR5qdEuopJiGPcH02odZKZq0+KJXQOwaMJjTdxYHTV1m2Zie90oS5ZDphwmXZIJAxdqIK6tly6TZtn3/N43v3GDZopGR/7hi+kt3Hr9E0aARBhlwCEsqINGdJY/y+L7wQK29DB09N/CycpwM1LhSqCpQiT9gpXD+ZYAjh8omKk8gZIUHRhAeHESSRM2KQdxZn/HTnoZOc8aONdYC67v3C5aUVpeel+Il8i6EEU0EDS7Yc4PrDx9y638rhY0dJKKojJLGaScsPsmjDAdbvP8v+q/eYtnAtfro0Jszbwc6jZ4jPrmf6soOs332QaasOsOfSLaau2MD4+avYf/4Ws1fvJLnYjb3feHYcvsah6w/YefwkmdnVRFnqefrNb9hzeC9hgrSscfCpuZyyUUt59uw5p06eYO+JW+w6dhFH3SAiTAWIogSxtSciodDEcuJTy4lPKCIu2UZUb8EvFJFTqeTpJTe5SHQMY/aaHazcup9th6+z93wr5YPGEWmxk+EYzKaDJzh5/QkL1u8nqaCGFduOM2nhJnSpDprGzWf+2n2k2RupGzGLWWuPkGgfjJ+6WALvCmty19BZ3Gh/xYrtm/juv/93+g+dTnBcLkmOwaw7dI7lq3ey4+gNNh46Q1nDSLLrRrJ552H6D5lM9cAZrNp1kFnLN7P/5G0OnjsnmW5uP3ybQxduMGzkbGKTXfSbuZmdF+9z7Modpi3egLGggdlrdtP27Bll/YdQNGA8LXcf4e47VFpIVIyazblLrZy6couxC9cSkuqgdMxiZq3aT+v1BwwbNEnaHo7LG8Kuo1dZvmwVCQU1DF6wndmrtxHZW9DtHfho/ud8l+C2BWs6oJ5++lK8DGX0NJQh/H+EZ5HwLnqf6HXe/+OtTMVYytXl+Ea/Ey5lFMpAkeMSfVydyKef8lrrjLh+vOtaFLu9N8flqSvu2BozlBKot1HgHknzw2ds2L2TZauWcLP1FpUDxhKbVMve07d4+uW3LN12hKMPnvLy8zdkuPqyYc9FHnz2Beq8vuw52crT18/ZcOAyJ2495PXX37L/5AUOX2zhQfsr+o8YSd/Jsxk9bTEDJs/nztMnHD54kXhLf5599S17ju4mRF8mCdcnJhelo5bwxZs3XG2+zNItJ7h4r52DZy+RXFAlRSdichQ2A3O3nuHu66948OILHnz+FZcfvWbAtPUIm3svjR2Zqoi8xglcbL3HjVsP2LzjHLeffsb+82cpKh/A2ct3ONt8lNFTZ/Po5Res3baXXYdP0XLvEU53fw6dukBb+ysmz1nM8s272XToPBaR1xPGmpIRZTXztp7gxv1Wiips3HvxghPHzhOjK6CocSLPv/4tzS0PWL39LC3PXrJ8+xH6TltFy73HTJuzinEz1vHo1UtOX25h264zvP3tlzz7/EsWLDvCgxevuX61ldQCN/2mrGLI7JUs27SDq3cfMnzWSuau2c6tu/dwNPZn0uqtNN+8Q06hi8j0Gi59/lvOXzjN8OGDaRo5Bh91Kn7WCurHrqGl+SkDm6bhJRyQE+pYumE/hw8eIadiILN2nGfrsatEp9dL26P/K+GSa8okDyFBrRbVh1JhhslOD7OdnmZbB7Otc4vqJxFv4efkFxNPQJi8g1WoDEFsFfqHRHcWZ/yE12CncP14wiUqut8rXD11YqunFF9DKeFJFYycs4477a9ZuHoJi5Yu5NGz50xbtAFrZl+Onb7OoRPnsBY2MGz1Nr77/dfY64ay/fBFHr39HKtjOEfO3+LW7Yuk5NcxcfEWbty8R12fETQOm871W/cYO3EcvUurmLZoNfvOt/LmN7+lteURhsThPHnzDbuP7SRYWyl523xsduIYvYTH7c+ZOnsW0b3LWLjtMFfu3MVe3ReFVjQYdwhXiMVObEIW+qTexCUkEZuUTZAxH19hi2J0SQSI7PrxnLp2k6XLN5KY5mbjgZMcbbnCyBlLeND+hjPNO1mzdRd3nrzk9sOnDB03lXvPXjJr8SpuPWzndttTjp45y8FTF5ixdBNRCXaJPi9Tl6ErHsf5R2+42nKO+sG1XL5zhzevviDf1of8hjE8/fJL5sxdRqatiR2nz7DpyAWa5m7m+oPHTJmzmjEztnDn5QsGjJpITlE/nn3xjD3HzxKrr2X74dM8v/OY3KJaihvGsHTnEVrantD+9htmrtzM4vU7udfWhqv/YBbtOsbpC1exphYQmu7m+LOvefn2K5avWEl6rg2lJlfyIKsbvYqW5jYGD50m9Z55WmuYvXI7J46fJsM5EC/hJ6TLlQovhGiJ3N4PSfH+Widy0ZagL5fsuQXwWOQyQ9V59IrPQa6x/yST9k+5ov6P+loi4hLFGYHhCkKU0YSHhCEP6ijO6HRA/jEn0w8/V6dwfXh8/pLvj4/W9n7h8njnfiyES53bwMYjF/nsu9/x/It2Xn7+mtdvv2XbwbPYysZy9NgVDh07jTqjioYlG/ntd59T4h7EgTPXePL15yRIwnWb69ePY+rtYuzcXVy78pCa2tHUDZxJy402FiyYz67zlzl5+SbuIVO5euMmj++3Y0kZw+MvvmLX8d0odRWSedonZiclo5dISKNx02cQnVbJwt2nOX+rFVt1IwptlrSNJdM6GDl/Oxdbn3Dtzl2aHzzgwIUbVA+bi4+qGG9pAi0ht3ESJ663smDJNixpA1h/5DxHWlsYPmsF919/xemWHSzdvIcV2w8yYtoCskrd3Hj6mtMt9zl5rZX1uw7w5GU7py9fo2HIBII0WfhrivA3VFA/bS83PvsdX759zIu3z3j05i1/+Oob5izYRK57JI9fvWTK9AUk/g8rlU0nTrL64Dnqp2+g+d5jJsxYzfAZW7nx4nNqhk4mKb+J26+fsuHQSZRxtaw7eI6Xdx8yYswMLtxrZ/Xew0yZv5CW+w+Ys3ITC9dsp/X+QyqahjF/x0HOXW4hNbsUb3MZOtcIdp68ydvf/oEr19rQpdYQkuCmaeJq7rTcpmnoKLqZy/FIqGX26l2cOHVeKs7xNYnqRHtHmbsQLtEWIG39ie2/ji1AH70TT1NVx7agsZRwXSHG+FzSojMpCEsnUlXcKVw/0WpfCJdcpUURGfQu4gomKMwPRUQn8ukvmSz/vY/tFK4PCdef5o4/jfMf7+uYU4RhcMf84sDL5Hy/cIlqNW+xVWSqpKhuPHcev2bNFoFdKiHQUsbk1bu52vaKIWNncOjkJfacuIqxoJ7+c7fR9tXvsdUPZsuRS9x8+hXphW6OnGzh3PnbJKY4GDd3PceuPqS0cSwNI6ZLP09dsp0jV+5z/MwFFixazrP2V7TceEBiUg7t7V+zZ89xVPpcfERPls5J+eB5tH35/3L43DXWbdtJ25PHrNh9hricvgg7e1/h6mt0EJnmRp0/gNjsPkRl1xOd00hwb2FZbcPXWCL9n9Ewif1X7jJz2UqMOcUs23OMfVdvU9QwiGNXWzhzvYW6gWMYOm0sJU19MBTUs/fyA25/9hkL1m1j1NSlPPv2W3adaiajdAhKrYMQS4eh44pjzdy6+4h0x0A89DUEJfbh2evfceXidRqaRnLj+deMm7mCdEc9Gw5fkHBXw2Ys58Kt50yauZJxc9Zw/dlXVA6aTIq9kZZnv2HDgdNEWvJZt+88Dx+9YvqMBbTeecS69dvZuHkX7S/fsGDhKpas3UjrnTbK+k2kcuZGLlx9hK20nnjXAMYv2UxF/2HsOnKKU1duosuqIcRaRdP41dy6/pBBg2YQoC0hJr2UZbsPsf7AWVIK3Sxet5Vlm1cRllaOh8VOD+GiaqgkWOUmLM6NUl2Np9lFl+QyFGo3xl75bPfsyXe//L9o79qFN//YFWdEb6lnT6YtwsvkwMsoLM5LUKqFo6utU9R+RFETW4X+sSrk4QrCQmKliCskPEASrk4/rg9Npj/u7zqF6/vj6a8X/cAFBKirCVD1Qa6uRzTLC8PNQE01oTGDCVQ1IdM3SD2+3VVu/DVugrW5khnne7cKhVW0l2hctdRSOWKxlKCvGTgFH20R3mYXOX2nsXjnOfqNmcv81buZtmQHqsxaXCNXsOFQMyklfRkzfyvrD7VgyWtg1vL9LFx9CHN6JXUjFjBnzREynUMpqh3Lwo0nqRg4gwHjl3Hwwg3J9mTD/vMs2ngYQ3o56/deZfLCXYQb7PgKOoaujIyq8azce4UNBy9y5NIN1uzcR4pzEHJzmSRagSZB1iiRfpapC/GMz8dLbUOm7XD/9NZ19GGJqjejYzgz1x+lcdQcYlIcDJ+/lSlrW5YCKwAAIABJREFUj6DJrqGobhRbj1zk4u3H7LvQTF79IEIsFQyYtoW1hy5S0TSVHOcwVu45KjEMVel1BIoGZLUDTdFA5u29wOwlmwg12vA01OGprmL2ikNs3HYUZ+NIVh24Ss2Q2Zjy3IxbsoNRi7biHDydpdvOUD9sLpVDZrFy3xXy68dhyKtj5f4rjJy/hWBjAWMXbWfVztNklPZl3tq9HLnUyupdZ1i54xT9xsxj6JRFbNp1nBTncKzV07h0q53hE+bQK7eO7ZfvcvrOQ3Ycu0BhVRNyUSFprsXWZx6r1x6mtHwE/lo7qZWD2HLyKqPnbiS1qIlTzQ+Zs2oNcQk2Ag25eFpz8LDm4mPKx9ecjWdib3wtiURHOYmI6ccM/1A+++jv2OurYWZAIdNCZfRW9SY8vpSgeGF+J/BRog2hBG+j2J7uFK4/rTq//2X/a+7/Y45L+HGJrcIQZfC74gxRVZjfuUj4ERcJHzo/ncL1/WtZtAz5a8vxF/21AtxgcOAnuTwXSk7PEdokQgQkQV1HQHw//LX5KBLS8dJWkJVe8f6IK0hQzjWlkiGiKIsPVGWg0OYgM5bS3eDEU2/HR1dIoDYPpSaPgLg8ArWiXFw4W9rwjyskQGOXtuT8xJacQERpCvBT5RKoFkpbgL8qnwBVPr5xudJtv7hcqcTcT19MoElsQTnoEZ2DSMaJMFHYxfvryqW8SqCxlEBRum4oQGnKR27IIdBQjJ94XyJa1HZEXeJnEX0FSuSLGnw1HaQKXzFh6sVRKpHi/TQ2AjQ2xHvtsKUvI9AompftBKiLUWpdyHUFyI02yctL4KX81EUEqEoI1IjS+DS8VdnI4ovx0bjw1jrx1NrpoSlAockgUG+XqCFe2lp84goJFs9lKED0y/mqipGpCvAWiCZdAeLzi+KOgHhbx5ajeIw6Hx+BpFLl4aspwF9UTmoLpc8q/e27KFOU8f8x2gxU5RMYlykVifgb6li44SCb9p+VCisEVsvXID5zJiF6Me7FEpbLW1tJqLqICG0xwSYh0CtZeeAc2ZVjScgdyoptF7DVDiVM3URkdH96RTciV/XFQz8AL31fQlUVREeXEhJTR3FEAed6erBHpiBKPwAP3Qi6pKQSYCwmPL6SiNhKwmIrUarKpQrW7pYSulo7hetDE+Bf+jupqjAqDt9gfwmyGxQYhGhADgiN7hSun0i0xDnrFK4fCJemBn+1W5rXvY35yCw5yCy5yCx5yMwFeIheXm05YaoyQjV5BGlzUCf0proqjt2LFe8XLrlg32lL6WasxlNfhrdwRNbm4GkopbvIYYiITGeT8kS+Ggc+8Q68ou34q8rxVznxji3FK170UlXhrS/HQ23HU2vDW2fDV23HT23HO05M2nbJ7lr8LN3Wi4IQFz3ixMQqsE2iWdmJp7oEL7XgGnYMgNwsEv+l+JpEY7ADL0OJ9NwiyhLRlhAw8b84xJahNJnrawnQ1xBoqJGAt4IK8kfx8pX6vjoKOmTaMnx0Tgl3JRMrA2O5ROAQvVk9Y/Kkv/FWC7Fy4hVXipdKvHah1IzsqRbcRJeEs5LpSugRn4ePNh8vISyGSrzU5YiiDdF0Ld6/l058rnJ6qkrwEnlFTTFeKiG2LrxV5XjFCyEWaKkSZBqb9L8gdvSMFQ3BZdL4iDGSaTvGzc9YjpfGIY2XLMaGV1wRXroqAnX1aNJdDBgzB2vhCDwTXfQQRBR9MXJVFl5x+XQR70NXK/WfCdGMSKrDNmAa6ZXDibDWEBBTjjyujFCDnU+Sy+mWYCPAkINSLwS/Ck99nURS8THaye9l5ZTnL7jb5RPqgpOksRGLnIiYCrx11cj0lQSqqwiKqyRI6u0S1uUOelje39j8l07anY/vKIf37hUr0eEFOSNYHoQixEdqQO6E7H5/Mv1bXi+dwvX9sfZXV0tEIx9jHp7WNDws+XgYXXjqK/ExVNDd0J8eFgd+5gJi9TbKc3JZOSaa+wf9ObWz1/uFK0Cdi4feSTeTW3rCQF0eIYZc5GY7fsYSAvXF+IqSb2mCF5glsT9ZjkJs5akr8dNUIlbv3gKdZKyU8E6iN0xgiQJ0YrvvfcefiBNSE6+IiMTfvDtEFCaiJGFd4mNwSbxEL2MFXsZKfI0Culvy3iPQUImfVlhyuDpQUJJwiZJtISJlSE3JQuREzkVELsYSyUxTJp5XiKChQooAQ0TVoGiiNjglmoW3XhA0XJJAC5EWdHp/g0vK20icQk0BQZYyQo0lBKiFyFXhoa/FyyDyQ6X4GNz46CskjJSPANyKxml9BT6aarwFtUPvfO/xr2Mk4aUEsePfHCI6FYJsqkJhqqWXKYugWCtyjQtZQg09BHfQUCIZdIreNy9jtQTk9TYI5JWLQAEJ1hcSaBCrHxdyTR1yTQ1yXQlh6loiVYVEqZLppclCHieEtg8eugY0MTYOfKrk1Ue/YKI8lhgBFtZkIzPkEBbZH099NV0tZRJfUWwTKDSiWlS8XkcE/LecQP53e27RgCyLjMZb6Sshn4L+jXB1NiB/fzL9W14bncL1/bEO0AiMoB1vSwqe1lTJ99FTMwDv+D4odLWEaZLoZcol15HFmGH+nNziQfPuKJaMzSQvy/1+4fJX5+JtrqSrqRaZuRxrcQP1wyYxbPpSmiYsJMvWX1p5S/kJCWpbKU2aSp0df40Qh0ppAhfC5q2zE5LoJCK5jABtfseKXvD83nMESpNmGYEixNYJkbRLvWQBehv+gpMnjn8jXt6GCsQhxOdDwhUg6BbWUkKTRKRh78AySQIqJniXJFzCOdnfIJqHi/Az2CRHZZnRiSLBiW+8i/j0RgZNX0JK2QACNCI/I8THIUUQQnxEJCXEI9TsJNRcglKXh8ExlCHTV5GcUUakVmwPVtLDUIdMcCCFDYq2Ah+1nejUKvLdY0myDUIusFHSGArhEjmg//XRMUZinP7nI8AkRLQYP0sZhUPm0jBwBNHqBLzF+zbX4ZPUj8LG6ZQ3jiHaIiLcMgmSLDMKwn6FtBAJ1AuBLpKEzF8rQvsq/ES+Tu8mNTKX8f5qxvlG4gjVY4lLIzE6mSZ5PK0f+7DNO4R4XW9CRKivy8TLZJMAv4LOHyRyatL5LJPuE+Oo0LpQdlI1ftS80/eFK0JiFSpD30VcsQU/6mv9LSf+/+zP3SlcPxQuUWQn/B5T8bRkITO48VcPJkhVTrg2keKc3swaHMq5NV1oPaZk7ao0yhoaCNE1EBzf9/3C5afJRWau4lNjNVG5A1i06QA37z3m7NUbnDp3nbFj5tNLW4C/WjSUim07JwEGmwRv9deWSH5OcqMTP52NXr3LaZq8nMFTFhOkzf5+VPBvIwQJ0SQmzY6J809beUKsOjBM/ypc78RLMPzEIW35SaL2vojLTmhyPv1mLMc9cRGBxg7rFAmGK0jtehEVlkt5NVGYItcVS4IpPpfMUIHS4sQ/vpbMsslsP36Z8v6TkMeXS1UwIgfoI6xUdIKk7yC6dzX9xi2WHhNrLWLQvB08fvtfqK1sQKfPwl/roqehTiJIKARtX1tKiNGBe/gsRFGKs89EgrXFKN5N4oL9975D9Eq97/C1ugjQ5xKaWsqyszc4feYciQkZyEwiuqnDx9qHodM3cvbSHXLt9RISy9tYjrfob5OES9i4FBNgLOyISnXVHdu35ny6WqvJi7By0NeHpx//A62//ifOd/uIc93+kZtd/pFHXbw46uXFTP9QGoKsOMJMDJBHUhYeR35IMumhGWhiclFqi5CJykKTiHo7ovD/7JPUf6T3/33h6tgqlAf7SEaSncUZ359M/5bnrVO4vj/W/uo6/DU1eJty8TKJ/H4NSnUtvXQmckrCObzCm9ZDRpaMiWRon1ISMmskb0VvkxMvff77hctfXyhBaHsYSuldPZqLD15w/Pwlavv0wVnTH2fdBNxNU8gv6yNx/FRFg3EPm0nv/GrSHG6peXfS/LUUuofRMGE+zU9fcfn2bWr6DaFXWhWp5QMYMmUe/cctIDHXTWSyi+KBUylpHE3l4LkMmbqctNIGMmomMWrWOqr7jSDCInJDIqoqJlDw9VKclPQfz/CZ6+g/diHWgjrCjbXYakZRN2QQ4QlulJkjcE+aT0l+A40TF3O7/TXnrl2hut8YIozVBGprCUmooahhEjUDJ1E+cDxNU5fjcA8n3lqMpWQY7kmrsLuHMGbqBiz28Sxbvpni0v4k2CfQZ+gCSvtNos+EJdT1G01KbiWNY+dz88lLjp+9QP3A0UxeuU9qEXBV98dVPYLGsQvIrRnHkPHL6DNwNGprEZqCRlZsPczKLftRZdVgLRxInzGLGTZ1NY4+4+mV/K6QRIiO4Dta8wkx5Umsx0CtXdpa9DeVI7c6CLIWE2oqJthaRIC1AGVOBRuvXOf6tasMGz6ewbPWUt9/PCG6QnT54zl64zHz5i4i2mojqWYspf0mEJXolATWX+JVikhJeKC5JLEVyJUexkYi4m3YYqwMDIthfFg0s5XhrPGVc7pHT95+/A886fp3tH3yMRd6yDjb3ZcHv/6IM76/Yr1vLNP8EigPSUETm4OvwUEPUyUexlq8dW4CtC78RNGNtoBgtR2ZwUY3iw1vfSX+ogLpJ0yq/2d/LbEt7BURhbfSB0Vg+LuqQhFxdRZn/JTn9ucoXCJP7a0XuaoGqTLY25yCp9GFl64BmTlVcvzwFOBysfA1FBCosyPXVCBXuwmJq5PK3j3MFXgZKgjUlRNqysBVGsahOV5cP5rMhJFJRJtS8Ve7pADBX9RDCL9GY977hUv01fiKPUi9DWvpYPZcvsPl+4+Yu3wZhRUNpJQOY+P+c2zYvBVjQQ1NM9dx5uIt+g6bwYFTJzl9/hz79h9iwuwlLNh+gGe/+z3PXj9j9bo1lI+cycYjhzlz8TinLl5mxaotUtn5hlMXudh8nh1HLnP/eTtnLpxg7f5mrt99yq2WS5RUjpTyQ/6mYsKTK+g/ZTFHr9/k0p0XnL/xiNXb95BdOI6Nm3Zz4fxadOkD0Navo/n1K9YOm8WSXdd48913vHp+h2VL1hJn7oOvupHonH4s23qAu3dus+/UMU60PuDc5WtUVfVj4NRVNLd/wdlLlzh3sZmSMRt5dLuNEUOn0Dh1G20PnnLoTDOnb9zn7rUrTJk8g7kb9tH+9Xc8e/KQRcvXM3f9Ye5/9Q0FNUNYuPoYbS9fsPvACS5ebuPWjWb69R1Mat9xHDp3hfEzFhKUUkWfCatZveso+46c4+ylG1QNGk+w2UX9xHXM2bKPpTt2S4ipxes2Y6+fgMLgIqV6HDO2HmDh9j2s2LKHNZv34RgynUhHf/Zeucbr16/Yf6KZC/eec/v+Terq++JvGcmMvWe5eOYEyQX1jFl3hC27T5CUV/dBgeiSUICPoYjIWAfhcS5E/jDA5CJS46BPkIX2j/6eZcoelKtiaYiLYFiIjuGK3tTHJeJUGcjSmIg1pOJjLZTyXV76KkLiqomKFrnSarwM9XgbqgkS4qVNx0+fj4fwYdN3CtdfMuGK7VeviEh8grxRBIYR+q/l8AL5lPfBc/yXvE7nY78fUfxwPH6WwvWuBkD0YMlFxbcpAV9NLfLY4dJ31lfbKHkjSmkZQ7GUxumoSxCCJ2yjqjvy6qYaYpJzGDcogCs7fTi2VE+l204vnQ6lPlfyTpQZ6vDW17xz3fgA8slHLXI1go5eRkhiJc4hs9h69CJtL7/g9Plmhk9cwsItx7jU+pCG4ZPYcfg0B46exzVsCY+//IYr11uZPHkOeY56HAPGcePFF1y4epXqGjcz1+/m9osn7Du0nWOnz3LzVhujZq3ieOsDrl49S/mgGRy+epOvv21nwLh5jJm/ire/+YLRE+chM9Tga7JhLRvG5tMtbDl1geoh05i5Ygd3nj5i5LgVnDx9hrb7+zGn15HUZw0v/+t/Y/3I+WQ0TOfBF285ceYYOcWVKHWVeGjqiMofyMaDZ7l3t5XhUycxbP5SHjx9yYplG5m+Yicvf/8vrN6yh5rGodjGbuWbL75i8qTZDF+4mzeff8b8VZsYs2gzzx8/Z9GSzVSPWEhL2yv27T5AadkAJizdL+GVCioGsGLbeX7zmy+YPGs+g6eu5OVn7cyfvxjbqIVcvn2TQSPGEGAuxdZnLDOXr+XA0TN89vU3zFm9mV5JLuxNcxixYBVj5i9h7KxljJwyhyznMOQ6JxaRS5u3itELljFh7gpmTVtCkXMwUTluDl26zv22x/QZsxDn6Hk8/y//wo6dm1BY+jJw0Xru3b1JaskQUhumUd13KnFJ1R+c1LomFEgNhFGxxURHl6DQluBptuFhKSQ7xkpz1+6MVcaj0FbR01qFt6USP0MDwZoREineS1/MJ8YSfmEu49cJLrqLCiJDIXJdPn76cgJUg/nE2p9/SrNLdi3R0U56mEvo1ll1+MHz8sMJ898KlzwwlKBABfIgGQGhwo+rU7h+OF5/q9s/R+FS6LNR6gqlwipRkOarrSFQ1UhwTD8iovoSriolVF1KkISFK0VmKqGH1UbXxCJ+neiki0WA0MuJTbAxc1woj3d5sXu+iZSqCiLVDuRxojXGhbepEi+TSGGIwjOblBt/bwOyr0r4V3UUGwQaywhPKiPV0YcZS9fz6HE7O/eeZNjcrZy884Id+w9z/04rYybPJzR3JOMWrKK1rZ3m5lZmLFxPYkkdFx62s/foSVIzcli09SAPPn/JybOHOXDsNIePnGPk9OWcvfeIHdvW0Su9kQV7T/P6szsY0grJ7juKl7/9ksnT5+CnK0dhKSavYRxHWtqYvnojkcZs3EOmcP9pG3MWbuXMpcs8eXyclIxysvsv4eW//FcWD51Cr5w+3Gj/kk27dtJLnyxR773NVUTl92PDgbOcPXeWrLIysuoHcvP+E3buOMzcNXv4/A//gqvvOCK1GWQO28BXn71l8qTpjFi4nacP7+IeNIL8AZO5cfMBsxZtIb1qPCebH7JKsA8TShkyby+fvf6Moop+LN1xgbftd8m2uzBWDOf+i6csXLaC4hHLuH6vhYFDh6DLH8Dc9TvYdugYa7fu4uGL5yzfsZvYFBfVI5cxdfUOZqzZwuyVe5g4fxXZrlFSYUNv12gmrdrJ9DXbmL1yF4vnb8LlHktsQYMkXFebb2DKrpGE7Mnvfs+x4wcJMdTSb9Zi7rc9IKF4MAEJ5URoCiW35Q99iQMEj1DjIlBTjrcoNjFV0d1cJZlaZsRkcNWjK8t9ehETVSWZT/Y0FeNlzCFAXUZcpBtNRB3xUXVExdUSLMwOdcKbLAdvYZkisQ2FEJbzaUIV/job8TEZxMalohD9a51bhX/2GPxQuJQBcgmyK7YKOyOuD0dJP+Z19nMUrghVAWHxojagmi7Waj4x9aNrYg7dk810N9ZJhWtSxbZRuHGIGgWbVKmsVNXiqy+SsHCRujLmN4XxZHc31kxPwpReh58pBf/Yvvho6vDUu+ghisEsxYg2mz8Wob1XuEQzrr/Whq+uGEvpUEYt2UHF0EmMmbOYe21P2LHzCOlVo1m2/yIvPnvNg5vN5DgakWePwjF4LE1jJnH1eivnWu6SUt7A6banXLh1B2dNPdNWbuXmsycsX7eCASMmMXjoVEr7jOPk7fts2bqBsMxBzN53iacv72DKKiWzaRKPfvMVcxYuJ796Mk2TlkjEij2nmjl04TINgyexdN0e7rY9ZMBwQfm4xNu3bYwcPZPJ647xxX/7/5g3bhIxuW6uP37NsdOXKKpsJLd+JLVTVpHXdxKb9p7k0cMHjJ4zm/HrdvDki2+YMm0JU5btpP27P1DSOJm4xFJ6D97Al5+/ZfK02QxduJ2HD+5SN3I8uUOn0tz6gJnLt9G7ZhxHmh+wb/9xXFUjGLH0EK9ffUlxVRNL9lzkzfOHpDuqUdeMpfXVK2YtWkXWoMVcvHGRsePGkV83jePX7rJ+9wHmLF3Hg1evWb5zLzG9XTgHLWTamj1MXLaZ6SsPMW7+RrIrJxGkqyKtYjwTV+5m8srtTFu+jxmLdpDdOJEQW192X7nO0/Z2mkbOZMLCjXz7h98wd+EKIg31zNp8kJv3H6PN60dS5VCcfcZKdjUf+uIKOxiZwUF3k43upmJkRlHMUkyItpicmAROef2KY919yQvOw1dXLfXqyfWZeJrT6ZJoo7u1FJFoVQhPMJVDymUpNcUEaouRq22ExHZ4r2VGpbDBU86+bj4UxVikSs8Pva/O331/MlaKdoqoaHyCfFDKRXGGEkWINwFSjqsz4vqprpefo3CFaDMkLFwXYwWfWl14aSoJ0qUj1ybjFztY8kEUxsIyTQUBFmFaK4yAy4mMriM8PpdkayrLhkfSdugf2b5IjTW9VqLn+JjTkOkq8TKW4WkppKclBy9zgVRZHaB2E6Cpfn+Oy18QLgxidVuA1TmEnVfbuPz8Jc1P2zl4/jrVfcYQYsiTyArPX33Grh3b0KRXYq6cwc6WNpofPqb14UtGz1iMOt/FzO0Haf38LZv2H6dy6Cw2HjnLjUePuHj3CcvXH6SobhLbT19j5YbNhGYNZeKWc1xvu4c2r4GsATO59vwVU+ZvYMys7ew/fxN73RgaRkzlzI1b3H7ymmv3nzNv8QZ0KU1UjVjN/WcvePDkFTsvP+H2N98yZtxEwlLKWbblOA+ffs32Q6cYvWQN2y+30mfiUrbvPc0Xr19wpe0+p1+8ZcPBs6Tm19J/6jpa3/yGAvcUIswlJA7ZzINHLxk1aQ6Nc3bT3HIPR9N40psmcfLKDcYtWE90YT/m7zhO24vPWLXtFBPXn+D+k2/JqRjMrK0nePjwJYn2enR14zj34BXj56wj3jWFfSdPs3TZKpIdo1i16zQ3n7Rzovkh1x5/ycw1u1ClN6DJHkRsViXxOdXEptcTl1ZFr6RG5Fo3wZZqYjOriMusID6jHlVGLbLeFfTMb2DtucvcfdjG1VtPaHv1hlMnD2NOc6JNHsauy3fZcuAkqrx+zNl6gOWb9xKc+OFckjLWibe+jK4JdnpY85Hrc4iOzyQuJoOMCA07PP+Ze5/4M1qWQVSMIAe4CVJX4G0qpktyNl2TsumRkCddmJ7C8sRURhdzBV1NHRFWL3URTUFarnzahfaPPmJdQC+S4rPfUVS+Pzn/VJPPf8bXERGXdy9RnNGR4xLCJe8Urj87Yv2xzvnPUbj8DE6p77OHpYEwq5ohNV6sb/JgRR9fFg4KZPKwCCpcOiI0Fvz0NjxMDnqai/E0FRGtq2HaIDUPj/6CA+t0ZNnL8dfWEaAbKBGGBD2jg6TRQdTwNhbjJxwnVI0EaD7UxxWXj1KUl+vs+JkcxOXVY7LXk+SoRZ3rJsxcSi9dOmPnrqT1wROGjp2OMqFCuj++eAC9SweRmFlNL5PAL+UTklaFJqcac04tEUmVqHMrSbJVY7UPRptSR4i1BnVuNbGJOXgbaghOqcJYUEY3dblkXW8tKCcq0U1U7wZ0eW5CLKWEWovR57vo7RiEubAv6gQbfupavC1NmPJqScuvo1d6H9SOAURbivAylBKVUEPv3CYM2dVEZNqJLqjCUjyE7bvOcunscWqGDEZT1pf4zAoiLHZC0urRO+oJM5Uhj8/lk+QhpGSXEG3JxStpANaMGkITq/BPriAh00Evi51uujLC0ypILqxGleEmPM2FKbe/hKeKzHBiyh2I3OQgIKUUfX4TUWI7LHsE0xdv4fDRS/QuG4squZrk/BpM2X0xZDcSlVyBUl+FXO+WLoIAcwl+ot9KuA3HV+CrqsdfX4nCUoLCYkdhqpT2lj2N5XyUXEuvbBfJ2XaSCvujzW1En5pNpLWILMc0zj99TeWg8Rjsw9hzvpnJs5YhU30YvSRT9cPf0EhoXB75QVpme4ez71MZZ7p0paXrr/nyk3/muFcAOb2S8DOkS4gnTdhgvLWD8TK5JB6Zn9SSYCdQW0KwyvkO/1RJj7Q0FniH8eYffsEFz08oUpmknsIIjZMwQV3p3Cr8s8fgT8IlQx7QkeMSEVdgeAyK2E5W4U91Lf0chUumraGHfgA94gaSV6jizq5/4rutSr7Z5eTuKQ9eXArmzO5cbI5k/LWZkh9fl4RCuiXkSrnvqvoqho9KJz+zjHB1LZ7WcgkxqIgX+W4Bq+hwq/cToAgBV9d0VBULyPp7twoV8SUoRCOwQdAvnBLVQfDxfOPT8TA4MTsnsHnnUZ5+8S1b9x3BkFuFl6GcSHW6VCkSqK8gON5GsLqUnvEldBXPZ65ArhHVimX46gsIthTgb6xE9Jp4xotSa8Hvy5JAigKT5G/KoauhPzJVCb0MWfSMqUKmrcbXVEZPwVHUFeOhz8FD68BDW0KoMZ/AhP58bGhCFl+IIjoXD1U1XfVVyGJL+VT0IanrCdP3kfq+PKz5yJIcxOcOZcvO85w7tk/Kcfkk25CL8uu4PHqaK/G0CLai4GUV8EvrQKK0vVGqs/nYMBClqhSP+Eo8BFcrNhOFuoSuBjc91EUECQKyRBbJwEcniPRFeGoz6B5bK1XKeGsz8Y4rlbb5PjY3kpLfn4ULt1A7Zi29jG5C1LkExHVge8SFL4sRJ64BP6NT6n3y0FTSJboQj/hqZKqGjl4y0TRtEBzJKkJjywiMK6enpY+0pxyuzcVbU4kspYnuop/OmM74+UcYPG+JVIoqt1SRUdKANdGGn1Zgrt4f2fw6sQQ/cz6poQaW+MbT0jWUO108Oer7EauDujMpOI60mFy6JLr5VVoqsoQUSXTEFqEAZ4bG1UvVg6JHroepFA9TKTJDGUqNg36BRu7+2oNjHl1JUZtRxrvRhddLPR9drZ2T7YfOyw9/FyQILFEx0lahqCpUBMglVqE8PAZlXOdY/nC8/la3f47CFahLxceQRoB2AAU2Aw8udGFpQzDJcS4S+nVhdP2nDKhNRmsUPal98NHWSznxEFUZPVItfJTkIlw7nygRnBiS8RCVysY8ItUF0g5NoLoBhaofclVoNhiwAAAgAElEQVR/pC1CiS+bh5/hA31cvnEFyPWl+L0zChSkCh91MXKdWM0XEJ3Rh4oRG6ibtIq4rDH46urwNefgI5p4NeX4G9PxMWXjpXPjaahFZi3A22SXytn9dHYJqiozuCSxEwQJ0WAr7vc0VaDUlBGmcuBtcuBjKiQi3kFofBUyYwUKbTGBwllXUyk1/IrtKvH3XroaPPR9JYuNIF0RwYJQYRRhabnEvpLr8+lpFgSIchSqDgKEp9GGt6GQGHM1NQMWUT58MXEZboJFpYwggBgcUqGAzCRez4FSXcxH5iY02iTCtel8ZG7EW5uHh8BM6Z1SFY2gZnQ3liDXOwjTOCRx7WqwE6F1Extfi8BT/SpRlHZWSpV4HmZBq3Diq6mmp8VFhDqNXrF5fGppIFAjfK+cdDPX09XcgKexErm+kBBdNoJoIcbaV1fTQQwx5hJgSkNuTEehz0ehFc7VxRIr0kfXR6JdeJsL8THUSKBimdStXolnQgkhWgc+YizEykbgpyzVCOiwLD4LnzgnAZoGqb/KS1+Ot96JnyjIMDUSos5HEZdNXGKltE0YrC/DS1uFQhT1aKvxMWfipSvE39hAoNWBrykTP63Y6y5HHj/gHRorh+jYAUSq6/A1FRCkdjPML5B7/xSILSxVWqX5RVfzsa4CmaaEHlobXY1OuiVW4mWuRKlxSSBOhWA+mj8cJf6tJqX/yM+rUDvxjYzCL9iHIHk4ykA5gpyhjIjtFK4PLMx+7HP6cxQuX7OYaxJR6JNxZpbz9OwnVA1RSyi+m1v9eL47ksQCGd3MOSjjZxAc50ZmzubThA4n9I4x7vDb8tOJ+f/9C+Xv/U7veH/E5S8cggXEVmPDVzAGtQWEW+3Ep5YRnpBHgN6B3FBFoLkIf50bgQPyNWfiKwlXDX7GXHyM+XhrG/BS16BI7GgeE4k1kaQTzawdUUil9L+4Le4XEY5gHgaLCEMQFcwlhKjFSrwKT2NVR1OseA5NLX7aKok5KDBLoifAU9dPEtAgjZ1gUVhiKMfTWIePvhql1oZ/gkj+lxCmrcJfXYa3WUymDgJibPhGFSDTFCM3OVGaXfgbBcpJsBDLJDFV6O2EGWx8YhmAvaSKKEMWn5gbUZjteJkE51C8Z8FQdOKZWIVCVGIK23qx3ZpRRnrhYDRipaEq4JMEkT+qIEhQ5I3icEhcQk9zKdH6TFSGUjxT+hJucaEQQGOj+OzVklAJ/JVSV0CAoHUYypHp3cgMVRKI2McoQuwOY0dBvhDbiH46IUL9JSCvQDWJBYY4X76mPIlU4SHGVxDxjcX4G8VCpRR5ag3a3DrCzbnI4+0oxfakrhIBDZZp7fgKGK/aSYypgBirHX2Gm+TMMoJ0xXiJ86h24KupJDjNhsJiQxZlQ2kuJianlFDxOfR5dDE58UhMwztFzT8n2/jULIoyComO6Mta3wAueXiQHa+he4qFHr0z6ZaSgUdSGkGGQqLVZRISSxiFCgsZsdARn71bQieg93tfcJ2IboVwRRMQ4kuIMvJfizMUnRHXnz9R/rkT6gce93MULn9djcR+9dYMwJFVy5uT3RhZnYzdmc1vLvw/3Dr69+RkZRIQNxR/dS2+5hRkVhMKVQXK+Pq/fvz1pe8XLkFU76CqFxKS4MDefzx7z7Xw6rd/4MGXXzNizk5CTBUEWfNQCtK3VjSgpkv8QQnnoc+XQroAdQPBpgZUGWUkF/dFEV+Gvwj5tB1kBlGnLxBIHbfLEFxAwTAUK2iRyBdRl1Irti1LJB6ht65WCjmFcAWIcmyt6Ma2I1c78dHVSwm+YLVDQib56qvxNIiu7kpJVPy0GVhz3CRn1xMkUEOGEkmYlPoKlAYnfvoihHeXRFoXRHxBKzZVIiKuQG0WfjFJpI3YxGefvWHEpCV8rK9Doc7voOSbygjWFkkTqEdCJdq8vmh6VxCQWEHTio18/ub3lBYOoEdMKl7mQin/FKIWyChh+VKAj9aNuXw4q7YcYsTkzciSawgx2Ah5BxcO1JdIqCwR2fm9gwJ3gIHL8TZU4S0QTjqxXShQUlWSKPmJ8lFhzKbui8BniShNFEn4axolLy0xrjKjgxCtiIryJTyUvyaTBPcwjt64x9rt+1EnOlHE21EIqr8uR7JeEWBcXcEATlxspWrgFLYdv8SN2w/RpDgk+xilpoD4jH5M3HSYKWsOoE2uorh+FFvPXKNx6HyM6mw8tHX4x/dFqa3n/0wfRqTOylzFL1nr/RGPuvjwzS9/xalfhXD274M483+Hc/gferH44zhcgakkhRcRKSxfhIePhPtySYuHrgl/XL39mSu3D0w0PxSA/6y3hXD59YomMNSfsOAoqQFZEeyNPCy6M+L6Cc//z1G4FHFDkOkq+MQwjIL8Ur458vesaujO4qn+vD3+zzw+/ksqHQn4a/KRWVPx0tXir24kMsZJSJwAnf+V39MPCZcw9pMo6fpCkl1NnLz9mOa2R8xaupj5a9czePI6zHn9iUjMQqG1EWauQJVTRLi1glBTHdoCMblVEpPUl1THSM7cusfRCzfQp1ShNNqISChFl+NGm11NqLm4YyWdWkl0Sima1DqMeW7Ck3LolezCkutGm2YjSFvcQU/QVUlYoGB9EfG97ZhzqtCnVxNiLUepL0eT7EKbXkaAoRp/SyOq7DpUFhdJ9gau32ln575T6NPLCTCX4yWiOH05EYkuYpMLie3tICqzXnpdpdibTa5Bk1NDfEoR1lwn4SUTWLxoBdnFtcgS+mDJqCIuvQZVXh2G1GKpYKR33SSOXmljzYY96PMaGLhqG29ef0dFQV9CE22o8uxokkqwZPdFl+Yg1JhLRPpwxi7bzq5DF0guHokirRJzfj2WvEZUKU566XIJ0oitPyHGbnyNLsITHRgKK9Fk1xJqqkKuribY5CY+qw/q3CpissrQpFcTbqolMq0GVZqNEK0Lhbk/+hwH8WbBdSxDn+ZCV1iPIbeMyIQ0EmoHc+TadXbt2U3vrEr0qTUkFLgx5rsITbSjsLhZtfscJ89fJvp/VAau2nue2633SSt0oct3o0q2EazNxzFyDjtO3aBf02TiEwuYuW4nB45cosDRyC969yfOMprkmH78s6WJvFATjz7+hPaPu/Pioy687PJL9vqFcfPTIO5+EsTFHqGs9VVRE5mBNa4IhaaAHgbRC/LOzkWCJP87vgx/7ZfoP/jfScIV2SFc4SHRhAWFIA+WERga1Vmc8ROeu5+jcIXE9sfLlMU/puSSUlzE6+Mf8eL433H7opULq9L5dl8oM8aHE2AopJvUoFxHYFx/fPWF+Bj/HYDnDwmXt1ZsO5Xircknyz2Cs/efsevUGQornaiTEkm3N7F440mGzZyNqrcTR58prD98DEfjdPqNX8mhlhscuXmLkbO2sGjDEZ6+ec3Dl+3MW7Gd1PJGhs9awqFLLew/d4WaoWOwFLqYuWE3i1ZvZtWW01y4+5yR06YxYcYmztx4yIZd2zElldDN4MBTZyfUbCeztIHFG7ZypqWVnScuUzd6Osb0CuYu28C6vfuISq3HUjaa/ZdaGDJ0Nou2nebl2+949PQ5M5duRmmtkUQgIr0fYxduZvvuPazbtoeD19uZt3IH1iwnruHzOXmhhdkrNnHw3HVSh67izKnz1PUbSfHw1ew7fJH56w6w79JdtuzaSWnjMKasOsTrN9/R/ugR0xdsYfTmk3zz+R+oKRrIyMXb2H/hNLMWr+bYtSds2ruX1IJyLOVz2HL8AvOXbyIiqZGCpolsPHiJo9faWbZxPzl5IpeTg0xXSzdDH6Iy6hgzfRHnbl5jz4nT1A+ajMpaQnm/iew62cze85dYdegw6/YepbBqNGNX7mTRhvVokp30rprF0csXaew7lpiURlbvOM7B5mfsOHGWiqZ+9G4cyvEbzezZtZ0CR18mzNvMkcu3OX7lGuUDJ2KyjeHu8y8ZPmoMoaYs1h6+SFvbA5au2cDRG09Yu/MwvfMr0dgHsWbPBTZv2oMhXTR2j+fi9XuMHDGL8KKB7Nl2mEWDm/g4M48AbTZupY3SgCZu/DKaHZ69pO1Mf0M6SmMiPtbeeJtKEGR5uS6XbtZCPkm0ScIlKueC1R10+b96FfcTTmI/5Xv8Y47LRyEjSB5BaFAwQaE+UsTVSc74K1f8f8W18nMUrtB4F566XP4pxUpsZjkHV+dw7UQvJk7MJyc5mfZtsRzf5onVYicwbiiBIurSF/Brs5Me1n/H2H9IuHw1Hdsu/no7cVm1zNywj+vtrznb2sr4efMpqR7B1gOXON58ieLqISzfeoxzra3UD13Ikze/Y9/5U8xev5KqQdMZNXMlz755TUvbXYZPns/YxSu49vgpu48f4/ilC5xpuc6AiZM5erOVJ0/bWbnxNDfaP+OrP/yeTVuusPXoOV5/+5LhQ2biaRYWz3Ys+W62HjjJtXv3WbJxK/vPXedK22MamsZz5MQJWtpuoM1ooLBxKl/+l98ye+pKBs7czuMvvqb55lUGjJ5KkFVU/1UTndufdQdP88VnT9ixexfrjzbz/PNvGTF+BmOX7uGbb77h+r1nrN56AMfU3Xz99mvGT5rFoAV7+Pab7zh0poUNRy7w9NVjZi7byIhZ23j85CXXzp5gxOiFDN14ii8ff0NN8UCWHbrCV//yhh37D7Fszxnav2xn6v/f3ntGR5WlabprzZq15s50T3dXV3VVQiLkvQMEcuEj5JBAEkLehVHIey8QCCRAQiDhPcII70F4743wRhhJCARCmMQkCVVZlb2m73ru7EPm3Jq6TeZU5lTemsr8sVdEnFDE2Tonznn3t/f3Pe/shURXtHL6xnWqpzThFlJEycyFLNm4l1V7L9D36h2L5yxCE5TEYGUOA3SlVDSv4e3b1+zc08bRkye52nGXCVNncuTcZS7c7mTVjr2cvtfJrZ77FIybzpoTF7l46yIjx5hJqFjB5394x4xpM4gw1LFu9xEWbjrGlbtd7D99hJRJzRy7foUD+/YysWEpp2894vCFiyxetQJ9XiXmcSvo6XtJenoWTuoo1hw9z+efv2bXnn2sajtB99MXLFm1HrewHGYs3caJoycJN1bhFTuOQ+eu0bJkM2EZTWw7epXZi1fxq8hc/kWUHgiyhjqNo9aW7LH0lAxCRcKOsy4Ky5GRku2MoO9bBCXxm5BUBgZ9WM8bIk/DXSk8zH7AxfA9bkY/pgB9332J5BVXfzluXi64OQ3FxcFJirhEcoa77GcKyfc9rn/u5/4WhctdIWa18hksDGXlBUSEF6HPTMBTZHhr0plfK6fj1EAWTrKRbEq8VSNx8dMzWJOOVcAPWI/+NuESRF5HlfCtSsNBlYLf2CwqZrWw6/w1Op+/pGXtfuYt28b1+3eYsWANJy/fY+H6VcQYx3OyvYPLXR3MWrmchMzJhCYUcKn7HjuPnkQRmsrCzW3c6u1jw86d7DlyiIu3bjF9cQsnOrpo23MIXWQxKw+dovfVG0ZHTUBfVU/v+36aZ6zHSmPERWskJbeOc1fusWztZhRhsRKD787jZyxYsI4zp89wq/sKwTFVmMvm8+73X7CwYTUjxlRy6/FTNu3awDBloOR3ZaMtxje2lNb9x7nSfhxDmomownpu3n/Ghp2Hadxwknfv3lE1qQlfdTiJU7bw9s1bps+cw6Tle+h/9ECif6RWzeDmw06aVu0iMqOJc5fusmrpEtSBaeSs2MfLR8/JTClj/t4LfPa+H0NWERFZdTx+3s+SxctIrtnKtc7blE6YgtPIYkyVE5m5dC3Ldp+h98VrdqzbQFBIApaqXAaPrGLXmZu8f93L+o37adt3nPbrHbRu38GVrodMX7IBv5FGmtbt4Pb9LsonNrPu1FWu3rxEREw2pknb+f1Xv2dewzRi0qYwd2UrS7ec4Nqde5y5fJbsxhUcuXaNXTt3k18tgMjXOHzuIouXLyQuNZOq6VvoedhPYlKKRKpffuAcnffuMioikjFpJVy52832tjZcRuYxbcEWjh8+TkTmFBzHTmb32ZtsWryO4KAyPMMKsAk2YaucJK1X2gercQoOYrXXf2WnjRuefnl4+hRJgmQXKKYWsnFWZkr1eFbC3FOVxlCZGS+ZSUpK+ST05xqvP72hushNknDJtH5SVqGHqxtuniLi+rmO60+P1V/y9d+icDnIsrAV+QVqPe7yAuz9KrHUxmATMAY7/2qCoyJZMyueu8dtOb7BnuaC4ZSmyBgdNwb3H5JI9W3C5aDIQCzCi0QKv6hC4oqmEpCYQc7EKdzufciBY5corV3C/varXO3qoaO7i4ySEvyDC8kqqmND227uPnnO4XOdjE7K51JXD/vOXCI8OZeFW3bT+fwNu4+cZPnajSxYuYai2gaOdXSyZutelOG5zN95mOtPXqAKLyKpfCo9b98wc/ZmRkQWEJE2WfKsOtF+W0ogCE80M2Hmcm719FE/fTGnTp3n8bM+kkzVTGpYwb9+9Xtm183HO6aSy49esO3QXrSR0cgis9CkTEBjKKX1wBGu3zhPXnEJ2ZMXcOvhZyxZu5PGNQd48+5LzAXj8NHEET9uBS/evGVa02wJt/S45x4FVROIr2yW6Pkzl20j3DyVQxdvs27TVsJGmylbuZcXff0YDMUs2HuR16/7iDcVEFk4m97+fpYvXUjCuFbO375Ded0sAjPnsPvCVQ6eOsuCDW109vaza/1WxkQaiMiZjntMKdvPXuH1m3727TrPio17aVq9iWlLV3Pp3mPmrtxOcHIxy9sOcef+fSomzmTzsUt03OnEnDaeyY27+cO7r2hsnEnrzvPce/YZTat2cKj9MkevXcbUsJSD1++ya89xIjNqSK1ZwJK2fXQ+7WXp2i3UNG/i/uPnJBsz8AiIZc2h83Q/fEKKORNT6XiudnWxcvM23MNyaVi0iSPHjhOeXYdbzAT2n7vC4hXb0IzKR5mUg1dUEiN8c/HxzcVdqUfpb+Cc9T9z9hNn5F45OMry+CQkHesAI46qTFwVopZNJPakSRlzQ2VpeIgMUZ2B34jasu+InETEJprT14/i+Xd95v/k912F06yPP27D3aSpQk9Xj5+F6zt+I3+J8/03KVyqXBw0cbipk3CRC+f4fAZow3AeHYyd33hcNUbCAqtpnj6Kvdu07F4RytIZWtLzUxg+SmSEf78ZElvtt2QV2iozcBD+RxoTEZmT2Xz8Kqt27mXP8RPc6+liQct6dMkTmbnhBE+/eMPp07uJiE0jIHEhzcs2MXv5Wq71PGHj/pOEJpjZdbydGz391M5bTNWCZRy4fIsNe44yt2U9tbOXYKyoYd/Nuyzfdgj56CSW7jjIpf5X+EfrSS2bRO/bL6lftIHC+mWs3HMKQ+k0Zq/exukbgum3h+Ptl9h76hKCwN68dAN9L9+zrW0/+w+d5Le//Vcaps/CL7GE7efvcP7eA6bOW8i4xiYW7diDYdIMNh05ypNnD9mxZw8HTl7kWtcz8sY10rBwDY/efImxrIYRgbkYyxbR8/YLJjYtoLF5Dfe77pM/vpq4ymbO33rMnEXrGG0oZNPZ65y7c5/62unUrz5I/4vPic+sZPGuC7zsf8JYfQEjcxrpfPyMRS3LGZ3fxL72OzQt3kRUbhNbTl7l4PETrGrbTuezp2zZsofyymkcuXSLsflVVDUu5n7vG9p27GH2ilbK5y8lvrSGtuOXuHD5Dlt27uN61x06+u5jrqxi5up13Ox/zfq2Y+w7fIbP3/+e2vqFbN91iO7e56zauI3zt+5y5FoH2dNmc/jyDbbu2E1x7Wzqlm5iwcadtN+8x6zlG9FXzaTz+Wvyxk3BWxvFjsPnuf/iD2w7dIrdp45z/t49MifOxT+mULKL2brvIJqUIkZm1dB+5TJVzWsJ1VewdstB0grG46hNZFBAOhaB6fio4jhmOZg2axdG+ImyCWFUasJFkcmHWg9hTvr9fvDi844qg8RXc1Lp/8fjN2L2/b/3+/bnL/85F0U6Dr4yHIc44+YyHDdnNwmy6zTEB1ffH7BA/r3PwV/+f/5rPI9/k8L1Hb8BsdwkyEueoQZUiYJilC75KDooDTj8AKdzq6Ckj6fD24taGV2mNFXoP7aYylnrmbp4I00tmyWSe5i+HLcQMxMWbKBH3HznLkIRlIJv/DTGN65g+pKNTFu0gbFZExkRZiAuv5aaeevJmzKfQFMJ6ROamLpgPQ0LN1Bct4DIzHHkz1hGamm9NIrXVzVQPncVLkFxyGLSqV24hticScQV1VPetELKpAtKyGf8jOU0LFpPw4K1JBRMxTMkjcCUCiYv2ETj8q3UNLdSv2A90aYy3Eblk1QxhymLhPHkbMwVUyicvpiIwqmsO3CSax03aVm/mYYFayibthRlVDZjMqqZOG8duvhsPDVFaGLrmLxkPRFpVcQYpzG5sYXAhHR844upaFhOUtYEho3Uk1w9h6nLt5BTXEd0yUymLF6PX4SJlIomZsxtwT/UwLDwAqpnrSOmuJERieNZseMkO7e3EZuaR2pJM1NntVI8bxkTWrdiqJpBTNFUxq/Yijq9Ar/IdKbOXEvT3A3MXLqD/Gkt+EXlEpdfz6T5G5myfAsHzl3mRmcX+qJyggyZVCxawcTWdeTOmsmklUuJShnPmKQKGhdsY+bi7dTMbKVg0hKCUqrIrm0ibXwFKQXVTKlfxbJ5W5kzYw2jU8fjHFvF/su3WbFjPyMC4imYMJcp8zbRsHgTjUvXUlQ7B5/wXMaW1NN26ioNc1YxJNxM0bx1nDx3jZjCMswTJnGnt4+E9CIprX2gRiSdZOGtiGefzS9Y5eGMq9YgmZmKuo+h/mIglYL9D1jHEsQWUUD9TROC6KDWSxbiEtrsOy7Ev8Yb4nf1SVj32I7ww87dAXeXEbg5ueLkZoOjp7A1+Zmc8V3H73/X+z9F4RKwB1Hva6uIw04Vi72gIQmwg1osP33/Aai9LuHjwuWoECNSoZgC+5SOa4Dg4SXjpknFMygbn5hqTFOWsfvCDU6fukGGvhovjZFPA9Ow8x2LizIB9wAjTro0HHXpWCv0Uv2RnVqP4OzZqxJwVCTgJE/ARZ0sCY6dJknabukf/YFVFZCChSwaK3ksLoEG7BTx2MrjcVAm4ShqpvxicRYLzMICXp6EvdqIldqEtcaE28hs7CRnYD22sjjs5PESA9FaIYpWU3Dwj8ZDm4K1LJ7hY8tYd/ASB06eY6whHzfVWFwFSUKVhKU8EQuZKPiNwVlZiIMiD/dQAzaKeOzlObho0rFRjsVKWIGok3AUfVQlYR+Yhr3GgPWIsXwqtgWmYuE3Blt5FM7KOGz8YrDyE33OwDaoANvQLAzVS9i5ax+FxZU4+aczdGgksmGjCJYnE+CfzHCB6NHFYxkYg3NQLNrAROqsNJjdgwjyj8TPL5Zhw+Nx8E1kYIiRSa3bOHe7G31pDU7aWFyCjDjqTFjLknHTZWCh1vNr31gcgtKw1eqxVCRhrTFgodQzWJEs0d+tg/Mlfpi7zoC3IMD7J2KpyMRc3cz2UzcYbRzP0ACBpUrEU7DF/KNx16QyYlQRBc0radl2hOjkSnzjS5m27TjTZq3FZ2QmCUUzmLpsBx6hRuxEKr/MjNorlmzXAB794h/YaufCENEHTTpusmy8/NKk4/tnVdj/iRDZadIkUouVNgMrnXBeFVQVEQGk4qRO+gGR3F9vFOGqzMDe218SLlcnL1wl4bL+Wbj+5Lfxv0ugPvY9P0XhEjW64ng4inu+Vri0iyZei+3fX7hslPnfIlzyFByVeimkc9Zl4RKQjZsuEzeRrKHOwTexnsbNJ9h0pJ3SsjloVDmSJ9SnAnQrKBWCahAgHGszEe62VqpMCT9kI9m/C9KFuNiFMKZJzUmXga3KKI2GB8sFEipNIldYKQxSQbBjQAbWKtGfVInm4aQ2Yi834KhMw0GehpNC4I+EN5RJ+h4ngXpSGbFTGbBX6bFTibq0XCz9jTgojTgpxZSRCTuFAOJW0rjyEEs3HWRkchGuX1MkrNRGLDVmBqvNOOmicVTl4qLLwyEgBhttPJaKHByC87ANSJRESozgxf4FPcM5IFPiMNqo0hisTsJSZ8BanYS9MgFRamCnFP0wYa/KlEwgLQL02EdNZGxODWFJWXioCggeMZrVgx049YkjbZZDmeXkj3m4Fq1vIH6+IYxVRNJj8c9cHvgLjg38NQcHWbN7oCPrBzjRYuXB8UQT3Y1zmDs6hVSPEMK84vEdbsJ5RB4uiipc5Mk4+iUyRCPsBlLw8E9miCwVd+8EhngLa5EMbDT5/CYwi0GheixD4vhEm8ivAnPwDEsjtrABZUwJbjozTkqjJOIO0sAgA7eAHHSmYqIMxfgoU3AfnYsmbyrqiAKc5ZUMC6lFPqqcobIEtMPHUOwVQquDK+0WA3n5KyuWW49gqCxRsvV2UubgrhQZhN9PXOxFaYe4gHRp2AnOoy4dy4CsD8XlOjPC7VsMOn6IKH7shvX/93bBARXC5eDhiKuz19cRlzU/TxX+uIONn6Jw2UvTgd9AAcQ1KJp4LTTkm+1/3nmwVwsubcbHhctBnoqLxiwJl0AxCaFwVibjrknGSanHLTiPYNNEwgzj8dNlSNldTmoTFsGCRyjEIw0blRCbDCzlJmyUYqSfgq1Cj62wWvi62WnSsRfFaV83a3U6NsJDSJWOvfJDE8/FNvGeYAF+aELwRP/ScVBmSk2IoFh0/9CEsouFePH44eAMlqViJUvFVgijPBXhFSOoGo7aHGRR5YQkVTI0RNzIUrHTGbHVmiVah502C8eAMVKyiqs2A6+IeBwDY7DVCOtpM3YBCdI+rMVIXpshRageaiMuQqCEUGtTGRIiRCoZS5nAZ4mIM01y/xQ8wqH+UQzWmfh1SDkWguahEa6iWUTKRtE4zIkl7o7M9BhKgZeaUfJwhijjcVEa8JGZmW8nY4mrjJWuw9jsYMdxm0+5aflL7g/6ez6zGsA7e0cefbFYk40AAB6XSURBVDqIa7/8Nef+ZQBHfmPBngE2tFnY0zbIil2DbNg5yJZdn9qx+1Nb9gywYt8nFhz8xILDnwxm7wB7dn7qygYLV2ZZu5PrpiJ02BhcxI9QK7L5RBM0D3Hcvl4XVWViL7BP2mh8dVH4KmKl6G1AYDquCgODtPkM0gn0VzKeyhhksrHEy8OoGj6MuV62TB0yjCjfUClKFWaSttpMbAIFRUUAmtMQQvRN+y5hcNKmIZr4eydVCs6qRETUbyXhwLIkdqSoVxRR/3d91/+J77upMrH2ErYmAvnkI0F2ndy+ibh+XuP6sc7pT1G4/mdxEkL1jVh98/jniZY4V0K4hmi/ZarQXpmGa4CwbzchcEMBicXUzGmlZetBlm3ch7lkBsOCsnHW5EiAWeFuaS+m18SIVm3CRmWSCOgi6nEW4aE8jiGaeNzVidLNx04Q56X1hg9MwA83PjO2mgzJUVdAdJ0VH5p4Llx2BdvQRfRHElIRrQkxEFHVB6F0EvtSG6QmxO3DgfrARZR4hkoxp5+IW5Bg8qVgr9RjpxALhWnYygzY+uuxUQjhFdHZB+6f+B5ndRrOQaJINovYnNlsPn4B47h67GRGCRbsFCCmOwUs9wNPURghesviEA6hAlScN2kFR0/eYGTyeKy1mbgrYqQbqYU2CzdlLEOVsQzS5jA0upC8KQuIKZ0tibO/LJKh2nhctYLXaMZJlctAXQG/DCnlN4EVWCrL8PYbj6O6VIL2jpAlEz4ihjE+4QRowxgjCyJ/RCDVQ5XMdhvOZhd3jtrZcdHSghuDPuGo7WAO21lzwN6O/fb2HLC35YidJcftBnHa9lecs/lH2i0HcuVTa84PsmernQeThuqIHBGFs1oMODKxFwMP7YcoU0Sagg8pRlSiz/pxzbRu2YM5sxx7rZGBgfm4CpJ/YBLWgoOoicJFlYydwFCpS/FUZuLlF41jYBgWQWaJ8yhE3jrAwKcjE3DQpOOkEADf/1m4RALRN+2Pb0Ti72y/tkEJMtRSOnUFkYkFuAmXA2naMEviPAqElrOw7/mRp49+jP05K8zYiYjL00lKzhB0+G+E6+fkjD//xvl9z9lPUbgEfUnA0+0EoF3MoGlMX7/WSzNU3/dYhoZ9S3KGnVrclDKlSEKbWMqa/We5/rCP/adOc+HKJeYsWI27PAMbRQlWgRlYBcdgFxCPkzpLAs6KKRlxs3LW6dFE57NkwyFWbNjLCI0wAxTKKaYFP1hZ2IlRu8aEk/SPfZjyE5bwbvIPzfnraUARnbmqTLh8LVBSSrMAyWr12EtwWaNUwCrVnmnSsROWDgIOq8nGRpOFd6SJeWKdZfV+3IMNOGnE2oYeR4kXmI6DJlea3nMQNUJaEXEKzFQqHspUnAOScJLnM8bQyOq2Y6T8d/aeq9yMu05wDhNwU30jXJkEjCmiZfEupkxZjk+wiYaFu3n75A0JGXXYBxfjowjHWZsiUd891FFSBGATVk3ltBns37eb+Nw67AMSsdGYGCyI+poE3P2T8BRRojoVa20KjppkPATUVjJoEwQJsS2FIQo9w/wFXV+Ifg4O8hw8lDn4qLLxl5lRyTJQ+Wei9Ekn2C+WAP941LIUFLJU5LJE1LJYAmVRaORx+CjNDFdl4qM0IfePRTZiDMNkou6q7AMTUS0suDO+Fi4RYYlmxDnAiE94BuPnbJFIGeVVEySA76CAMtzUBgkIbCvI+5oEbLXCRDIfC00hHupsvPyTcVbn4Cgfj8zbjLdfMtaBSQwMjWWILIch/mKg9P8K1Z8+/+OLQbwnnJrFVHFA6iTW7T7P4qXrUYaK1Hq9JPY22mxJEMWA548/+7fy/E+zCiUjSQ9bnIcKOvzPBcg/1nn+SQqXZLEkxOtPhEsEOZrvLl3543MjDVa/vkaTjREfnyr8kORgxE6dTFTOJC50P2HrwWOEx8QREq0nLK2G/PHNpJpy8AhJxS+xksyiWqJi8ohINdMwZzHTZy8lJX8cpc1LufSon1tdtykoK2XYaCPhaXlMrJ9J+aS5hI/NwTvUTHLVNMxFlWSUTqNu5mxijQbGmOuZMWcDxYXFDFGKUXeGxL4S61A+o5Ixlo2numER5ZObCI/JwzuwiNSyOvLG5zFCl86Q8GlkTp5NVqqRgrqV3Ovv58K1U+SWT8AzKBc7bQHuYRnE5VZQWFlFZkUVFU1LSc0pxz84DrW+gryZSzBlFlPX0IA8eSLzpq8mMaGMAP0kSiumkFZYR2XjfMrLShgVlUBe7Wyu33/E8VPHyaucxLzVO+h9+Tti0ypIzplMwbiZmPInMmn6AsorJ6PSxaM1Tmb1ziO0bt7FsFHZyGKqyJ2wiHEzl1BYVoZME4qLOgGXAD1WAWaUpmqq6qajzyyhbvo8Msvq8A9NRC6OSeUMyptaKa+Zhyo8hWHBOWQVTSK/vIqUkoVUzJ1Pgj6HREMB5U3zMBZOwCcgCtfgcCLNRZRPX0hJ/WxCYjMlF2xHyU8ngqGKYDxUYThq4nBX5OKiLWCAWGfUmRmqMuKjFPYtibir4xkWaGBiYys3r95h5pylFE2ZR+XkmYSOipdGW27qNGyCMvE2TGDyxAWkZ1Qwbv4qKiZORxGSiruuiOjCeVRNX0pN3QxCE4y4BuaTVjyd7PIG0srnMnHWEpIzcomNzWdm81qK6uvxVcXiFphBYFIe4xuaKa+dTlySGR9tIuXzN3L63GnGZVczJGUcAVPnEhaVxijFGIao9QxVjmXUiBRiHI3IvWLx80xDMcSIzDscH99khsiTcBPro2IqW5oZEFMeKbhpEqQB0B9faH8tz51lRpxFOrynA+7OwyTIrscwB9yH++Pm//NU4Y91nn5qwiVmw9zkmQwM1mMRJOyK4nDxFxZUGThoRcJfNjYjTVgFJ+KpE96FiVgEZjI4IJdh/lnYKUpx1CTwaXASwlHEzzcfm+BkHMPSaCz3+rhwicwyO53YUTJB+goOXenm8ZvfsnXPASITTIQkl7Dr5BXaDhwiKDGbCXM3cOvOIwrGzeF692Nu3OnmzJnrLFy1nRX7TvHw/R94+uoFO3btpGLWSo5du8W1m9e5dech+/aewVjSQNulm/T2P+H87c/o+/wdvU+7udD5BbcevuXp017SC2qxVGZgo07AOzKPaS3budr3jMvdL7n35AtOXbhJYsZUthw9zo17x9AEmQlLX87Dd79j2dQZtB7s4uUf/pVnb3pZtX03w0aVMkiRz/DYMlbtPcbTF0+41nVPKlK+3/ec7JIJlM9fT8ebdzzoe0H3w15MDVt40fuSKZMXUD57G198/o5bDz7jcu9LHnZ10jR3KUt3nuTR51/y9NlzVgv+4saD9Dz/LSnZ42jdcYKXb7+k/eZ97vS9ovvBI6qrpzOmoJGD7VeYMnMB3hGFTF66nz0nb3L6Zg99/U+prJ6KZ6CY2khhsDaD4oV7ePX+d3R09nGz5zn3Hj+ldtZi0qum0Xb2OjvP3eBG1xPWbd9OYm49x85eo7+/m9M333D7zVv6Hz3mdlcfFx700/PsOSXVk9FXVHPlfi9XOns4d6eLbftOMNpUQfWC9Zy/95i7j55x+9ELLj/5gknNq3EOiEJpzqH92Ss6Hj+n+1E/t/t62XDkBOqYCupmbeXls/fce/CSKz0vefLsNYvmr2RERDFu8hQsNOmkNe/m/asv6ep4wsW+3/H01RsWL99AqKGBjae6ONLeIVE6dh86xqjsmWzcf4kXr95zrec9Dz7/kgePH9J99zm3e97y8N1rKsrqicqcwqXuPi7euMnJ9ktcbL9CnKESWflcWq7dZXL9cgqa1nD54il6UmJ4/i+/4LNfDKD3n/8vXv7y73j/X/6et7/6Tzz/53/g0YBPeDrwP/P67/+Jl//5H7n1T5ZsshhBmdNIAr3ipeSgXwflYCPW+f4Kpxpd5EZc/GQ4Cj+ur4XLfYj9z35cP/K5+skJl+qDcA0INkrC5amMx1OVga0uCztlEq7yNCzVZiwD03FWJOOuTMQiKE1qw+SpCKsUZ3UiA4OTcVLk4DMiF4vAWJxH61k2acjHhctSoZechm2FnYUylghjKYfbb/H2X/+Np88/Y9rspcxo3cHl+48pqZnCsVNnOXz8PKaJq7n/8h1Hjl8kPjYNb2U4YakFnO9+zLFTpxkVHoGghB9sP48p3UBNXTPXr3XTsGgDJzu6OHRwH9r4MjadusCL1/eJTCkgb8oSXv32DbXT52CrzcUxWM/onKnsvtRJS9tBAuOymdC0gu7Hj2iYvYrD509xv+cY0WNzMJSt57Pf/9+sqJ2FX2w5Vx88YcOOzXipQxHpmta6QrzjK1h38DQ371wnvTAfc8VkOnv62LzjALM37uP5H75izvJVqELi0E/bzbuXr5k/bwk1i3bzrO8h4xumY540h56Hfcxr2UJkVp0EBm5ZthpdcBK1i3fw+s1vMeSUs7rtFL/7/DNyyqtIrKqn53k/Cxe3YJ68kvbOe1ROrMdRbsQjOA7VqLFMnLmU/uevaN3QhvfIDJwUydgFZjGp9SSv3n9J9ZQZxBXWcr//OVv3HcIrLJ6RMbGkl5Ry5Oxlrl0/S+mkOZy6epvblw8zJrGUZUdO8/u3rzFm5xGfW8ur9+9Z3LJcKhY+e/kihnQ9NQ1NnLt+l7za+Shjc4g05BNnTCfGmM0ocwmqgEpshpqxUWQTnj6LsQlTSYyvJTppEoGxlQwbWcjEGVt52P2CyfULCU3M4cSpdm5evkNISj0e8mgcg/Mx1h/gv73/N6ZMnINveBnPXr7m0N49DB+Zi2xkHCnp2Rw6cYmOu3fIrlvN1mM36Oq4S1L6eOZt3cvbdy8oL55KTO4cPvu337NhxQZWbj/Nzfu96NNMlFVPpKPjLpMaW9CkzWT30R5amg/iE1GKKnIUpd7urPF3Y63alwXDFczy8qPNxpnXv/5HLg60Y/ZQPxq9h7PU1ZuF3tbUebuS7S0n0jccf/8UXGSZ2CoKsFf9dZLpBWTXyccPB3c7PFy98HRzx/VnOvyPPsj4yQnX115wgwLTpDVtd3kC9n6pknO9hzqaEbJRuGgyGKzJx1lpljwBrQJTGBwsHCxisFYV46ISUVgKTopsRvjmYR2axNDwGNbXe3xcuGzEGoBarFnocdElMzQogREBURSMr6P7/n0OHT1Bxdx17L/Zy4Hjx3jy8C5VNY04jq5iysJVdPe+4Kuv/o0N2w8RlJDB2c4H7D1ylLGx8bTuOcHz373n+eunPOh/w6VLXUybt44THffYuX0rPjGVLNh3khef3SFojIGxJQ08ev+ahqZmKeXaIyiJuLxajlzrZv76zZJlRvHEJjofdjN36WZOXLzMk8fnSIgxk1Awm1d/+IoVtTMYEZnLtZ7nbN6+E5kuHDdNsuRbJYstYcP+k5xvP0lqRhpJhePo6HrEjl2HWLh+Ly9/9yWG4kqUI82MndjGu7cvmNHUSO2yA/Q9vEtBTSVJNU3cvv+ABWt2EZE3lUOXu1i1ahNBoXomL9/DsyePSUjLk6Kxl70dxKZnElBYx72nj1nQspzU8cu51NlB5bg6QuJrWXPgFDcfPGB/ewcPn/TTunEb3iF6vENEWn0yE1bskwTHXFzJqMJ6uvr62HXkCBOXrOfB00ecudLOpTsPuHvnDOPr53L8eicXDq8nZHQGM9pO8GV/H8ERY4nJbOTZ51/Qun41W/a189sv3/Hq1UMePHnJiYs3SS6ZSlj6OEqnzWNCQzPjps+lpLGFJON4nGWj8RqTTOXcFYyfNp/J0+ZS3TAb47hpeEUWUd28kWvX71JcPQ11dCoHjxzlfud9YjJmMkIdKpU3mKYd4N3r1+iTc/EeXc2Dp30c3beN/NpWuh/2cf1GB2duPuJ6x3Vypraw/sg1Lhw7SkRCPpNWb+f1mz7ysicSnL2EJ1+9Y93i5azbeYK3f/iK7p6H3O15zJWrHYybuozw9KkcO3SNlun7GR4ygUHBJuxDcvhVWB5/l1rHIGUl/xRUSLhfPJcG+zPTKZJByhz+ITCPgfIS/kN4Bv9hdA7/KSyXX4XkShY7LgqT5NDtLJV3/HiL/f+r0Z2A7Dp6+2LvZoun63A8XN1xcrXCyXPEz7YmP2LU9VMTLvH7dFYZsNClY6sTNkd6XALTsQvKQBkyiqQYL+ShYVgHpknmvUOUH9zuBUTdXZWIpTYPN0Uq1jo9jsp03L2zGRgYQ3BSHGdXqz4uXNbKVByEI65GT4hpAvUr2jCW1jF59lLudD1k554Dkt3Jsn1nePn6BXeuniMqpRC3sTWEmnIYnZDClWsdXLrVxShjDsfu9HDmxi3i9WlMX76Nc3e7mFQ/haAxySQk5xOXNZHD1+6ycfNmhoypZMbOE9zvu4lmjInY8fPp/uINcxYvIz5zGrXzWjEVTWPX0YvsOX6KjKIaVmxo41ZPNwXVS1i/6yxvXj+ktKSGGWsO8uSrL5hbU4c8Oovb959y5uRFxkSnkpBTTfH0FSTmTWPnwTP09t5jQv1Upq/cyv0nnzO9uYXGZTt4/v5LEvOqGaI2EDZuB69eP6ehuZnqxQd58KCHwqm1xE1q4mpXt4ShCs2tY9/FO+w+cIRYfTETlu/lydNnxGeUMH/bST7r6ybSmIuuuIk7Lz9j3so1xFW0cOrGFeobZmMoXMSRm100L1tG9qQZ3O3tZdPONmKyKpm9eic6YwUTVrbx6LOnJBeMQ505hes9fRw+f4mFbSc53X6Wypoath06w6077ZTUzufglS5OH9qCblQ2jXtO8erBQ4KjEok0zeDxy/csbFnJnBV7udpxi3HV5UTEmYhKycJ/TAZxJTOYsXIXyzfuYcmmA8zdfIr8sjm4yseiSMmnedMBWjYdZeXGQyzZfEAinnhF5TJpwRaePHvD/DUbyZvWRPtNgZFqQ18yi2mz5zAys4a0hn384XdfkJNdwfCoCfQ8f8rJY/uZv/k8V27cpmJCLS07T9PRc5/CGa2sPXKDcyfOMia1kuqVbXz22VNMpomoM5bw4Pe/Y+mcRTQu3c6t3ufUTp/FqDgD4WNTkIWZGD1+OltunmfCnHUEpNWRVdvMyNhy3EQBuLqAYf4Z0tREqNKb7t/8F6a7OGERFC+NAv28s/CQ5eEmis6VgoqfLoF9hXO0fYBYe/3zFpv/V4Xnh/6dhzpDiricPB0+OCC7ukuswp8dkH/cQcZPT7hEWVKyVB4k6rfcFCasdSlSpnB+noFj2yLIKdJiGTAaO13sh8QzTQJWmhycFVlY6DLwkIvsQ1Fzm4aLXzaDRsYRYwjnXMvQjwuXnSoFJ5GppzUw0lzDrva7XHrYz7Xefg5fukvu+AaGBkRRs6CVJy9esKZ1Db5h6YRlNbG34wFnO/u40/OE2tnL8RtrZPLKrZzpfMymfadIq5rHxqPtEnj3Qlcfa7YfI7VkNmsPtks+Vc4ji5jcupvT1y/hOTKToIx6zt7tkkC69Yv2sPvMNZL++xRXbnUjJ2/c5uLdJ1ztesq8dRtRxtSQUbWK85ev0PnwCduuP+HEwx5qKqfhFZHOwtX76OnuZ9+h8zSv2syWU1coqG1h54EzvHj2gI4H3Zy+/5Sdx64xOr6Q/PrVnLnbS7ipGnufKOT5q7h66x5lNTMxN2zjyMlLJBbXElkxgz0nzjFp3hr8U8fRvOkgVzsfsXTTMSoXt9F+t5fApAIaWg/Sfu0uo42VBObOYP+VTmpmr8EvpZ5tR8+wunUz0Wn1LNp6jMudvRzseMK1B09oWrSC8sYWzt5+RN6MVornb+Hk5atEZlShME5k34UOlmzeT0HjCi7eecjV7j4u3Olj19Fj6CsX0nqgnfWb1+KuzaCidRfXr90jMNKMKm48J67ep7x2DhHmyWw5cJ6bPf1c7nrGyq2HEdGotUokS6RIeKdhASm4BGXg5Z/L8MAyrEQtmyITD0UWnv6ZOEtrkCacgowUTWuR/tdjN7o40dPPkSs3MRVNIK9uORdu3KNs3hbiatZzt6MTQ3olw6IncPDSTRatXU9B/UaudfVz6e4TDt/oo+3MRfQTlzBn03G27DyJOqaK4oUbuSQ+a64nOH0xJ7p7GTdxOn7RRazce5HLXU9o73zCxrYjBCaVUjRzJYfPnSazrJGqeeto77xFWs44RsgSCBkaJ+FpBgYlM0rhRf8v/yNT3e2xCErh0xCRmJHCMEUSQxVJkmO0m1q4RidiFyBS+5N/UHrvDxWnb/u8uzodxxG+0lShWONyd3bF2d36ZyPJHzHaEufnpyhcDtp4KZvbWWnEVS5YpElYaVMpz43k8jZnygs9sQ4Ix0aXwBCZCRd1PDbCGV2ZLVkWDZWZJNcIUYfrrMxl8KgEkvRaLi93/bhw2Qv6hUgV1xpwCTTirE3CxmcU7uoxEjrIPcREaKyRWS3ruHG3i/xxDbgGZeIhj+Nf/MbiHqRnuCaBIYJ2oDNgpTNgI4/D3lcQKNLwCEnGRRWKpW8UDj5x2MhEsXACLv6jsPA34BwYj5suhIGKbAb7JjNUPQoXQcCQixT7JBw1eix8InBQR+CiScU90IhraCS2QcVY+OfipRrNEEUSAwLMWIfF4uOnx350NvayVIb6peLqF4NTQBwWymi8x5SxbX87p0/sI8ZgxFYVi7tILdeZsFCasFNG4eifjJMskv+qLcJPHYO7LJZPg4oZoU3FTmFmsMaAlyISd5GiHpyPY6AeT/VYrH1jsdIk4BycyGB5NNZKke6diqg5s1Oa8NCacNeYcYqoZurCtRw4dIro9DocZIk4eY9mgG8cropoPPwicJQl4SZLkoq3PSJK8fQPxVYRi7UsQUJUCYtsK9+x2PpG4iCLZohYBNXGYqHIxVmdgKc6hIH+WQwKisFLpOEPGyP1x1OdgrsiEfsAUaSbhIM8FlddIsMCkrAXlAl1hlQW4akRGXRG7HV5eCjjsVNFYRkSw6fqSJy00bhoorELiGGwLpZPvROx90vGRxmNgyyGTxTJOOtScNN9qAsc6hOOvS6NAdoc1PI4hvkmMDi4WEpTt5KH4aDJwiPQjIO/QGslY6ceywBZAg7KeFyVqQzyy8RSncIQbTQevgLjlY+dKAofHoz1yAIsRZG3PBYb/yjcFRGoEkto2XmR9St3EhJeTsOivWzYuZvQpHIc1JnIhhskgskQ/3RSvZS8+fu/o8HJC0+/AtyUGVI2ocjmtNGJgmtRBC/qBb8uv1Bn/FFx5Y87kv820RLvialCey9vhJGkq+MQyY/L3tkCB3evn6cKf0Tx+ikKl70uBlt1thRtucqzGBiSgJUuheqcAO5sGczELCU2KjNWmlyG+uXjrorGTqoP1TMgOJVhfmYEp1SUPdmrcvlNyFiyM5U82OL5ceEShZ8SgFSKulIRKdF2ymicVDHYBpiRJ1ezZP0ezt9+zOK1u1BH5yPwRsKld7BUp2XCU2PCWZ6KvS4LG102zoHZEhrIUZuJc6CoSYrCSpGEvSBqKM1YKwTvLw4Lv2RcdHE46qL5RJErFQb7BCdh5W/ESp6OtWANCgyRLAFbIWJBWdgLxFNIDJaBuVhrCxgekoxHQDqWYYUMCtQzVFHIoGCx3wLcha+TqBkLSuUTRRxeUVW0tl3g8PGjRKSKAmghBKLw2IRdYC4OAak4C8qGPJIBwUV4a404+qfwa2W2VL9lLc/BWp2Bh38cTnID1gEFOAVl4aYWx8yEpVKwCg1YKBIlqshgRRq2YtFcYcJRacYtII9PNdkEJRbSvGgNmdULpXo0e98YxN+6aUx4KlIR9WziRuSkK8BWm4e7YCAqknBQJErzxPbKFOwEu1ElBgnJuCpSsVGn8KkqD1edARdtDAOVuQzUjMUzMBlXuYHBingJfyUE3UZnxDHALKGyrORxOCsSsFQYGKz8gM9yVgoMmBFrVRYu/ulY+hkZJBJcNNnYygXL8gMpZbCgn8jMOMjSGCJPligaAwWhJCAbe3W2RE8ZIugl6nR+o0hjyPBE3ITBXEA+VjITg1UCi5WBY4Dw+zFgr9Bjp01FILhE/ZuDOp1P/bOwUgq8WDwuMmFxks5gtRgARTMoMA/boGxs1anYiYGCMobR2bVUt+wnIq8OG10OWuMUAg05WI8y8Y+js6T1LutAcZ7NRPgFc3PQL0jzlzNYU4yzKl2KqiyCDJKRqShOF4XpLqp0XJXZuCpyP4BDv+VGKCr+P9bEdfahfYPF+UB7+UB8+W7KwDd0+3/vUbhD2w7zx9bZFmcHZ5ztbbG1H4S96zBc/GI+2qeP9fWb7R/wPd/09//7KPr+be27BPfbv//bBweiRvRjTXzvv3ecxDbx3jf/37/3+F19/tg+xXbxuxLFuI6CJhQYS4v7Kt5YXcXPPwILTf537NeAg6hX/Uj79/r6zbbv6vNf7H2NHtuAsTiJa0QhMgczGSiMcHUpTMxVcW+zJeOzQ7BTlmGvLGOYLBN3WRoCNuEYGMognV4SMxd5Ok5qUW+YxqCQBEoKtdzf5sn/A8O9RHcB2I2uAAAAAElFTkSuQmCC;" vertex="1" parent="1">
          <mxGeometry x="20" y="920" width="430" height="175" as="geometry" />
        </mxCell>
      </root>
    </mxGraphModel>
  </diagram>
</mxfile>
